<?xml version="1.0" encoding="UTF-8"?>
<!DOCTYPE svg PUBLIC "-//W3C//DTD SVG 1.0//EN" "http://www.w3.org/TR/2001/REC-SVG-20010904/DTD/svg10.dtd">
<!-- Creator: CorelDRAW -->
<svg xmlns="http://www.w3.org/2000/svg" xml:space="preserve" width="1300px" height="1300px" version="1.0" style="shape-rendering:geometricPrecision; text-rendering:geometricPrecision; image-rendering:optimizeQuality; fill-rule:evenodd; clip-rule:evenodd"
viewBox="0 0 1300 1056"
 xmlns:xlink="http://www.w3.org/1999/xlink">
 <defs>
  <style type="text/css">
   <![CDATA[
    .fil4 {fill:#1A1A1A;fill-opacity:0.501961}
    .fil0 {fill:#663333;fill-opacity:0.501961}
    .fil2 {fill:#9999FF;fill-opacity:0.501961}
    .fil1 {fill:red;fill-opacity:0.501961}
    .fil5 {fill:#9900CC}
    .fil3 {fill:fuchsia}
    .fil6 {fill:#FF6600}
   ]]>
  </style>
 </defs>
 <g id="Layer_x0020_22" visibility="hidden">
  <metadata id="CorelCorpID_0Corel-Layer"/>
  <path class="fil0" d="M975 566l-53 -54 0 -15 -12 -416c-1,-21 0,-25 11,-37l35 -35c15,-16 19,-9 19,7l0 550z"/>
  <path class="fil1" d="M922 487l53 -22c2,69 33,104 146,104l0 81c-121,0 -200,-35 -199,-163z"/>
 </g>
 <g id="Layer_x0020_23" visibility="hidden">
  <metadata id="CorelCorpID_1Corel-Layer"/>
  <path class="fil0" d="M975 566l-53 -54 0 -15 -12 -416c-1,-21 0,-25 11,-37l35 -35c15,-16 19,-9 19,7l0 550z"/>
  <path class="fil0" d="M975 466c0,82 67,103 130,103l0 81c-120,0 -172,-53 -183,-138l53 -46z"/>
 </g>
 <g id="Layer_x0020_24" visibility="hidden">
  <metadata id="CorelCorpID_2Corel-Layer"/>
  <path class="fil0" d="M975 566l-58 -69 -7 -416c0,-21 0,-25 11,-37l35 -35c15,-16 19,-9 19,7l0 456 0 94z"/>
  <path class="fil2" d="M919 406c27,-8 62,-19 56,20 -1,15 0,25 0,38 0,59 23,105 145,105l0 81c-154,0 -203,-67 -203,-163 0,-13 1,-80 2,-81z"/>
 </g>
 <g id="Layer_x0020_25" visibility="hidden">
  <metadata id="CorelCorpID_3Corel-Layer"/>
  <path class="fil3" d="M975 434l-52 36c2,39 3,89 31,126 24,31 67,54 146,54l0 -81c-98,0 -125,-33 -125,-135z"/>
  <path class="fil0" d="M923 470l-13 -389c-1,-21 0,-25 11,-37l35 -35c15,-16 19,-9 19,7l0 507 -52 -53z"/>
 </g>
 <g id="Layer_x0020_26" visibility="hidden">
  <metadata id="CorelCorpID_4Corel-Layer"/>
  <polygon class="fil4" points="901,441 901,35 975,0 975,616 "/>
  <path class="fil5" d="M1088 569l0 81 -16 0c-65,0 -179,-5 -171,-216l74 -34 0 41c0,88 16,128 98,128l15 0z"/>
 </g>
 <g id="Layer_x0020_27">
  <metadata id="CorelCorpID_5Corel-Layer"/>
  <path class="fil6" d="M1081 569l0 81c-138,0 -174,-54 -178,-165l-2 -73 0 0 0 -4 0 0 0 -373 74 -35 0 423 0 0 0 56c1,68 28,90 106,90z"/>
 </g>
</svg>
