<?xml version="1.0" encoding="UTF-8"?>
<!DOCTYPE svg PUBLIC "-//W3C//DTD SVG 1.0//EN" "http://www.w3.org/TR/2001/REC-SVG-20010904/DTD/svg10.dtd">
<!-- Creator: CorelDRAW -->
<svg xmlns="http://www.w3.org/2000/svg" xml:space="preserve" width="1300px" height="1300px" version="1.0" style="shape-rendering:geometricPrecision; text-rendering:geometricPrecision; image-rendering:optimizeQuality; fill-rule:evenodd; clip-rule:evenodd"
viewBox="0 0 1300 1056"
 xmlns:xlink="http://www.w3.org/1999/xlink">
 <defs>
  <style type="text/css">
   <![CDATA[
    .fil2 {fill:#663333;fill-opacity:0.501961}
    .fil1 {fill:#9999FF;fill-opacity:0.501961}
    .fil0 {fill:#99CCCC}
   ]]>
  </style>
 </defs>
 <g id="Layer_x0020_21" visibility="hidden">
  <metadata id="CorelCorpID_0Corel-Layer"/>
  <path class="fil0" d="M764 650l0 -81c-20,0 -40,19 -40,40 -1,21 20,41 40,41z"/>
  <path class="fil1" d="M923 428c1,-6 1,-13 13,-17l33 -11c19,-6 17,6 14,23 -21,103 -4,146 142,146l0 81c-202,0 -231,-92 -202,-222z"/>
  <path class="fil2" d="M764 569l0 81c124,0 211,-34 211,-147 0,-5 -3,-10 -3,-15 -6,6 -9,11 -14,16 -48,43 -91,65 -194,65z"/>
 </g>
 <g id="Layer_x0020_22">
  <metadata id="CorelCorpID_1Corel-Layer"/>
  <path class="fil0" d="M769 569c59,0 105,-5 145,-21 -5,-16 -8,-33 -11,-53l-11 -76 70 -17 11 78c10,68 22,89 112,89l0 81c-67,0 -110,-13 -138,-43 -41,34 -111,43 -178,43 -20,0 -41,-20 -41,-41 1,-21 21,-40 41,-40z"/>
 </g>
</svg>
