<?xml version="1.0" encoding="UTF-8"?>
<!DOCTYPE svg PUBLIC "-//W3C//DTD SVG 1.0//EN" "http://www.w3.org/TR/2001/REC-SVG-20010904/DTD/svg10.dtd">
<!-- Creator: CorelDRAW -->
<svg xmlns="http://www.w3.org/2000/svg" xml:space="preserve" width="1300px" height="1300px" version="1.0" style="shape-rendering:geometricPrecision; text-rendering:geometricPrecision; image-rendering:optimizeQuality; fill-rule:evenodd; clip-rule:evenodd"
viewBox="0 0 1300 1056"
 xmlns:xlink="http://www.w3.org/1999/xlink">
 <defs>
  <style type="text/css">
   <![CDATA[
    .fil1 {fill:#9900CC}
    .fil0 {fill:#99CCCC}
   ]]>
  </style>
 </defs>
 <g id="Layer_x0020_12" visibility="hidden">
  <metadata id="CorelCorpID_0Corel-Layer"/>
  <path class="fil0" d="M761 650l0 -81c-20,0 -40,19 -41,40 0,21 21,41 41,41z"/>
  <path class="fil1" d="M945 335l-74 35c16,57 32,136 36,178 -40,16 -87,21 -146,21l0 81c102,0 209,-20 214,-121 2,-46 -8,-123 -30,-194z"/>
 </g>
 <g id="Layer_x0020_13">
  <metadata id="CorelCorpID_1Corel-Layer"/>
  <path class="fil0" d="M745 569c57,0 108,-1 162,-22 3,-11 -13,-108 -41,-194l75 -34c26,87 39,165 34,210 -12,96 -97,121 -230,121 -21,0 -41,-20 -41,-41 0,-21 20,-40 41,-40z"/>
 </g>
</svg>
