<?xml version="1.0" encoding="UTF-8"?>
<!DOCTYPE svg PUBLIC "-//W3C//DTD SVG 1.0//EN" "http://www.w3.org/TR/2001/REC-SVG-20010904/DTD/svg10.dtd">
<!-- Creator: CorelDRAW -->
<svg xmlns="http://www.w3.org/2000/svg" xml:space="preserve" width="1300px" height="1300px" version="1.0" style="shape-rendering:geometricPrecision; text-rendering:geometricPrecision; image-rendering:optimizeQuality; fill-rule:evenodd; clip-rule:evenodd"
viewBox="0 0 1300 1056"
 xmlns:xlink="http://www.w3.org/1999/xlink">
 <defs>
  <style type="text/css">
   <![CDATA[
    .fil0 {fill:#663333}
   ]]>
  </style>
 </defs>
 <g id="Layer_x0020_13">
  <metadata id="CorelCorpID_0Corel-Layer"/>
  <path class="fil0" d="M414 359c-143,273 333,238 495,171 -2,-11 -4,-22 -6,-35l-11 -76 70 -17 11 78c1,4 1,8 2,11l0 0 0 2c9,58 25,76 110,76l0 81c-72,0 -117,-16 -145,-51 -3,2 -7,4 -11,6 -204,90 -757,119 -563,-267l48 21z"/>
 </g>
</svg>
