<?xml version="1.0" encoding="UTF-8"?>
<!DOCTYPE svg PUBLIC "-//W3C//DTD SVG 1.0//EN" "http://www.w3.org/TR/2001/REC-SVG-20010904/DTD/svg10.dtd">
<!-- Creator: CorelDRAW -->
<svg xmlns="http://www.w3.org/2000/svg" xml:space="preserve" width="1300px" height="1300px" version="1.0" style="shape-rendering:geometricPrecision; text-rendering:geometricPrecision; image-rendering:optimizeQuality; fill-rule:evenodd; clip-rule:evenodd"
viewBox="0 0 1300 1056"
 xmlns:xlink="http://www.w3.org/1999/xlink">
 <defs>
  <style type="text/css">
   <![CDATA[
    .fil2 {fill:#663333;fill-opacity:0.501961}
    .fil1 {fill:#9999FF;fill-opacity:0.501961}
    .fil3 {fill:#663333}
    .fil0 {fill:#99CCCC}
   ]]>
  </style>
 </defs>
 <g id="Layer_x0020_21" visibility="hidden">
  <metadata id="CorelCorpID_0Corel-Layer"/>
  <path class="fil0" d="M764 650l0 -81c-20,0 -40,19 -40,40 -1,21 20,41 40,41z"/>
  <path class="fil1" d="M923 428c1,-6 1,-13 13,-17l33 -11c19,-6 17,6 14,23 -21,103 -4,146 142,146l0 81c-202,0 -231,-92 -202,-222z"/>
  <path class="fil2" d="M764 569l0 81c124,0 211,-34 211,-147 0,-5 -3,-10 -3,-15 -6,6 -9,11 -14,16 -48,43 -91,65 -194,65z"/>
 </g>
 <g id="Layer_x0020_22">
  <metadata id="CorelCorpID_1Corel-Layer"/>
  <path class="fil3" d="M1075 569l0 81 -23 0c-60,0 -98,-13 -121,-39 -40,30 -104,39 -186,39l-30 0 0 0 0 0c-20,0 -40,-20 -40,-41 0,-21 20,-40 40,-40l0 0 0 0 30 0c37,0 114,-6 155,-19 -3,-13 -6,-26 -8,-40l-15 -114 73 -15 16 116c2,14 5,25 9,35l0 0 0 0c12,27 38,37 100,37z"/>
 </g>
</svg>
