<?xml version="1.0" encoding="UTF-8"?>
<!DOCTYPE svg PUBLIC "-//W3C//DTD SVG 1.0//EN" "http://www.w3.org/TR/2001/REC-SVG-20010904/DTD/svg10.dtd">
<!-- Creator: CorelDRAW -->
<svg xmlns="http://www.w3.org/2000/svg" xml:space="preserve" width="1300px" height="1300px" version="1.0" style="shape-rendering:geometricPrecision; text-rendering:geometricPrecision; image-rendering:optimizeQuality; fill-rule:evenodd; clip-rule:evenodd"
viewBox="0 0 1300 1056"
 xmlns:xlink="http://www.w3.org/1999/xlink">
 <defs>
  <style type="text/css">
   <![CDATA[
    .fil3 {fill:lime;fill-opacity:0.501961}
    .fil2 {fill:#663333;fill-opacity:0.501961}
    .fil4 {fill:#6666FF;fill-opacity:0.501961}
    .fil0 {fill:#9999FF;fill-opacity:0.501961}
    .fil1 {fill:#99CCCC}
   ]]>
  </style>
 </defs>
 <g id="Layer_x0020_15" visibility="hidden">
  <metadata id="CorelCorpID_0Corel-Layer"/>
  <path class="fil0" d="M921 422c1,-6 4,-12 16,-16l21 -6c20,-6 20,7 18,23 -8,76 -7,146 142,146l0 81c-185,0 -218,-98 -197,-228z"/>
  <path class="fil1" d="M764 650l0 -81c-21,0 -41,19 -41,40 0,21 20,41 41,41z"/>
  <path class="fil2" d="M764 569l0 81c130,0 211,-50 211,-163 -19,19 -36,34 -55,46 -36,24 -80,36 -156,36z"/>
 </g>
 <g id="Layer_x0020_16" visibility="hidden">
  <metadata id="CorelCorpID_1Corel-Layer"/>
  <path class="fil3" d="M924 428c1,-6 2,-12 14,-17l29 -11c19,-6 15,5 14,23l-7 99c-2,31 49,47 151,47l0 81c-93,0 -151,-19 -181,-53 -15,-17 -61,-33 -66,-43 16,-6 29,-12 32,-34l14 -92z"/>
  <path class="fil1" d="M764 650l0 -81c-20,0 -40,19 -40,40 -1,21 20,41 40,41z"/>
  <path class="fil2" d="M764 569l0 81c124,0 211,-34 211,-147 0,-5 -3,-10 -3,-15 -6,6 -9,11 -14,16 -48,43 -91,65 -194,65z"/>
 </g>
 <g id="Layer_x0020_17" visibility="hidden">
  <metadata id="CorelCorpID_2Corel-Layer"/>
  <path class="fil4" d="M924 428c1,-6 2,-12 14,-17l29 -11c19,-6 16,5 14,23l-12 98c-4,49 127,48 156,48l0 81c-93,0 -151,-19 -181,-53 0,0 0,0 -1,-1 -35,40 -100,54 -179,54l0 -81c50,0 85,-5 114,-15 16,-6 29,-12 32,-34l14 -92z"/>
  <path class="fil1" d="M764 650l0 -81c-20,0 -40,19 -40,40 -1,21 20,41 40,41z"/>
 </g>
 <g id="Layer_x0020_18">
  <metadata id="CorelCorpID_3Corel-Layer"/>
  <path class="fil1" d="M769 569c59,0 105,-5 145,-21 -5,-16 -8,-33 -11,-53l-11 -76 70 -17 11 78c10,68 22,89 112,89l0 81c-67,0 -110,-13 -138,-43 -41,34 -111,43 -178,43 -20,0 -41,-20 -41,-41 1,-21 21,-40 41,-40z"/>
 </g>
</svg>
