<?xml version="1.0" encoding="UTF-8"?>
<!DOCTYPE svg PUBLIC "-//W3C//DTD SVG 1.0//EN" "http://www.w3.org/TR/2001/REC-SVG-20010904/DTD/svg10.dtd">
<!-- Creator: CorelDRAW -->
<svg xmlns="http://www.w3.org/2000/svg" xml:space="preserve" width="1300px" height="1300px" version="1.0" style="shape-rendering:geometricPrecision; text-rendering:geometricPrecision; image-rendering:optimizeQuality; fill-rule:evenodd; clip-rule:evenodd"
viewBox="0 0 1300 1056"
 xmlns:xlink="http://www.w3.org/1999/xlink">
 <defs>
  <style type="text/css">
   <![CDATA[
    .fil0 {fill:#FF6600}
   ]]>
  </style>
 </defs>
 <g id="Layer_x0020_6">
  <metadata id="CorelCorpID_0Corel-Layer"/>
  <path class="fil0" d="M1079 569l0 81c-70,0 -111,-12 -139,-43 -35,32 -91,43 -147,43 -62,0 -172,-7 -135,-159l41 13c-12,63 32,65 87,65 40,0 80,-6 121,-22l1 0c-3,-7 -5,-15 -7,-23l-67 -241 71 -33 3 11 67 243c15,56 40,65 104,65z"/>
 </g>
</svg>
