<?xml version="1.0" encoding="UTF-8"?>
<!DOCTYPE svg PUBLIC "-//W3C//DTD SVG 1.0//EN" "http://www.w3.org/TR/2001/REC-SVG-20010904/DTD/svg10.dtd">
<!-- Creator: CorelDRAW -->
<svg xmlns="http://www.w3.org/2000/svg" xml:space="preserve" width="1300px" height="1300px" version="1.0" style="shape-rendering:geometricPrecision; text-rendering:geometricPrecision; image-rendering:optimizeQuality; fill-rule:evenodd; clip-rule:evenodd"
viewBox="0 0 1300 1056"
 xmlns:xlink="http://www.w3.org/1999/xlink">
 <defs>
  <style type="text/css">
   <![CDATA[
    .fil2 {fill:#996633;fill-opacity:0.501961}
    .fil3 {fill:#CC9933;fill-opacity:0.501961}
    .fil1 {fill:#FF9933;fill-opacity:0.501961}
    .fil0 {fill:#99CCCC}
   ]]>
  </style>
 </defs>
 <g id="_100:master" visibility="hidden">
  <metadata id="CorelCorpID_0Corel-Layer"/>
  <path class="fil0" d="M560 569c-20,0 -40,19 -41,40 0,21 21,41 41,41l0 -81z"/>
  <path class="fil1" d="M560 569l0 81c164,0 267,-81 383,-81 20,0 19,-8 25,-25l7 -18c8,-19 -13,-16 -41,-16 -125,1 -226,59 -374,59z"/>
  <path class="fil2" d="M723 281c-129,90 -72,282 43,317l60 -44c-95,-42 -153,-150 -103,-273z"/>
  <path class="fil3" d="M654 383l28 15c65,-75 151,-73 225,-53 16,5 22,3 25,-5l4 -12c3,-7 6,-15 -2,-21 -24,-21 -73,-55 -128,-55 -55,0 -131,44 -152,131z"/>
 </g>
 <g id="Layer_x0020_1">
  <metadata id="CorelCorpID_1Corel-Layer"/>
  <path class="fil0" d="M536 569l0 0 0 0 78 0c14,0 28,-1 41,-1 -47,-45 -62,-109 -47,-168 31,-127 182,-150 299,-80l-41 70c-78,-29 -150,-21 -195,13 9,68 57,137 115,145 62,-15 117,-36 161,-57l28 73c-81,54 -246,86 -361,86l-78 0 0 0c-20,-1 -40,-20 -40,-41 0,-20 20,-40 40,-40z"/>
 </g>
</svg>
