<?xml version="1.0" encoding="UTF-8"?>
<!DOCTYPE svg PUBLIC "-//W3C//DTD SVG 1.0//EN" "http://www.w3.org/TR/2001/REC-SVG-20010904/DTD/svg10.dtd">
<!-- Creator: CorelDRAW -->
<svg xmlns="http://www.w3.org/2000/svg" xml:space="preserve" width="1300px" height="1300px" version="1.0" style="shape-rendering:geometricPrecision; text-rendering:geometricPrecision; image-rendering:optimizeQuality; fill-rule:evenodd; clip-rule:evenodd"
viewBox="0 0 1300 1056"
 xmlns:xlink="http://www.w3.org/1999/xlink">
 <defs>
  <style type="text/css">
   <![CDATA[
    .fil8 {fill:#003399;fill-opacity:0.501961}
    .fil5 {fill:#336699;fill-opacity:0.501961}
    .fil7 {fill:#666633;fill-opacity:0.501961}
    .fil2 {fill:#6666CC;fill-opacity:0.501961}
    .fil9 {fill:#6666FF;fill-opacity:0.501961}
    .fil3 {fill:#669933;fill-opacity:0.501961}
    .fil1 {fill:red;fill-opacity:0.501961}
    .fil6 {fill:fuchsia;fill-opacity:0.501961}
    .fil0 {fill:#FF9933;fill-opacity:0.501961}
    .fil4 {fill:#FFCC00;fill-opacity:0.501961}
   ]]>
  </style>
 </defs>
 <g id="_100:master" visibility="hidden">
  <metadata id="CorelCorpID_0Corel-Layer"/>
  <path class="fil0" d="M499 299l-6 71c75,-9 145,47 196,128 51,81 90,152 267,152l40 0 1 -81 -41 0c-158,0 -176,-33 -220,-107 -56,-94 -156,-156 -237,-163z"/>
  <path class="fil1" d="M713 454l28 72c117,-55 203,-135 153,-225 -7,63 -86,114 -181,153z"/>
  <path class="fil2" d="M895 408c60,-138 -52,-163 -180,-163 -115,0 -234,51 -247,54l9 81c10,-3 126,-51 239,-53 74,-1 175,16 179,81z"/>
  <path class="fil0" d="M756 519l-34 -69c-143,71 -211,202 -211,312 0,222 259,234 455,197l16 -82c-289,53 -417,-30 -416,-134 0,-80 74,-172 190,-224z"/>
 </g>
 <g id="Layer_x0020_1" visibility="hidden">
  <metadata id="CorelCorpID_1Corel-Layer"/>
  <path class="fil3" d="M783 538l-39 -68c-131,65 -207,179 -207,286 0,107 77,262 409,206 14,-2 22,-4 25,-20l10 -52c2,-11 -10,-11 -17,-9 -260,46 -379,-38 -379,-134 0,-77 78,-160 198,-209z"/>
  <path class="fil0" d="M536 317l0 81c33,-9 65,12 104,43 73,58 172,208 347,208l14 0 0 -81c-148,0 -248,-119 -320,-172 -64,-48 -107,-89 -145,-79z"/>
  <path class="fil1" d="M747 472l34 63c84,-50 149,-124 142,-210 -11,-133 -270,-97 -387,-8l0 81c114,-76 305,-107 332,-38 9,34 -46,78 -121,112z"/>
 </g>
 <g id="Layer_x0020_2" visibility="hidden">
  <metadata id="CorelCorpID_2Corel-Layer"/>
  <path class="fil0" d="M745 537l-43 -62c-115,66 -181,171 -181,271 0,107 77,263 409,207 14,-3 21,-5 24,-20l10 -53c3,-11 -9,-10 -16,-9 -261,46 -379,-38 -379,-134 -1,-72 68,-150 176,-200z"/>
  <path class="fil1" d="M536 308l-15 76c57,6 90,43 130,85 56,58 124,181 288,181l70 0 0 -81 -70 0c-124,0 -182,-93 -228,-136 -51,-48 -85,-103 -175,-125z"/>
  <path class="fil1" d="M727 465l32 66c70,-37 123,-82 143,-100 25,-24 25,-68 23,-91 -42,34 -113,86 -198,125z"/>
  <path class="fil4" d="M918 390c64,-222 -270,-165 -377,-106l-16 81c61,-21 357,-107 363,26l30 -1z"/>
 </g>
 <g id="Layer_x0020_3" visibility="hidden">
  <metadata id="CorelCorpID_3Corel-Layer"/>
  <path class="fil0" d="M754 543l-35 -65c-114,68 -182,169 -182,268 0,92 57,216 284,213 23,0 74,-4 108,-11 46,-8 61,-47 70,-79 6,-25 -8,-11 -24,-8 -51,14 -108,17 -149,17 -163,0 -241,-64 -241,-141 -1,-70 66,-141 169,-194z"/>
  <path class="fil1" d="M1008 650l32 0 0 -81 -31 0c-163,0 -213,-104 -265,-147 -52,-45 -93,-94 -166,-114l-13 64c63,8 94,46 131,87 53,59 119,191 312,191z"/>
  <path class="fil1" d="M675 507l29 65c76,-52 238,-85 256,-212l-77 -12c10,7 15,14 17,18 29,54 -192,108 -225,141z"/>
  <path class="fil5" d="M958 374c19,-92 -61,-130 -161,-130 -84,0 -169,22 -216,48l-16 80c36,-12 146,-47 238,-47 64,1 107,27 109,82l46 -33z"/>
 </g>
 <g id="Layer_x0020_4" visibility="hidden">
  <metadata id="CorelCorpID_4Corel-Layer"/>
  <path class="fil0" d="M780 518l-31 -68c-289,128 -298,491 56,485 23,-1 73,-5 108,-11 45,-9 61,-47 69,-80 7,-24 -7,-10 -23,-7 -51,13 -108,16 -149,16 -330,7 -273,-247 -30,-335z"/>
  <path class="fil1" d="M544 316l-11 59c170,11 210,275 459,275l0 -81c-224,0 -244,-245 -448,-253z"/>
  <path class="fil1" d="M741 454l39 64c97,-47 145,-133 145,-191 0,-65 -78,-98 -160,-97 -84,1 -169,38 -216,64l-16 81c36,-13 146,-64 238,-63 44,0 83,5 101,30 15,21 -60,85 -131,112z"/>
 </g>
 <g id="Layer_x0020_5" visibility="hidden">
  <metadata id="CorelCorpID_5Corel-Layer"/>
  <path class="fil1" d="M501 374l12 -56c70,0 137,65 190,113 53,49 118,138 321,138l0 81c-212,0 -294,-118 -356,-180 -42,-42 -115,-94 -167,-96z"/>
  <path class="fil6" d="M870 408l-25 25c75,-176 -219,-155 -344,-59l17 -82c140,-114 468,-111 352,116z"/>
  <path class="fil1" d="M703 444l28 73c117,-58 178,-141 162,-217l-34 39c-2,32 -59,72 -156,105z"/>
  <path class="fil0" d="M730 515l-33 -73c-146,51 -227,150 -228,271 -1,156 123,229 248,229 79,0 159,-29 209,-84 9,-11 7,-33 -8,-27 -46,17 -114,30 -181,30 -109,-1 -216,-37 -217,-149 -1,-80 82,-157 210,-197z"/>
 </g>
 <g id="Layer_x0020_6" visibility="hidden">
  <metadata id="CorelCorpID_6Corel-Layer"/>
  <path class="fil1" d="M553 366l11 -59c281,67 226,262 511,262l0 81c-314,0 -306,-253 -522,-284z"/>
  <path class="fil6" d="M907 383c12,-131 -243,-102 -355,-15l17 -82c113,-93 348,-108 374,8 1,7 -1,19 -2,31 -3,29 -12,63 -34,58z"/>
  <path class="fil7" d="M739 431l34 63c137,-55 186,-122 170,-200l-45 27c4,62 -89,85 -159,110z"/>
  <path class="fil0" d="M776 494l-25 -68c-162,60 -241,183 -244,293l53 0c0,-81 75,-178 216,-225z"/>
  <path class="fil8" d="M560 719l-53 0c-4,250 337,295 463,155 9,-10 7,-32 -8,-27 -119,37 -402,51 -402,-128z"/>
 </g>
 <g id="Layer_x0020_7" visibility="hidden">
  <metadata id="CorelCorpID_7Corel-Layer"/>
  <path class="fil6" d="M885 417c76,-176 -219,-155 -343,-59l17 -82c114,-93 343,-105 374,12 14,50 -14,94 -48,129z"/>
  <path class="fil7" d="M746 428l30 66c113,-45 181,-141 157,-209l-41 26c3,24 -50,78 -146,117z"/>
  <path class="fil9" d="M543 357l12 -58c93,14 166,76 235,136 77,67 130,134 244,134l0 81c-248,2 -275,-251 -491,-293z"/>
  <path class="fil0" d="M776 494l-25 -68c-162,60 -241,183 -244,293l53 0c0,-81 75,-178 216,-225z"/>
  <path class="fil8" d="M560 719l-53 0c-4,250 322,288 463,155 10,-10 8,-31 -8,-27 -117,30 -393,63 -402,-128z"/>
 </g>
 <g id="Layer_x0020_8">
  <metadata id="CorelCorpID_8Corel-Layer"/>
  <path class="fil6" d="M843 336c-78,-16 -153,-13 -216,-3 24,17 47,38 70,60 14,15 28,28 41,40 61,-34 98,-73 105,-97zm-333 26l10 -82c65,-40 244,-57 341,-24 49,16 47,62 29,107 -14,39 -47,84 -96,122 69,59 120,84 213,84l0 81c-126,0 -196,-39 -279,-123 -70,39 -177,103 -175,182 3,79 98,119 191,119 58,0 117,-11 159,-26l23 60c-130,80 -447,77 -441,-151 2,-91 80,-185 187,-244 -7,-8 -15,-17 -22,-25 -35,-40 -88,-67 -140,-80z"/>
 </g>
</svg>
