<?xml version="1.0" encoding="UTF-8"?>
<!DOCTYPE svg PUBLIC "-//W3C//DTD SVG 1.0//EN" "http://www.w3.org/TR/2001/REC-SVG-20010904/DTD/svg10.dtd">
<!-- Creator: CorelDRAW -->
<svg xmlns="http://www.w3.org/2000/svg" xml:space="preserve" width="1300px" height="1300px" version="1.0" style="shape-rendering:geometricPrecision; text-rendering:geometricPrecision; image-rendering:optimizeQuality; fill-rule:evenodd; clip-rule:evenodd"
viewBox="0 0 1300 1056"
 xmlns:xlink="http://www.w3.org/1999/xlink">
 <defs>
  <style type="text/css">
   <![CDATA[
    .fil3 {fill:#6666CC;fill-opacity:0.501961}
    .fil2 {fill:red;fill-opacity:0.501961}
    .fil1 {fill:#FF9933;fill-opacity:0.501961}
    .fil0 {fill:#99CCCC}
   ]]>
  </style>
 </defs>
 <g id="_100:master" visibility="hidden">
  <metadata id="CorelCorpID_0Corel-Layer"/>
  <path class="fil0" d="M553 569c-20,0 -41,19 -41,40 0,21 21,41 41,41l0 -81z"/>
  <path class="fil1" d="M600 390l-13 49c126,-38 119,211 377,211l60 0 0 -81 -79 0c-228,0 -214,-228 -345,-179z"/>
  <path class="fil2" d="M551 569l0 81 31 0c179,-2 379,-152 370,-268l-69 23c76,50 -178,164 -282,164l-50 0z"/>
  <path class="fil3" d="M918 480c135,-209 -154,-191 -317,-122l-16 82c93,-36 339,-112 333,40z"/>
 </g>
 <g id="Layer_x0020_1" visibility="hidden">
  <metadata id="CorelCorpID_1Corel-Layer"/>
  <path class="fil0" d="M538 569c-20,0 -40,19 -40,40 -1,21 20,41 40,41l0 -81z"/>
  <path class="fil2" d="M1056 650l0 -81c-245,0 -243,-175 -465,-193l-8 45c164,1 221,229 473,229z"/>
  <path class="fil2" d="M975 397l-44 11c5,25 -119,161 -394,161l0 81c288,0 438,-147 438,-253z"/>
  <path class="fil2" d="M930 504c191,-293 -280,-250 -332,-163l-15 80c132,-96 424,-96 347,83z"/>
 </g>
 <g id="Layer_x0020_2">
  <metadata id="CorelCorpID_2Corel-Layer"/>
  <path class="fil0" d="M554 569l0 0c65,0 125,-11 175,-28 -46,-47 -76,-95 -137,-110l9 -82c65,-40 244,-57 342,-24 48,16 46,62 29,107 -14,37 -46,78 -91,114 42,14 93,23 158,23l0 81c-115,0 -188,-23 -240,-54 -67,32 -149,54 -244,54l0 0 -1 0 0 0c-20,-1 -40,-20 -40,-41 0,-20 20,-40 40,-40zm370 -164c-7,26 -50,69 -118,105 -51,-33 -84,-73 -116,-105 66,-12 148,-17 234,0z"/>
 </g>
</svg>
