<?xml version="1.0" encoding="UTF-8"?>
<!DOCTYPE svg PUBLIC "-//W3C//DTD SVG 1.0//EN" "http://www.w3.org/TR/2001/REC-SVG-20010904/DTD/svg10.dtd">
<!-- Creator: CorelDRAW -->
<svg xmlns="http://www.w3.org/2000/svg" xml:space="preserve" width="1300px" height="1300px" version="1.0" style="shape-rendering:geometricPrecision; text-rendering:geometricPrecision; image-rendering:optimizeQuality; fill-rule:evenodd; clip-rule:evenodd"
viewBox="0 0 1300 1056"
 xmlns:xlink="http://www.w3.org/1999/xlink">
 <defs>
  <style type="text/css">
   <![CDATA[
    .fil4 {fill:#003399;fill-opacity:0.501961}
    .fil0 {fill:#663300;fill-opacity:0.501961}
    .fil7 {fill:#666633;fill-opacity:0.501961}
    .fil3 {fill:#996633;fill-opacity:0.501961}
    .fil6 {fill:#999966;fill-opacity:0.501961}
    .fil5 {fill:#99CC66;fill-opacity:0.501961}
    .fil2 {fill:#CC9933;fill-opacity:0.501961}
    .fil1 {fill:#FF9933;fill-opacity:0.501961}
   ]]>
  </style>
 </defs>
 <g id="_100:master" visibility="hidden">
  <metadata id="CorelCorpID_0Corel-Layer"/>
  <path class="fil0" d="M744 460l22 76c75,-37 130,-51 176,-64 18,-5 18,-12 20,-19l8 -31c2,-7 3,-20 -11,-19 -55,6 -170,40 -215,57z"/>
  <path class="fil1" d="M781 528l-22 -75c-133,69 -206,193 -206,303 0,109 64,268 414,203l16 -82c-274,54 -382,-32 -382,-130 0,-76 68,-165 180,-219z"/>
  <path class="fil2" d="M698 307c50,-39 125,-61 213,-44 7,2 14,0 16,-7l8 -22c1,-4 3,-14 -5,-19 -69,-46 -178,-53 -239,10 -40,40 -54,90 -53,138 2,57 27,112 59,145l73 -45c-36,-23 -68,-82 -72,-156z"/>
 </g>
 <g id="Layer_x0020_1" visibility="hidden">
  <metadata id="CorelCorpID_1Corel-Layer"/>
  <path class="fil1" d="M792 519l-57 -62c-135,64 -214,180 -214,289 0,107 77,263 409,207 14,-3 21,-5 24,-20l10 -53c3,-11 -9,-10 -16,-9 -261,46 -379,-38 -379,-134 -1,-82 89,-171 223,-218z"/>
  <path class="fil3" d="M666 205c-28,22 -45,54 -50,89 -11,73 50,157 99,195l72 -32c-65,-48 -149,-159 -121,-252z"/>
  <path class="fil2" d="M616 294l44 8c31,-54 144,-87 240,-63l11 -34c-131,-98 -268,-46 -295,89z"/>
  <path class="fil0" d="M728 461l30 71c58,-24 120,-45 194,-68 17,-6 43,-85 10,-77 -103,26 -166,45 -234,74z"/>
 </g>
 <g id="Layer_x0020_2" visibility="hidden">
  <metadata id="CorelCorpID_2Corel-Layer"/>
  <path class="fil3" d="M700 188c-75,45 -95,113 -81,174 13,59 58,111 115,128l60 -43c-95,-57 -144,-130 -94,-259z"/>
  <path class="fil2" d="M619 291l47 1c49,-48 179,-53 244,-35 16,4 19,2 22,-6l7 -21c3,-7 3,-11 -10,-19 -57,-35 -113,-51 -162,-48 -71,5 -133,64 -148,128z"/>
  <path class="fil0" d="M713 467l5 58c16,-2 28,6 41,1 85,-35 145,-52 191,-69 10,-4 11,-9 14,-17l10 -36c5,-16 -5,-15 -18,-12 -11,3 -23,7 -36,10 -86,23 -176,47 -207,65z"/>
  <path class="fil1" d="M761 525l-23 -70c-279,131 -283,486 67,480 23,-1 73,-5 108,-11 45,-9 61,-47 69,-80 7,-24 -7,-10 -23,-7 -51,13 -108,16 -149,16 -322,7 -276,-234 -49,-328z"/>
 </g>
 <g id="Layer_x0020_3" visibility="hidden">
  <metadata id="CorelCorpID_3Corel-Layer"/>
  <path class="fil1" d="M761 525l-23 -70c-279,131 -283,486 67,480 23,-1 73,-5 108,-11 45,-9 61,-47 69,-80 7,-24 -7,-10 -23,-7 -51,13 -108,16 -149,16 -322,7 -276,-234 -49,-328z"/>
  <path class="fil1" d="M714 459l4 77c97,-21 171,-52 224,-65l30 -75c-52,10 -141,44 -258,63z"/>
  <path class="fil2" d="M715 239l-68 28c-50,108 31,212 100,253l44 -63c-109,-56 -109,-189 -76,-218z"/>
  <path class="fil2" d="M647 267c-12,26 -14,62 -13,97 68,-116 162,-117 271,-85 18,5 19,2 22,-6l7 -21c3,-7 3,-10 -10,-19 -99,-75 -193,-92 -277,34z"/>
  <path class="fil1" d="M942 821c-45,8 -93,13 -138,13 -402,-2 -240,-387 163,-387l11 -81c-525,-4 -606,548 -206,554 41,0 83,-4 125,-12 45,-9 60,-47 69,-80 7,-25 -8,-10 -24,-7z"/>
 </g>
 <g id="Layer_x0020_4" visibility="hidden">
  <metadata id="CorelCorpID_4Corel-Layer"/>
  <path class="fil2" d="M691 206c-36,14 -67,15 -77,51 -30,100 45,191 109,230l43 -64c-108,-55 -108,-188 -75,-217z"/>
  <path class="fil2" d="M613 260c-7,21 -4,47 -4,70 69,-116 163,-116 272,-85 18,6 19,3 21,-5l8 -21c2,-7 2,-10 -10,-20 -92,-69 -242,-93 -287,61z"/>
  <path class="fil1" d="M765 497l-10 -81c-322,109 -329,523 9,528 41,1 83,-4 124,-12 46,-9 61,-47 70,-80 7,-24 -8,-10 -24,-7 -46,9 -93,13 -138,13 -330,-1 -281,-265 -31,-361z"/>
  <path class="fil1" d="M713 432l11 83c49,-24 128,-54 235,-76l16 -66c-74,7 -209,33 -262,59z"/>
 </g>
 <g id="Layer_x0020_5" visibility="hidden">
  <metadata id="CorelCorpID_5Corel-Layer"/>
  <path class="fil1" d="M697 462l20 75c71,-30 109,-44 170,-60 9,-1 11,-12 14,-17l23 -52c14,-31 -46,-13 -93,1 -46,15 -88,33 -134,53z"/>
  <path class="fil2" d="M574 289c-13,88 64,181 130,207l62 -59c-84,-28 -146,-125 -140,-190l-52 42z"/>
  <path class="fil2" d="M593 322c49,-75 163,-107 267,-69 4,2 11,5 16,-3l11 -19c2,-5 7,-12 -3,-20 -47,-38 -102,-62 -166,-62 -63,0 -140,66 -144,140l19 33z"/>
  <path class="fil1" d="M718 537c-105,50 -165,131 -168,200 -3,71 54,129 187,129 70,0 146,-15 199,-30 7,-2 16,0 17,9 1,8 -2,11 -8,17 -54,56 -135,85 -212,86 -322,4 -311,-396 15,-507 25,-9 62,52 -30,96z"/>
 </g>
 <g id="Layer_x0020_6" visibility="hidden">
  <metadata id="CorelCorpID_6Corel-Layer"/>
  <path class="fil1" d="M697 442l31 74c53,-19 111,-34 166,-45 9,-1 11,-11 15,-16l27 -41c7,-10 6,-16 -10,-16 -80,0 -155,21 -229,44z"/>
  <path class="fil1" d="M730 515l-33 -73c-146,51 -227,150 -228,271 -1,156 123,229 248,229 79,0 159,-29 209,-84 9,-11 7,-33 -8,-27 -46,17 -114,30 -181,30 -109,-1 -216,-37 -217,-149 -1,-80 82,-157 210,-197z"/>
  <path class="fil2" d="M582 305c-13,88 40,164 106,190l62 -58c-84,-29 -122,-109 -116,-174l-52 42z"/>
  <path class="fil2" d="M601 325c32,-36 65,-81 137,-83 37,0 107,18 117,24 4,2 11,5 17,-3l6 -16c2,-5 8,-12 -2,-20 -26,-22 -87,-65 -137,-65 -69,0 -154,65 -158,153l20 10z"/>
 </g>
 <g id="Layer_x0020_7" visibility="hidden">
  <metadata id="CorelCorpID_7Corel-Layer"/>
  <path class="fil4" d="M560 719l-53 0c-4,250 322,288 463,155 10,-10 8,-31 -8,-27 -117,30 -393,63 -402,-128z"/>
  <path class="fil1" d="M745 429c-158,60 -235,181 -238,290l53 0c0,-78 68,-170 198,-219l-13 -71z"/>
  <path class="fil5" d="M642 280c56,-67 145,-71 246,-37 4,2 11,6 16,-3l7 -16c2,-4 7,-11 -2,-20 -45,-37 -92,-65 -160,-64 -66,0 -150,59 -159,150 -1,9 -2,22 -2,31 0,76 49,140 108,163l109 -52 -47 -7c-72,-24 -110,-86 -116,-145z"/>
  <path class="fil6" d="M731 434l27 66c0,0 0,0 0,0 51,-19 119,-24 151,-27 13,-1 20,-7 23,-14l20 -41c5,-11 5,-17 -10,-16 -64,4 -148,6 -211,32z"/>
 </g>
 <g id="Layer_x0020_8">
  <metadata id="CorelCorpID_8Corel-Layer"/>
  <path class="fil7" d="M510 286c32,-127 183,-150 300,-80l-41 70c-79,-29 -151,-20 -196,13 8,62 48,123 98,141 52,-19 127,-38 158,-48l22 75c-55,14 -118,33 -165,55 -75,44 -125,111 -127,172 -6,132 134,192 344,143l21 61c-141,63 -444,51 -442,-193 0,-78 42,-157 111,-215 -74,-42 -101,-122 -83,-194z"/>
 </g>
</svg>
