<?xml version="1.0" encoding="UTF-8"?>
<!DOCTYPE svg PUBLIC "-//W3C//DTD SVG 1.0//EN" "http://www.w3.org/TR/2001/REC-SVG-20010904/DTD/svg10.dtd">
<!-- Creator: CorelDRAW -->
<svg xmlns="http://www.w3.org/2000/svg" xml:space="preserve" width="1300px" height="1300px" version="1.0" style="shape-rendering:geometricPrecision; text-rendering:geometricPrecision; image-rendering:optimizeQuality; fill-rule:evenodd; clip-rule:evenodd"
viewBox="0 0 1300 1056"
 xmlns:xlink="http://www.w3.org/1999/xlink">
 <defs>
  <style type="text/css">
   <![CDATA[
    .fil2 {fill:#663333;fill-opacity:0.501961}
    .fil3 {fill:#6699FF;fill-opacity:0.501961}
    .fil1 {fill:red;fill-opacity:0.501961}
    .fil0 {fill:#99CCCC}
   ]]>
  </style>
 </defs>
 <g id="_100:master" visibility="hidden">
  <metadata id="CorelCorpID_0Corel-Layer"/>
  <path class="fil0" d="M666 569c-20,0 -40,19 -40,40 -1,21 20,41 40,41l0 -81z"/>
  <path class="fil1" d="M975 435l-39 20c-36,54 -124,114 -241,114l-29 0 0 81 49 0c113,0 260,-86 260,-215z"/>
  <path class="fil1" d="M780 444l-39 -23c-18,107 84,229 296,229l18 0 1 -81 -16 0c-169,0 -244,-73 -260,-125z"/>
  <path class="fil2" d="M872 276l-15 78c41,17 74,75 77,105l41 -24c0,-70 -56,-159 -103,-159z"/>
  <path class="fil2" d="M864 357l8 -81c-60,3 -118,86 -131,145l39 23c10,-33 55,-80 84,-87z"/>
 </g>
 <g id="Layer_x0020_1" visibility="hidden">
  <metadata id="CorelCorpID_1Corel-Layer"/>
  <path class="fil0" d="M657 569c-21,0 -41,19 -41,40 0,21 20,41 41,41l0 -81z"/>
  <path class="fil1" d="M975 427l-43 22c-12,54 -129,120 -237,120l-38 0 0 81 23 0c179,0 295,-111 295,-223z"/>
  <path class="fil2" d="M733 421c-34,170 194,229 314,229l0 -81c-63,0 -285,-41 -270,-130 5,-32 62,-81 84,-81 26,0 73,61 71,91l43 -22c0,-63 -45,-150 -106,-151 -60,0 -121,70 -136,145z"/>
 </g>
 <g id="Layer_x0020_2" visibility="hidden">
  <metadata id="CorelCorpID_2Corel-Layer"/>
  <path class="fil1" d="M925 450c-15,54 -126,119 -278,119l0 81c198,0 315,-99 328,-179 -1,-17 -28,-18 -50,-21z"/>
  <path class="fil0" d="M647 650l0 -81c-20,0 -40,19 -41,40 0,21 21,41 41,41z"/>
  <path class="fil2" d="M749 414l-44 51c3,100 143,185 352,185l0 -81c-198,0 -293,-71 -308,-155z"/>
  <path class="fil3" d="M975 471c16,-114 -66,-202 -130,-203 -63,0 -140,90 -140,197l55 -3c4,-56 64,-112 85,-112 21,0 80,65 80,116l50 5z"/>
 </g>
 <g id="Layer_x0020_3">
  <metadata id="CorelCorpID_3Corel-Layer"/>
  <path class="fil1" d="M751 558c-28,-28 -43,-62 -44,-101 4,-104 78,-197 140,-197 61,1 140,91 131,200 0,3 -1,7 -1,11l-1 0c-5,32 -22,62 -47,87 43,8 89,11 130,11l0 81c-85,0 -160,-12 -218,-35 -53,22 -119,35 -194,35 -20,0 -41,-20 -41,-41 1,-21 21,-40 41,-40 37,0 72,-4 104,-11zm174 -108c-11,-49 -63,-108 -78,-108 -16,0 -65,41 -84,105 14,37 40,62 74,81 39,-21 69,-47 88,-78z"/>
 </g>
</svg>
