<?xml version="1.0" encoding="UTF-8"?>
<!DOCTYPE svg PUBLIC "-//W3C//DTD SVG 1.0//EN" "http://www.w3.org/TR/2001/REC-SVG-20010904/DTD/svg10.dtd">
<!-- Creator: CorelDRAW -->
<svg xmlns="http://www.w3.org/2000/svg" xml:space="preserve" width="1300px" height="1300px" version="1.0" style="shape-rendering:geometricPrecision; text-rendering:geometricPrecision; image-rendering:optimizeQuality; fill-rule:evenodd; clip-rule:evenodd"
viewBox="0 0 1300 1056"
 xmlns:xlink="http://www.w3.org/1999/xlink">
 <defs>
  <style type="text/css">
   <![CDATA[
    .fil1 {fill:#00CCFF}
    .fil2 {fill:#33CC99}
    .fil0 {fill:red}
   ]]>
  </style>
 </defs>
 <g id="Layer_x0020_9" visibility="hidden">
  <metadata id="CorelCorpID_0Corel-Layer"/>
  <path class="fil0" d="M808 249l0 -81c149,2 199,254 163,377l-86 50c68,-148 -8,-344 -77,-346z"/>
  <path class="fil1" d="M914 388l1 81c-94,34 -241,33 -241,-98 1,-101 53,-203 143,-203l0 81c-33,0 -74,61 -74,114 -3,67 144,39 171,25z"/>
  <path class="fil2" d="M414 359l-48 -21c-121,268 37,324 270,324 119,0 228,-19 296,-51 41,-19 44,-75 43,-114 -9,13 -22,19 -51,34 -56,27 -170,48 -288,47 -177,0 -309,-22 -222,-219z"/>
 </g>
 <g id="Layer_x0020_10">
  <metadata id="CorelCorpID_1Corel-Layer"/>
  <path class="fil2" d="M894 400c-24,7 -52,9 -77,9 -41,0 -73,-14 -73,-35 0,-47 36,-122 69,-128 31,2 66,67 81,154zm-480 -41c-86,188 45,219 222,219 103,1 204,-15 264,-37 2,-22 3,-44 2,-66 -27,10 -53,15 -85,15 -102,0 -152,-44 -147,-130 4,-73 51,-191 142,-195l0 0 0 0c139,0 172,230 163,337 1,38 -4,91 -43,109 -68,32 -177,51 -296,51 -233,0 -391,-56 -270,-324l48 21z"/>
 </g>
</svg>
