<?xml version="1.0" encoding="UTF-8"?>
<!DOCTYPE svg PUBLIC "-//W3C//DTD SVG 1.0//EN" "http://www.w3.org/TR/2001/REC-SVG-20010904/DTD/svg10.dtd">
<!-- Creator: CorelDRAW -->
<svg xmlns="http://www.w3.org/2000/svg" xml:space="preserve" width="1300px" height="1300px" version="1.0" style="shape-rendering:geometricPrecision; text-rendering:geometricPrecision; image-rendering:optimizeQuality; fill-rule:evenodd; clip-rule:evenodd"
viewBox="0 0 1300 1056"
 xmlns:xlink="http://www.w3.org/1999/xlink">
 <defs>
  <style type="text/css">
   <![CDATA[
    .fil1 {fill:black;fill-opacity:0.501961}
    .fil12 {fill:#663333;fill-opacity:0.501961}
    .fil10 {fill:#FF9933;fill-opacity:0.501961}
    .fil7 {fill:#663333}
    .fil11 {fill:#6666FF}
    .fil6 {fill:#669999}
    .fil2 {fill:gray}
    .fil5 {fill:#9900CC}
    .fil0 {fill:#99CCCC}
    .fil13 {fill:#CCCCFF}
    .fil8 {fill:red}
    .fil3 {fill:fuchsia}
    .fil9 {fill:#FF6600}
    .fil4 {fill:yellow}
   ]]>
  </style>
 </defs>
 <g id="_100:master" visibility="hidden">
  <metadata id="CorelCorpID_0Corel-Layer"/>
  <path class="fil0" d="M689 569c-20,0 -40,19 -40,40 -1,21 20,41 40,41l0 -81z"/>
  <path class="fil1" d="M918 469c0,1 0,-82 -1,-82 -232,79 -145,-127 -92,-127 23,0 44,21 60,55 13,29 23,66 27,107 5,57 -2,121 -27,176l83 -54c21,-79 13,-191 -19,-270 -24,-60 -62,-100 -113,-95 -149,15 -203,403 82,290z"/>
  <path class="fil2" d="M973 488c7,78 -36,123 -96,146 -30,11 -64,16 -99,16l-89 0 0 -81 89 0c35,0 65,-5 89,-12 66,-20 96,-58 106,-69z"/>
 </g>
 <g id="Layer_x0020_1" visibility="hidden">
  <metadata id="CorelCorpID_1Corel-Layer"/>
  <path class="fil0" d="M683 569c-20,0 -40,19 -41,40 0,21 21,41 41,41l0 -81z"/>
  <path class="fil3" d="M915 544l59 -44c1,-94 -32,-305 -148,-305l-6 81c74,0 94,215 95,268z"/>
  <path class="fil4" d="M915 544c-26,14 -63,25 -120,25l-113 0 0 81 130 0c73,0 121,-29 145,-85 10,-21 15,-42 17,-65l-59 44z"/>
  <path class="fil5" d="M914 470l12 -80c-61,24 -167,26 -169,-25 -2,-38 38,-87 63,-89l6 -81c-63,1 -119,115 -119,196 0,106 127,112 207,79z"/>
 </g>
 <g id="Layer_x0020_2" visibility="hidden">
  <metadata id="CorelCorpID_2Corel-Layer"/>
  <path class="fil0" d="M683 569c-20,0 -40,19 -41,40 0,21 21,41 41,41l0 -81z"/>
  <path class="fil4" d="M915 544c-26,14 -63,25 -120,25l-113 0 0 81 130 0c73,0 121,-29 145,-85 10,-21 15,-47 18,-64l-60 43z"/>
  <path class="fil5" d="M914 470l12 -80c-61,24 -167,26 -169,-25 0,-25 39,-89 63,-89l14 -81c-78,1 -127,130 -127,188 1,113 127,120 207,87z"/>
  <path class="fil3" d="M894 585l69 -33c41,-113 -12,-357 -129,-357l-14 81c65,1 115,186 74,309z"/>
 </g>
 <g id="Layer_x0020_3" visibility="hidden">
  <metadata id="CorelCorpID_3Corel-Layer"/>
  <path class="fil0" d="M650 569c-20,0 -40,19 -40,40 -1,21 20,41 40,41l0 -81z"/>
  <path class="fil6" d="M821 187l-9 80c113,2 126,332 69,370 175,-52 94,-468 -60,-450z"/>
  <path class="fil7" d="M915 544c-26,14 -63,25 -120,25l-145 0 0 81 147 0c116,0 180,-58 178,-149l-60 43z"/>
  <path class="fil6" d="M812 267l9 -80c-112,0 -202,293 -8,293 43,0 87,-16 104,-35l12 -80c-9,17 -61,32 -107,33 -132,1 -52,-133 -10,-131z"/>
 </g>
 <g id="Layer_x0020_4" visibility="hidden">
  <metadata id="CorelCorpID_4Corel-Layer"/>
  <path class="fil0" d="M642 569c-20,0 -40,19 -40,40 -1,21 20,41 40,41l0 -81z"/>
  <path class="fil6" d="M812 242c43,2 74,85 89,150 -45,17 -177,36 -170,-45 3,-47 45,-106 81,-105zm99 319l60 -34c27,-140 -42,-365 -150,-365 -90,0 -137,111 -140,204 -4,142 166,147 231,92 3,36 3,72 -1,103z"/>
  <path class="fil7" d="M915 544c-26,14 -63,25 -120,25l-153 0 0 81 155 0c116,0 180,-58 178,-149l-60 43z"/>
 </g>
 <g id="Layer_x0020_5" visibility="hidden">
  <metadata id="CorelCorpID_5Corel-Layer"/>
  <path class="fil8" d="M811 406l-1 83c38,-1 78,-13 114,-34l16 -81c-46,20 -91,32 -129,32z"/>
  <path class="fil9" d="M913 546l-3 38 63 -71c8,-58 -6,-139 -33,-204 -27,-64 -66,-114 -114,-114 -88,0 -132,123 -134,199 -1,71 53,96 118,95l1 -83c-22,0 -70,-3 -66,-33 4,-31 29,-96 65,-97 68,-1 114,209 103,270z"/>
  <path class="fil0" d="M715 650l0 -81c-20,0 -40,19 -40,40 0,21 20,41 40,41z"/>
  <path class="fil10" d="M974 492l1 28c0,122 -137,130 -228,130l-32 0 0 -81 36 0c90,0 162,-4 223,-77z"/>
 </g>
 <g id="Layer_x0020_6" visibility="hidden">
  <metadata id="CorelCorpID_6Corel-Layer"/>
  <path class="fil11" d="M851 187c77,0 124,128 124,235 0,82 -19,127 -40,161 -19,32 -62,48 -86,56 43,-59 66,-95 67,-184 1,-90 -25,-187 -77,-187 -42,0 -82,67 -67,104l-45 -20c5,-69 49,-165 124,-165z"/>
  <path class="fil0" d="M672 569c-20,0 -40,19 -41,40 0,21 21,41 41,41l0 -81z"/>
  <path class="fil12" d="M956 503l-44 25c-24,17 -62,41 -168,41l-73 0 0 81 73 0c100,0 212,-20 212,-147z"/>
  <path class="fil13" d="M731 325l44 0c-32,85 70,97 157,66l23 73c-155,60 -252,0 -224,-139z"/>
 </g>
 <g id="Layer_x0020_7" visibility="hidden">
  <metadata id="CorelCorpID_7Corel-Layer"/>
  <path class="fil12" d="M764 650c130,0 211,-50 211,-163 -19,19 -36,34 -55,46 -36,24 -80,36 -156,36l-98 0c-21,0 -41,19 -41,40 0,21 20,41 41,41l98 0z"/>
  <path class="fil13" d="M717 325l30 0c0,48 35,65 76,65 41,1 91,-16 103,-33l16 82c-42,21 -63,33 -123,33 -60,-1 -114,-43 -102,-147z"/>
  <path class="fil11" d="M944 587l-54 41c69,-173 5,-384 -60,-384 -51,0 -98,107 -66,178l-49 -64c-2,-66 33,-195 124,-195 128,0 185,324 105,424z"/>
 </g>
 <g id="Layer_x0020_8">
  <metadata id="CorelCorpID_8Corel-Layer"/>
  <path class="fil0" d="M905 392c-43,14 -164,32 -161,-29 0,-51 38,-108 69,-113 37,5 76,65 92,142zm-289 177l0 0 129 0c55,0 106,-1 158,-21 6,-26 9,-52 9,-78 -93,33 -237,30 -237,-99 1,-98 50,-197 134,-203l0 0 3 0c2,0 4,0 5,0l0 1c142,11 190,256 155,376l0 0c-26,99 -144,105 -227,105l-129 0 0 0c-20,-1 -40,-20 -40,-41 0,-20 20,-40 40,-40z"/>
 </g>
</svg>
