<?xml version="1.0" encoding="UTF-8"?>
<!DOCTYPE svg PUBLIC "-//W3C//DTD SVG 1.0//EN" "http://www.w3.org/TR/2001/REC-SVG-20010904/DTD/svg10.dtd">
<!-- Creator: CorelDRAW -->
<svg xmlns="http://www.w3.org/2000/svg" xml:space="preserve" width="1300px" height="1300px" version="1.0" style="shape-rendering:geometricPrecision; text-rendering:geometricPrecision; image-rendering:optimizeQuality; fill-rule:evenodd; clip-rule:evenodd"
viewBox="0 0 1300 1056"
 xmlns:xlink="http://www.w3.org/1999/xlink">
 <defs>
  <style type="text/css">
   <![CDATA[
    .fil0 {fill:#33CC99}
   ]]>
  </style>
 </defs>
 <g id="Layer_x0020_9">
  <metadata id="CorelCorpID_0Corel-Layer"/>
  <path class="fil0" d="M905 392c-43,14 -164,32 -161,-29 0,-51 38,-108 69,-113 37,5 76,65 92,142zm-490 -33c-142,271 326,238 491,172 4,-20 6,-41 6,-61 -93,33 -237,30 -237,-99 1,-98 50,-197 134,-203l0 0 3 0c2,0 4,0 5,0l0 1c142,11 190,256 155,376l-1 0c-5,26 -17,49 -41,60 -205,90 -757,119 -563,-267l48 21z"/>
 </g>
</svg>
