<?xml version="1.0" encoding="UTF-8"?>
<!DOCTYPE svg PUBLIC "-//W3C//DTD SVG 1.0//EN" "http://www.w3.org/TR/2001/REC-SVG-20010904/DTD/svg10.dtd">
<!-- Creator: CorelDRAW -->
<svg xmlns="http://www.w3.org/2000/svg" xml:space="preserve" width="1300px" height="1300px" version="1.0" style="shape-rendering:geometricPrecision; text-rendering:geometricPrecision; image-rendering:optimizeQuality; fill-rule:evenodd; clip-rule:evenodd"
viewBox="0 0 1300 1056"
 xmlns:xlink="http://www.w3.org/1999/xlink">
 <defs>
  <style type="text/css">
   <![CDATA[
    .fil0 {fill:red;fill-opacity:0.501961}
    .fil1 {fill:#33CC99}
   ]]>
  </style>
 </defs>
 <g id="_100:master" visibility="hidden">
  <metadata id="CorelCorpID_0Corel-Layer"/>
  <path class="fil0" d="M380 352l15 8c10,4 5,13 3,20 -110,319 463,205 563,134 3,-4 9,-7 13,-9 -3,40 6,81 -64,110 -203,86 -710,133 -543,-258 2,-5 8,-8 13,-5z"/>
 </g>
 <g id="Layer_x0020_1">
  <metadata id="CorelCorpID_1Corel-Layer"/>
  <path class="fil1" d="M1006 450c-10,-49 -63,-108 -78,-108 -16,0 -65,41 -84,105 14,37 41,62 75,81 39,-20 69,-47 87,-78zm-592 -91c-86,188 45,219 222,219 71,1 141,-7 197,-19 -28,-28 -44,-62 -45,-102 4,-104 78,-197 140,-197 62,1 140,91 131,200 0,3 -1,7 -1,11l0 0c-6,32 -22,62 -48,87 44,8 90,11 130,11l0 81c-85,0 -159,-12 -217,-35 -68,29 -173,47 -287,47 -233,0 -391,-56 -270,-324l48 21z"/>
 </g>
</svg>
