<?xml version="1.0" encoding="UTF-8"?>
<!DOCTYPE svg PUBLIC "-//W3C//DTD SVG 1.0//EN" "http://www.w3.org/TR/2001/REC-SVG-20010904/DTD/svg10.dtd">
<!-- Creator: CorelDRAW -->
<svg xmlns="http://www.w3.org/2000/svg" xml:space="preserve" width="1300px" height="1300px" version="1.0" style="shape-rendering:geometricPrecision; text-rendering:geometricPrecision; image-rendering:optimizeQuality; fill-rule:evenodd; clip-rule:evenodd"
viewBox="0 0 1300 1056"
 xmlns:xlink="http://www.w3.org/1999/xlink">
 <defs>
  <style type="text/css">
   <![CDATA[
    .fil0 {fill:red}
   ]]>
  </style>
 </defs>
 <g id="_100:master">
  <metadata id="CorelCorpID_0Corel-Layer"/>
  <path class="fil0" d="M1089 130l-268 87c164,166 177,221 161,306 -6,30 -33,68 -64,87l0 0c-42,28 -101,40 -154,40l-67 0 0 0c-20,-1 -40,-20 -40,-41 0,-20 20,-40 40,-40l0 0 0 0 67 0c72,0 130,-21 164,-47 5,-55 -38,-120 -177,-265l-16 -15 57 -98 318 -102 -21 88zm-281 -113l240 -80 -17 53 -238 80 15 -53z"/>
 </g>
</svg>
