<?xml version="1.0" encoding="UTF-8"?>
<!DOCTYPE svg PUBLIC "-//W3C//DTD SVG 1.0//EN" "http://www.w3.org/TR/2001/REC-SVG-20010904/DTD/svg10.dtd">
<!-- Creator: CorelDRAW -->
<svg xmlns="http://www.w3.org/2000/svg" xml:space="preserve" width="1300px" height="1300px" version="1.0" style="shape-rendering:geometricPrecision; text-rendering:geometricPrecision; image-rendering:optimizeQuality; fill-rule:evenodd; clip-rule:evenodd"
viewBox="0 0 1300 1056"
 xmlns:xlink="http://www.w3.org/1999/xlink">
 <defs>
  <style type="text/css">
   <![CDATA[
    .fil0 {fill:#33CC99}
   ]]>
  </style>
 </defs>
 <g id="_100:master">
  <metadata id="CorelCorpID_0Corel-Layer"/>
  <path class="fil0" d="M808 17l240 -80 -17 53 -238 80 15 -53zm-343 342c-53,103 -20,162 52,192 124,52 315,18 409,-27 0,-1 1,-1 2,-1 3,-27 -6,-57 -32,-97 -7,-10 -15,-21 -24,-33 -28,-36 -67,-80 -121,-136l-16 -15 57 -98 318 -102 -21 88 -268 87c50,50 86,90 111,124l0 0c52,64 63,93 94,131 38,47 60,97 180,97l0 81c-130,0 -171,-41 -227,-109l-1 -1c-7,28 -20,53 -46,65 -120,52 -308,84 -447,25 -100,-42 -148,-131 -68,-292l48 21z"/>
 </g>
</svg>
