<?xml version="1.0" encoding="UTF-8"?>
<!DOCTYPE svg PUBLIC "-//W3C//DTD SVG 1.0//EN" "http://www.w3.org/TR/2001/REC-SVG-20010904/DTD/svg10.dtd">
<!-- Creator: CorelDRAW -->
<svg xmlns="http://www.w3.org/2000/svg" xml:space="preserve" width="1300px" height="1300px" version="1.0" style="shape-rendering:geometricPrecision; text-rendering:geometricPrecision; image-rendering:optimizeQuality; fill-rule:evenodd; clip-rule:evenodd"
viewBox="0 0 1300 1056"
 xmlns:xlink="http://www.w3.org/1999/xlink">
 <defs>
  <style type="text/css">
   <![CDATA[
    .fil0 {fill:#33CC99}
   ]]>
  </style>
 </defs>
 <g id="_100:master">
  <metadata id="CorelCorpID_0Corel-Layer"/>
  <path class="fil0" d="M784 0l240 -79 -17 53 -238 80 15 -54zm-91 569c107,0 172,-8 224,-39 -1,-31 -14,-68 -50,-117l-9 -11c-30,-40 -75,-87 -139,-144l-1 0 -15 -14 2 -4 0 0 55 -94 334 -102 -22 88 -278 85c76,71 122,122 148,161l104 137c28,37 46,54 86,54l23 0 1 81 -26 0c-69,0 -103,-26 -145,-81l-14 -19c-3,12 -7,22 -12,30l0 0c-7,11 -15,20 -27,27 -66,37 -112,43 -239,43l0 0c-20,0 -41,-20 -40,-41 0,-21 20,-40 40,-40l0 0z"/>
 </g>
</svg>
