<?xml version="1.0" encoding="UTF-8"?>
<!DOCTYPE svg PUBLIC "-//W3C//DTD SVG 1.0//EN" "http://www.w3.org/TR/2001/REC-SVG-20010904/DTD/svg10.dtd">
<!-- Creator: CorelDRAW -->
<svg xmlns="http://www.w3.org/2000/svg" xml:space="preserve" width="1300px" height="1300px" version="1.0" style="shape-rendering:geometricPrecision; text-rendering:geometricPrecision; image-rendering:optimizeQuality; fill-rule:evenodd; clip-rule:evenodd"
viewBox="0 0 1300 1056"
 xmlns:xlink="http://www.w3.org/1999/xlink">
 <defs>
  <style type="text/css">
   <![CDATA[
    .fil2 {fill:#FF9933;fill-opacity:0.501961}
    .fil0 {fill:#996633}
    .fil3 {fill:#99CCCC}
    .fil1 {fill:red}
   ]]>
  </style>
 </defs>
 <g id="_300:master">
  <metadata id="CorelCorpID_0Corel-Layer"/>
  <path class="fil0" d="M872 393l60 -52c52,64 63,93 94,131 38,47 60,97 180,97l0 81c-130,0 -171,-41 -227,-109 -38,-45 -59,-83 -107,-148z"/>
  <polygon class="fil1" points="1089,130 1110,42 792,144 735,242 751,257 811,220 "/>
  <path class="fil2" d="M918 610l-5 -42c38,-72 16,-126 -171,-320l-2 -8 38 -67c205,201 221,258 204,350 -6,30 -33,68 -64,87z"/>
  <polygon class="fil1" points="808,17 793,70 1031,-10 1048,-63 "/>
 </g>
 <g id="_100:master">
  <metadata id="CorelCorpID_1Corel-Layer"/>
  <path class="fil3" d="M697 569l0 0 0 0 67 0c103,0 176,-43 195,-82 3,-7 7,7 13,1 0,5 3,10 3,15 5,105 -112,147 -211,147l-67 0 0 0c-20,-1 -40,-20 -40,-41 0,-20 20,-40 40,-40z"/>
 </g>
</svg>
