<?xml version="1.0" encoding="UTF-8"?>
<!DOCTYPE svg PUBLIC "-//W3C//DTD SVG 1.0//EN" "http://www.w3.org/TR/2001/REC-SVG-20010904/DTD/svg10.dtd">
<!-- Creator: CorelDRAW -->
<svg xmlns="http://www.w3.org/2000/svg" xml:space="preserve" width="1300px" height="1300px" version="1.0" style="shape-rendering:geometricPrecision; text-rendering:geometricPrecision; image-rendering:optimizeQuality; fill-rule:evenodd; clip-rule:evenodd"
viewBox="0 0 1300 1056"
 xmlns:xlink="http://www.w3.org/1999/xlink">
 <defs>
  <style type="text/css">
   <![CDATA[
    .fil0 {fill:#663333}
   ]]>
  </style>
 </defs>
 <g id="_100:master">
  <metadata id="CorelCorpID_0Corel-Layer"/>
  <path class="fil0" d="M784 0l240 -79 -17 53 -238 80 15 -54zm-329 359c-86,188 45,219 222,219 113,1 186,-18 240,-44 0,-58 -43,-137 -198,-276l-1 0c-3,-3 -7,-7 -11,-10l-4 -4 2 -4 0 0 55 -94 334 -102 -22 88 -278 85c163,152 185,211 185,266 0,2 0,5 0,7l0 0 0 0c0,9 -1,17 -2,26 -3,40 -12,79 -45,95 -68,31 -136,51 -256,51 -232,0 -390,-56 -269,-324l48 21z"/>
 </g>
</svg>
