<?xml version="1.0" encoding="UTF-8"?>
<!DOCTYPE svg PUBLIC "-//W3C//DTD SVG 1.0//EN" "http://www.w3.org/TR/2001/REC-SVG-20010904/DTD/svg10.dtd">
<!-- Creator: CorelDRAW -->
<svg xmlns="http://www.w3.org/2000/svg" xml:space="preserve" width="1300px" height="1300px" version="1.0" style="shape-rendering:geometricPrecision; text-rendering:geometricPrecision; image-rendering:optimizeQuality; fill-rule:evenodd; clip-rule:evenodd"
viewBox="0 0 1300 1056"
 xmlns:xlink="http://www.w3.org/1999/xlink">
 <defs>
  <style type="text/css">
   <![CDATA[
    .fil3 {fill:black;fill-opacity:0.501961}
    .fil1 {fill:#003399;fill-opacity:0.501961}
    .fil0 {fill:#666633;fill-opacity:0.501961}
    .fil2 {fill:#FF9933;fill-opacity:0.501961}
   ]]>
  </style>
 </defs>
 <g id="Layer_x0020_2" visibility="hidden">
  <metadata id="CorelCorpID_0Corel-Layer"/>
  <path class="fil0" d="M603 734c39,-148 253,-251 388,-247l17 -81c-238,1 -457,163 -485,342 -35,214 224,276 417,222l34 -81c-194,37 -413,5 -371,-155z"/>
 </g>
 <g id="Layer_x0020_14" visibility="hidden">
  <metadata id="CorelCorpID_1Corel-Layer"/>
  <path class="fil1" d="M560 719l-53 0c-4,250 337,295 463,155 9,-10 7,-32 -8,-27 -119,37 -402,51 -402,-128z"/>
  <path class="fil2" d="M507 719l53 0c0,-111 139,-252 399,-254l5 0 11 -75c-314,0 -465,176 -468,329z"/>
  <path class="fil3" d="M967 466c13,0 16,-4 19,-13l14 -41c2,-6 9,-22 -4,-22 -118,0 -281,-90 -354,-89 -50,0 -79,28 -119,107 -7,14 -8,24 -1,28l18 11c8,4 11,-2 20,-13 27,-34 45,-52 66,-52 73,0 227,81 341,84z"/>
 </g>
 <g id="Layer_x0020_15" visibility="hidden">
  <metadata id="CorelCorpID_2Corel-Layer"/>
  <path class="fil2" d="M887 463l6 0 34 -74c-410,-43 -587,505 -193,505 59,0 127,-16 202,-49l-24 -59c-65,19 -133,26 -182,25 -317,-6 -80,-389 157,-348z"/>
  <path class="fil3" d="M959 463l33 -74c-210,0 -285,-105 -366,-113 -82,-7 -107,56 -135,132l45 14c27,-65 51,-75 82,-65 33,12 162,106 341,106z"/>
 </g>
 <g id="Layer_x0020_16" visibility="hidden">
  <metadata id="CorelCorpID_3Corel-Layer"/>
  <path class="fil2" d="M909 458l-3 -81c-257,-8 -430,183 -421,334 13,227 311,231 441,151l-23 -60c-115,41 -365,55 -348,-118 11,-107 176,-245 354,-226z"/>
  <path class="fil3" d="M959 463l33 -74c-105,3 -225,-71 -322,-101 -66,-20 -134,-36 -173,73l-16 45 43 14 19 -39c45,-88 246,81 416,82z"/>
 </g>
 <g id="Layer_x0020_17" visibility="hidden">
  <metadata id="CorelCorpID_4Corel-Layer"/>
  <path class="fil3" d="M959 463l33 -74c-98,0 -163,-22 -253,-58 -138,-55 -209,-65 -249,30l-23 53 41 22 22 -38c22,-38 55,-40 186,11 69,27 169,54 243,54z"/>
  <path class="fil2" d="M885 458c27,2 25,3 57,-3 -1,-25 -69,-81 -120,-76 -208,15 -343,184 -337,332 8,215 302,237 437,164l-20 -61c-120,36 -356,29 -343,-130 8,-107 148,-245 326,-226z"/>
 </g>
 <g id="Layer_x0020_18">
  <metadata id="CorelCorpID_5Corel-Layer"/>
  <path class="fil3" d="M959 471c-17,0 -35,-1 -54,-4l-12 0c-178,-20 -330,110 -334,217 -6,132 134,192 344,143l21 61c-141,63 -444,51 -442,-193 0,-115 92,-231 224,-282 -123,-47 -154,-44 -176,-7l-22 39 -41 -23 23 -53c40,-95 111,-85 249,-30 90,36 155,58 253,58l-33 74z"/>
 </g>
</svg>
