<?xml version="1.0" encoding="UTF-8"?>
<!DOCTYPE svg PUBLIC "-//W3C//DTD SVG 1.0//EN" "http://www.w3.org/TR/2001/REC-SVG-20010904/DTD/svg10.dtd">
<!-- Creator: CorelDRAW -->
<svg xmlns="http://www.w3.org/2000/svg" xml:space="preserve" width="1300px" height="1300px" version="1.0" style="shape-rendering:geometricPrecision; text-rendering:geometricPrecision; image-rendering:optimizeQuality; fill-rule:evenodd; clip-rule:evenodd"
viewBox="0 0 1300 1056"
 xmlns:xlink="http://www.w3.org/1999/xlink">
 <defs>
  <style type="text/css">
   <![CDATA[
    .fil1 {fill:black;fill-opacity:0.501961}
    .fil4 {fill:#003399;fill-opacity:0.501961}
    .fil0 {fill:#666633;fill-opacity:0.501961}
    .fil3 {fill:#6666FF;fill-opacity:0.501961}
    .fil2 {fill:#FF9933;fill-opacity:0.501961}
   ]]>
  </style>
 </defs>
 <g id="Layer_x0020_2" visibility="hidden">
  <metadata id="CorelCorpID_0Corel-Layer"/>
  <path class="fil0" d="M603 734c39,-148 253,-251 388,-247l17 -81c-238,1 -457,163 -485,342 -35,214 224,276 417,222l34 -81c-194,37 -413,5 -371,-155z"/>
 </g>
 <g id="Layer_x0020_9" visibility="hidden">
  <metadata id="CorelCorpID_1Corel-Layer"/>
  <path class="fil1" d="M967 447c14,0 16,-4 19,-13l14 -47c1,-5 9,-21 -4,-21l-13 0c-126,0 -264,-98 -357,-98 -57,0 -91,86 -106,113 -7,13 -6,21 2,24l14 8c8,4 13,0 20,-13 21,-40 37,-51 63,-51 87,0 226,98 348,98z"/>
  <path class="fil2" d="M959 796c-51,14 -108,16 -149,17 -404,8 -228,-373 157,-366l11 -81c-497,-6 -604,536 -173,528 23,0 73,-4 108,-11 45,-8 61,-47 69,-79 7,-25 -7,-11 -23,-8z"/>
 </g>
 <g id="Layer_x0020_10" visibility="hidden">
  <metadata id="CorelCorpID_2Corel-Layer"/>
  <path class="fil2" d="M934 829c-46,8 -93,13 -138,13 -403,-1 -241,-370 163,-371l11 -80c-526,-5 -606,532 -206,537 41,0 83,-4 124,-12 46,-9 61,-47 70,-80 7,-24 -8,-10 -24,-7z"/>
  <path class="fil1" d="M967 471c13,0 16,-3 19,-13l14 -46c1,-6 9,-22 -4,-22l-47 0c-97,-1 -271,-89 -340,-89 -65,0 -95,85 -105,105 -6,14 -6,20 1,24l15 7c8,4 12,0 19,-12 11,-19 22,-43 54,-43 52,0 255,91 334,90l40 -1z"/>
 </g>
 <g id="Layer_x0020_11" visibility="hidden">
  <metadata id="CorelCorpID_3Corel-Layer"/>
  <path class="fil2" d="M959 831c-123,39 -407,66 -406,-102 0,-116 158,-257 406,-258l16 -81c-305,-3 -472,164 -474,340 0,116 84,216 261,214 83,-1 163,-37 204,-86 10,-11 8,-32 -7,-27z"/>
  <path class="fil1" d="M967 471c13,0 16,-3 19,-13l14 -46c1,-6 9,-22 -4,-22 -183,-1 -288,-99 -378,-97 -62,1 -95,48 -120,108 -6,15 -9,25 -1,29l19 8c8,4 14,1 20,-12 8,-20 37,-52 65,-52 88,-1 212,98 366,97z"/>
 </g>
 <g id="Layer_x0020_12" visibility="hidden">
  <metadata id="CorelCorpID_4Corel-Layer"/>
  <path class="fil2" d="M504 748l39 32c0,-163 172,-293 383,-292l17 -82c-276,0 -439,163 -439,342z"/>
  <path class="fil1" d="M967 492c13,-1 16,-4 19,-13l14 -47c1,-6 9,-22 -4,-22 -135,0 -312,-107 -378,-105 -62,2 -95,48 -120,109 -6,14 -9,24 -1,28l19 9c8,3 14,0 20,-13 8,-20 37,-52 65,-52 74,0 243,106 366,106z"/>
  <path class="fil2" d="M605 620l-101 128c0,178 267,268 452,118 7,-5 9,-9 8,-17 -1,-9 -9,-10 -16,-9 -347,70 -477,-60 -343,-220z"/>
 </g>
 <g id="Layer_x0020_13" visibility="hidden">
  <metadata id="CorelCorpID_5Corel-Layer"/>
  <path class="fil3" d="M488 700c14,-147 178,-310 496,-310l-17 81c-280,0 -420,154 -432,236 -29,187 294,170 421,121 6,-3 15,0 16,9 1,8 -2,11 -7,17 -134,141 -505,132 -477,-154z"/>
  <path class="fil1" d="M967 471c13,0 16,-4 19,-13l14 -46c1,-6 9,-22 -4,-22 -135,0 -287,-108 -354,-105 -62,2 -88,49 -119,107 -7,13 -8,24 -1,28l18 10c8,5 13,0 20,-12 21,-34 38,-52 66,-52 73,0 218,106 341,105z"/>
 </g>
 <g id="Layer_x0020_14" visibility="hidden">
  <metadata id="CorelCorpID_6Corel-Layer"/>
  <path class="fil4" d="M560 719l-53 0c-4,250 337,295 463,155 9,-10 7,-32 -8,-27 -119,37 -402,51 -402,-128z"/>
  <path class="fil2" d="M507 719l53 0c0,-111 139,-252 399,-254l5 0 11 -75c-314,0 -465,176 -468,329z"/>
  <path class="fil1" d="M967 466c13,0 16,-4 19,-13l14 -41c2,-6 9,-22 -4,-22 -118,0 -281,-90 -354,-89 -50,0 -79,28 -119,107 -7,14 -8,24 -1,28l18 11c8,4 11,-2 20,-13 27,-34 45,-52 66,-52 73,0 227,81 341,84z"/>
 </g>
 <g id="Layer_x0020_15" visibility="hidden">
  <metadata id="CorelCorpID_7Corel-Layer"/>
  <path class="fil2" d="M887 463l6 0 34 -74c-410,-43 -587,505 -193,505 59,0 127,-16 202,-49l-24 -59c-65,19 -133,26 -182,25 -317,-6 -80,-389 157,-348z"/>
  <path class="fil1" d="M959 463l33 -74c-210,0 -285,-105 -366,-113 -82,-7 -107,56 -135,132l45 14c27,-65 51,-75 82,-65 33,12 162,106 341,106z"/>
 </g>
 <g id="Layer_x0020_16">
  <metadata id="CorelCorpID_8Corel-Layer"/>
  <path class="fil2" d="M909 458c-178,-19 -343,119 -354,226 -17,173 233,159 348,118l23 60c-130,80 -428,76 -441,-151 -7,-115 92,-253 252,-309 -92,-38 -168,-71 -194,-21l-19 39 -43 -14 16 -45c39,-109 107,-93 173,-73 71,22 154,67 235,89l1 0 0 0c29,8 58,13 86,12l-33 74c-17,0 -33,-2 -50,-5l0 0z"/>
 </g>
</svg>
