<?xml version="1.0" encoding="UTF-8"?>
<!DOCTYPE svg PUBLIC "-//W3C//DTD SVG 1.0//EN" "http://www.w3.org/TR/2001/REC-SVG-20010904/DTD/svg10.dtd">
<!-- Creator: CorelDRAW -->
<svg xmlns="http://www.w3.org/2000/svg" xml:space="preserve" width="1300px" height="1300px" version="1.0" style="shape-rendering:geometricPrecision; text-rendering:geometricPrecision; image-rendering:optimizeQuality; fill-rule:evenodd; clip-rule:evenodd"
viewBox="0 0 1300 1056"
 xmlns:xlink="http://www.w3.org/1999/xlink">
 <defs>
  <style type="text/css">
   <![CDATA[
    .fil1 {fill:black;fill-opacity:0.501961}
    .fil4 {fill:#663333;fill-opacity:0.501961}
    .fil2 {fill:#666633;fill-opacity:0.501961}
    .fil5 {fill:#9999FF;fill-opacity:0.501961}
    .fil3 {fill:#FF9933;fill-opacity:0.501961}
    .fil0 {fill:gray}
    .fil6 {fill:#FF6600}
   ]]>
  </style>
 </defs>
 <g id="_900:master" visibility="hidden">
  <metadata id="CorelCorpID_0Corel-Layer"/>
  <path class="fil0" d="M935 433l-40 -24c-34,133 7,241 181,241l1 0 0 -81 -4 0c-41,0 -92,-8 -121,-29 -24,-23 -27,-63 -17,-107z"/>
  <path class="fil1" d="M991 487l32 -81c-147,0 -256,-113 -374,-113 -49,0 -98,24 -130,136l37 15c26,-64 56,-70 76,-70 99,0 256,113 359,113z"/>
  <path class="fil2" d="M591 747c39,-147 254,-268 389,-264l28 -78c-238,1 -458,163 -485,343 -35,214 208,255 417,222l34 -81c-178,19 -413,12 -383,-142z"/>
 </g>
 <g id="Layer_x0020_5" visibility="hidden">
  <metadata id="CorelCorpID_1Corel-Layer"/>
  <path class="fil3" d="M964 838c-1,-9 -9,-16 -16,-14 -17,4 -69,20 -159,22 -156,-1 -226,-65 -227,-141 -1,-106 133,-237 356,-237l17 -81c-294,0 -427,167 -424,314 2,135 101,226 259,226 124,-1 177,-61 186,-69 7,-5 9,-12 8,-20z"/>
  <path class="fil1" d="M967 471c13,0 16,-3 19,-13l14 -46c1,-6 9,-22 -4,-22 -183,-1 -288,-99 -378,-97 -62,1 -95,48 -120,108 -6,15 -9,25 -1,29l19 8c8,4 14,1 20,-12 8,-20 37,-52 65,-52 88,-1 212,98 366,97z"/>
  <path class="fil4" d="M1089 650l0 -81c-165,0 -198,-82 -216,-161 -2,-8 -26,3 -28,14 -16,114 51,228 244,228z"/>
 </g>
 <g id="Layer_x0020_6" visibility="hidden">
  <metadata id="CorelCorpID_2Corel-Layer"/>
  <path class="fil3" d="M909 475l-3 -82c-257,-7 -430,167 -421,318 5,92 83,183 232,183 59,0 126,-16 201,-49l-23 -59c-65,19 -133,26 -182,25 -114,-2 -164,-67 -158,-127 11,-107 190,-230 354,-209z"/>
  <path class="fil5" d="M1064 569l1 81c-122,0 -207,-29 -204,-169l0 -36 35 -9 0 24c2,91 82,109 168,109z"/>
  <path class="fil1" d="M959 479l33 -74c-188,5 -421,-235 -495,-28l-16 45 43 14 19 -39c45,-88 246,81 416,82z"/>
 </g>
 <g id="Layer_x0020_7" visibility="hidden">
  <metadata id="CorelCorpID_3Corel-Layer"/>
  <path class="fil1" d="M959 463l33 -74c-98,0 -163,-22 -253,-58 -138,-55 -209,-65 -249,30l-23 53 41 22 22 -38c22,-38 55,-40 186,11 69,27 169,54 243,54z"/>
  <path class="fil6" d="M1010 569l14 0 0 81 -14 0c-113,0 -166,-18 -183,-140l-15 -114 65 -15 16 116c7,53 33,72 117,72z"/>
  <path class="fil3" d="M885 458c27,2 25,3 57,-3 -1,-25 -69,-81 -120,-76 -208,15 -343,184 -337,332 8,215 302,237 437,164l-20 -61c-120,36 -356,29 -343,-130 8,-107 148,-245 326,-226z"/>
 </g>
 <g id="Layer_x0020_8">
  <metadata id="CorelCorpID_4Corel-Layer"/>
  <path class="fil1" d="M959 471l-54 -4 -16 -1 4 31c7,53 33,72 117,72l14 0 0 81 -14 0c-113,0 -168,-32 -183,-140l-5 -44c-146,16 -259,125 -263,218 -6,132 134,192 344,143l21 61c-141,63 -444,51 -442,-193 0,-115 92,-231 224,-282 -123,-47 -154,-44 -176,-7l-22 39 -41 -23 23 -53c40,-95 111,-85 249,-30 90,36 155,58 253,58l-33 74z"/>
 </g>
</svg>
