<?xml version="1.0" encoding="UTF-8"?>
<!DOCTYPE svg PUBLIC "-//W3C//DTD SVG 1.0//EN" "http://www.w3.org/TR/2001/REC-SVG-20010904/DTD/svg10.dtd">
<!-- Creator: CorelDRAW -->
<svg xmlns="http://www.w3.org/2000/svg" xml:space="preserve" width="1300px" height="1300px" version="1.0" style="shape-rendering:geometricPrecision; text-rendering:geometricPrecision; image-rendering:optimizeQuality; fill-rule:evenodd; clip-rule:evenodd"
viewBox="0 0 1300 1056"
 xmlns:xlink="http://www.w3.org/1999/xlink">
 <defs>
  <style type="text/css">
   <![CDATA[
    .fil1 {fill:black;fill-opacity:0.501961}
    .fil17 {fill:#000066;fill-opacity:0.501961}
    .fil18 {fill:#003333;fill-opacity:0.501961}
    .fil9 {fill:#003399;fill-opacity:0.501961}
    .fil4 {fill:#336699;fill-opacity:0.501961}
    .fil6 {fill:#663300;fill-opacity:0.501961}
    .fil8 {fill:#663333;fill-opacity:0.501961}
    .fil15 {fill:#6666CC;fill-opacity:0.501961}
    .fil10 {fill:#9900CC;fill-opacity:0.501961}
    .fil14 {fill:#993366;fill-opacity:0.501961}
    .fil5 {fill:#999966;fill-opacity:0.501961}
    .fil7 {fill:#9999FF;fill-opacity:0.501961}
    .fil3 {fill:#CC3300;fill-opacity:0.501961}
    .fil0 {fill:#CC6633;fill-opacity:0.501961}
    .fil13 {fill:#CC9933;fill-opacity:0.501961}
    .fil11 {fill:red;fill-opacity:0.501961}
    .fil12 {fill:yellow;fill-opacity:0.501961}
    .fil16 {fill:#FFFF66;fill-opacity:0.501961}
    .fil2 {fill:#99CCCC}
   ]]>
  </style>
 </defs>
 <g id="_100:master" visibility="hidden">
  <metadata id="CorelCorpID_0Corel-Layer"/>
  <path class="fil0" d="M754 432l47 -21c13,-27 50,-56 82,-47 49,13 42,92 40,110 -18,27 -116,95 -242,95l1 81c141,0 252,-83 282,-181 29,-93 2,-162 -57,-179 -67,-13 -124,78 -153,142z"/>
  <path class="fil1" d="M1067 548c-7,70 -103,17 -146,-10l-77 -48c-27,-16 -56,-43 -42,-81l-48 23c-29,55 -8,95 34,121l93 57c98,61 234,91 234,-66l-48 4z"/>
  <path class="fil2" d="M682 569c-21,0 -41,19 -41,40 0,21 20,41 41,41l0 -81z"/>
  <path class="fil1" d="M1057 630l51 -28c29,-115 -22,-208 -150,-285l-159 -96 -19 80 158 96c86,51 148,132 119,233z"/>
 </g>
 <g id="Layer_x0020_1" visibility="hidden">
  <metadata id="CorelCorpID_1Corel-Layer"/>
  <path class="fil1" d="M902 460c12,-99 -20,-132 -52,-147 -48,-22 -120,17 -156,130 -18,55 -12,93 50,127 39,22 111,53 171,72 82,28 139,9 147,-113l-16 -1c-24,65 -39,58 -99,39 -53,-16 -118,-45 -166,-69 -35,-17 -48,-53 -37,-75 16,-31 54,-49 82,-40 20,6 35,39 31,76 -7,53 -162,110 -240,110l0 81c107,0 261,-80 285,-190z"/>
  <path class="fil2" d="M619 569c-21,0 -41,19 -41,40 0,21 20,41 41,41l0 -81z"/>
  <path class="fil1" d="M995 634l32 -4c21,-21 32,-61 35,-99 12,-135 -139,-187 -312,-265l-4 80c196,93 314,121 249,288z"/>
 </g>
 <g id="Layer_x0020_2" visibility="hidden">
  <metadata id="CorelCorpID_2Corel-Layer"/>
  <path class="fil1" d="M908 449c7,-58 -11,-144 -45,-163 -90,-52 -259,167 -137,254 35,26 96,52 189,94 66,30 115,27 138,-65l-20 -21c-18,34 -39,33 -86,11 -89,-41 -145,-67 -177,-88 -94,-61 24,-143 68,-121 28,14 32,74 31,103 -24,65 -174,116 -252,116l0 81c107,0 268,-91 291,-201z"/>
  <path class="fil2" d="M619 569c-21,0 -41,19 -41,40 0,21 20,41 41,41l0 -81z"/>
  <path class="fil1" d="M1014 601l28 1c80,-157 -21,-253 -280,-369l-4 81c293,125 277,212 256,287z"/>
 </g>
 <g id="Layer_x0020_4" visibility="hidden">
  <metadata id="CorelCorpID_3Corel-Layer"/>
  <path class="fil3" d="M827 276l-7 82c33,-1 58,62 58,94 -4,36 -111,117 -229,117l0 81c136,0 269,-97 269,-219 0,-47 -16,-155 -91,-155z"/>
  <path class="fil2" d="M651 569c-20,0 -40,19 -40,40 -1,21 20,41 40,41l0 -81z"/>
  <path class="fil1" d="M997 625l28 4c36,-37 48,-104 37,-149 -20,-83 -87,-143 -310,-249l-4 91c150,66 331,141 249,303z"/>
  <path class="fil3" d="M820 358l7 -82c-70,0 -101,79 -117,146 -17,73 0,107 51,147 81,64 260,162 292,11l-20 -23c-69,86 -279,-76 -284,-111 0,-5 0,-12 3,-19 14,-36 42,-69 68,-69z"/>
 </g>
 <g id="Layer_x0020_3" visibility="hidden">
  <metadata id="CorelCorpID_4Corel-Layer"/>
  <path class="fil4" d="M756 280l-24 74c35,13 48,74 47,106 -4,36 -75,109 -220,109l0 81c156,0 250,-81 261,-203 4,-46 6,-152 -64,-167z"/>
  <path class="fil2" d="M560 569c-20,0 -40,19 -40,40 -1,21 20,41 40,41l0 -81z"/>
  <path class="fil5" d="M907 625l27 4c37,-37 49,-104 38,-149 -20,-83 -83,-142 -305,-249l-5 92c151,66 327,140 245,302z"/>
  <path class="fil6" d="M732 354l24 -74c-71,0 -135,76 -152,142 -9,33 -24,87 28,116 102,57 284,193 322,57l-25 -40c-39,54 -207,-55 -253,-80 -35,-19 -32,-41 -30,-48 8,-37 61,-73 86,-73z"/>
 </g>
 <g id="Layer_x0020_5" visibility="hidden">
  <metadata id="CorelCorpID_5Corel-Layer"/>
  <path class="fil3" d="M927 436l-40 21c-4,36 -120,112 -238,112l0 81c136,0 278,-92 278,-214z"/>
  <path class="fil2" d="M650 569c-21,0 -41,19 -41,40 0,21 20,41 41,41l0 -81z"/>
  <path class="fil1" d="M1030 575l40 14c47,-116 16,-185 -295,-341l-16 82c230,119 297,170 271,245z"/>
  <path class="fil3" d="M887 457l40 -21c2,-97 -26,-127 -63,-137 -63,-19 -117,69 -144,118 -63,115 88,233 255,233 70,0 106,-44 109,-137l-38 -13c-10,59 -21,69 -70,69 -66,0 -245,-65 -215,-139 12,-31 49,-61 84,-53 29,7 43,44 42,80z"/>
 </g>
 <g id="Layer_x0020_6" visibility="hidden">
  <metadata id="CorelCorpID_6Corel-Layer"/>
  <path class="fil2" d="M682 569c-20,0 -40,19 -41,40 0,21 21,41 41,41l0 -81z"/>
  <path class="fil7" d="M963 448l-50 15c-12,44 -108,106 -205,106l-27 0 0 81 26 0c138,0 241,-88 256,-202z"/>
  <path class="fil8" d="M1015 650l1 -81c-47,0 -134,-35 -196,-76 -101,-68 121,-227 93,-30l50 -15c16,-82 -10,-152 -46,-166 -60,-22 -125,24 -167,133 -19,47 -16,117 33,147 58,37 114,83 232,88z"/>
  <path class="fil8" d="M1016 569l-1 81c79,0 112,-63 128,-105 26,-81 18,-186 -310,-314l-17 81c205,84 273,152 282,214 1,22 -35,43 -82,43z"/>
 </g>
 <g id="Layer_x0020_7" visibility="hidden">
  <metadata id="CorelCorpID_7Corel-Layer"/>
  <path class="fil2" d="M454 569c-21,0 -41,19 -41,40 0,21 20,41 41,41l0 -81z"/>
  <path class="fil8" d="M879 650l38 -72 -291 -76c-72,-19 -58,-90 11,-212l-68 -48c-83,138 -131,296 39,339l271 69z"/>
  <path class="fil9" d="M634 237l-21 79c192,57 37,248 -159,253l0 81c342,0 428,-363 180,-413z"/>
  <path class="fil10" d="M797 630l86 22c5,-7 10,-15 16,-24 108,-173 141,-401 -314,-433l-35 79c324,24 417,143 247,356z"/>
 </g>
 <g id="Layer_x0020_8" visibility="hidden">
  <metadata id="CorelCorpID_8Corel-Layer"/>
  <path class="fil8" d="M1095 550l41 22c50,-101 -47,-215 -307,-353l-17 81c147,74 287,186 283,250z"/>
  <path class="fil2" d="M667 569c-20,0 -40,19 -40,40 -1,21 20,41 40,41l0 -81z"/>
  <path class="fil7" d="M955 446l-50 15c-15,29 -98,108 -224,108l-14 0 -1 81 15 0c133,0 252,-89 274,-204z"/>
  <path class="fil8" d="M1136 572l-41 -22c-66,46 -222,-33 -283,-74 -81,-54 17,-135 67,-113 25,11 33,53 26,98l50 -15c16,-82 4,-137 -38,-164 -54,-34 -137,15 -180,123 -18,47 -15,117 33,148 81,50 311,159 366,19z"/>
 </g>
 <g id="Layer_x0020_9" visibility="hidden">
  <metadata id="CorelCorpID_9Corel-Layer"/>
  <path class="fil2" d="M674 569c-20,0 -40,19 -40,40 0,21 20,41 40,41l0 -81z"/>
  <path class="fil11" d="M781 534l47 -63c-20,-17 -44,-31 -34,-59 15,-40 66,-60 87,-56l31 -76c-43,-16 -109,32 -155,117 -19,36 -42,90 24,137z"/>
  <path class="fil8" d="M837 230l-16 83c269,119 268,272 219,271 -57,0 -130,-64 -212,-113l-47 63c81,52 174,132 243,132 113,0 178,-325 -187,-436z"/>
  <path class="fil11" d="M912 280l-31 76c34,14 47,75 37,99 -11,24 -86,114 -190,114l-54 0 0 81 56 0c131,0 209,-122 228,-181 17,-55 5,-168 -46,-189z"/>
 </g>
 <g id="Layer_x0020_10" visibility="hidden">
  <metadata id="CorelCorpID_10Corel-Layer"/>
  <path class="fil8" d="M769 418l-32 -24c-32,65 -41,137 54,195 63,38 133,61 170,61 73,0 104,-56 121,-103l-50 14c-26,21 -110,0 -176,-37 -86,-48 -105,-73 -87,-106z"/>
  <path class="fil11" d="M910 487l-35 -14c-17,33 -95,96 -201,96l-40 0 0 81 34 0c105,0 207,-61 242,-163z"/>
  <path class="fil2" d="M634 569c-20,0 -41,19 -41,40 0,21 20,41 41,41l0 -81z"/>
  <path class="fil8" d="M1032 561l50 -14c17,-49 -8,-146 -258,-300l-37 77c230,136 266,219 245,237z"/>
  <path class="fil11" d="M875 473l35 14c24,-69 15,-161 -33,-178 -57,-21 -111,15 -140,85l32 24c14,-27 51,-51 82,-40 31,11 30,78 24,95z"/>
 </g>
 <g id="Layer_x0020_11" visibility="hidden">
  <metadata id="CorelCorpID_11Corel-Layer"/>
  <path class="fil2" d="M666 569c-20,0 -40,19 -40,40 -1,21 20,41 40,41l0 -81z"/>
  <path class="fil11" d="M975 444l-34 17c-23,48 -129,108 -246,108l-29 0 0 81 49 0c113,0 260,-78 260,-206z"/>
  <path class="fil8" d="M877 276l-16 82c40,8 76,82 80,103l34 -17c0,-94 -51,-168 -98,-168z"/>
  <path class="fil8" d="M1043 650l-1 -81c-128,0 -277,-85 -266,-134 8,-34 48,-69 85,-77l16 -82c-65,1 -123,86 -136,145 -10,59 -28,119 88,174 58,28 113,55 214,55z"/>
  <path class="fil8" d="M1164 522c17,-48 -58,-145 -307,-299l-38 77c17,10 458,269 223,269l1 81c42,0 94,-16 121,-128z"/>
 </g>
 <g id="Layer_x0020_12" visibility="hidden">
  <metadata id="CorelCorpID_12Corel-Layer"/>
  <path class="fil2" d="M666 569c-20,0 -40,19 -40,40 -1,21 20,41 40,41l0 -81z"/>
  <path class="fil11" d="M956 460l-37 9c-9,51 -148,100 -253,100l0 81c146,0 293,-65 290,-190z"/>
  <path class="fil8" d="M793 425c11,-25 46,-54 68,-51 31,4 57,57 58,95l37 -9c7,-65 -25,-156 -79,-167 -94,0 -177,196 -113,259 58,59 170,89 254,86 59,-2 74,-33 97,-79l-33 -29c-7,61 -194,13 -267,-43 -17,-12 -31,-39 -22,-62z"/>
  <path class="fil8" d="M1082 530l33 29c59,-122 -75,-202 -269,-311l-38 77c14,8 280,139 274,205z"/>
 </g>
 <g id="Layer_x0020_13" visibility="hidden">
  <metadata id="CorelCorpID_13Corel-Layer"/>
  <path class="fil2" d="M683 569c-21,0 -41,19 -41,40 0,21 20,41 41,41l0 -81z"/>
  <path class="fil11" d="M924 462c-29,71 -124,107 -241,107l0 81c87,0 227,-33 275,-168l-34 -20z"/>
  <path class="fil8" d="M796 406c9,-25 60,-39 82,-36 31,4 45,53 46,92l34 20c17,-73 -4,-163 -48,-182 -73,-32 -124,39 -148,80 -47,91 -31,156 99,221 120,60 211,65 266,-29l-21 -74c-3,14 2,18 -5,32 -29,55 -106,51 -198,1 -40,-21 -130,-60 -107,-125z"/>
  <path class="fil8" d="M1077 592l44 -11c58,-85 27,-203 -265,-345l-37 77c271,128 293,222 258,279z"/>
 </g>
 <g id="Layer_x0020_14" visibility="hidden">
  <metadata id="CorelCorpID_14Corel-Layer"/>
  <path class="fil11" d="M941 428c-38,86 -129,141 -275,141l0 81c168,0 258,-95 292,-175 2,-7 -13,-39 -17,-47z"/>
  <path class="fil4" d="M781 393l-27 -27c-75,105 -7,235 258,272 38,5 84,-6 93,-33 9,-25 8,-57 11,-86 -11,28 -29,45 -77,41 -153,-13 -284,-99 -258,-167z"/>
  <path class="fil8" d="M1095 621c24,-20 40,-59 49,-93 33,-115 -15,-178 -278,-302l-36 74c264,133 294,189 279,246 -5,18 -48,53 -14,75z"/>
  <path class="fil2" d="M667 650l0 -81c-20,0 -40,19 -41,40 0,21 21,41 41,41z"/>
  <path class="fil12" d="M754 366l27 27c14,-34 74,-44 107,-30 38,15 41,92 35,124l35 -12c14,-47 30,-172 -39,-193 -52,-15 -124,27 -165,84z"/>
 </g>
 <g id="Layer_x0020_15" visibility="hidden">
  <metadata id="CorelCorpID_15Corel-Layer"/>
  <path class="fil5" d="M789 389c-11,50 -106,180 -302,180l0 81c193,0 275,-114 293,-189l9 -72z"/>
  <path class="fil2" d="M487 650l0 -81c-21,0 -41,19 -41,40 0,21 20,41 41,41z"/>
  <path class="fil13" d="M605 420l-47 2c-20,93 -11,139 136,195 108,41 229,70 269,-57l-14 -15c-39,32 -98,40 -214,-8 -119,-50 -144,-73 -130,-117z"/>
  <path class="fil11" d="M648 231l-26 78c185,53 352,176 289,325 127,-98 79,-293 -263,-403z"/>
  <path class="fil14" d="M689 358l16 -82c-51,0 -124,41 -147,146l47 -2c11,-36 52,-66 84,-62z"/>
  <path class="fil15" d="M705 276l-16 82c66,29 64,138 61,163 77,-99 33,-228 -45,-245z"/>
 </g>
 <g id="Layer_x0020_16" visibility="hidden">
  <metadata id="CorelCorpID_16Corel-Layer"/>
  <path class="fil16" d="M796 368c-78,201 -260,201 -325,201l0 81c118,0 244,-33 314,-170 19,-38 14,-70 11,-112z"/>
  <path class="fil2" d="M471 650l0 -81c-21,0 -41,19 -41,40 0,21 20,41 41,41z"/>
  <path class="fil14" d="M605 387l-47 3c-20,92 -11,138 136,194 108,42 246,78 285,-49l-13 -15c-36,44 -115,33 -231,-16 -119,-49 -143,-60 -130,-117z"/>
  <path class="fil11" d="M652 193l-24 78c282,119 328,214 298,290l29 24c92,-128 36,-260 -303,-392z"/>
  <path class="fil17" d="M689 325l16 -81c-51,0 -124,40 -147,146l47 -3c11,-36 52,-66 84,-62z"/>
  <path class="fil18" d="M705 244l-16 81c66,29 74,143 71,167 77,-98 23,-231 -55,-248z"/>
 </g>
 <g id="Layer_x0020_17">
  <metadata id="CorelCorpID_17Corel-Layer"/>
  <path class="fil11" d="M619 255l30 -75c175,82 326,179 326,349 -6,94 -94,122 -182,121 -64,0 -121,-12 -167,-32 -49,19 -109,32 -182,32 -21,0 -41,-20 -41,-41 0,-21 20,-40 41,-40 36,0 69,-3 99,-8 -28,-31 -42,-66 -41,-104l1 -1c5,-118 92,-187 139,-188 2,0 3,0 5,1 -9,-5 -18,-9 -28,-14zm288 292c-11,-106 -89,-182 -194,-243 35,33 64,90 59,167 -3,28 -22,61 -55,91 23,4 47,6 75,7 38,-1 76,-7 115,-22l0 0zm-276 -14c-37,-19 -61,-45 -74,-71 16,-70 66,-111 84,-112 17,-1 69,39 81,100 -17,34 -47,63 -91,83z"/>
 </g>
</svg>
