<?xml version="1.0" encoding="UTF-8"?>
<!DOCTYPE svg PUBLIC "-//W3C//DTD SVG 1.0//EN" "http://www.w3.org/TR/2001/REC-SVG-20010904/DTD/svg10.dtd">
<!-- Creator: CorelDRAW -->
<svg xmlns="http://www.w3.org/2000/svg" xml:space="preserve" width="1300px" height="1300px" version="1.0" style="shape-rendering:geometricPrecision; text-rendering:geometricPrecision; image-rendering:optimizeQuality; fill-rule:evenodd; clip-rule:evenodd"
viewBox="0 0 1300 1056"
 xmlns:xlink="http://www.w3.org/1999/xlink">
 <defs>
  <style type="text/css">
   <![CDATA[
    .fil3 {fill:#663333;fill-opacity:0.501961}
    .fil2 {fill:#666666;fill-opacity:0.501961}
    .fil0 {fill:red;fill-opacity:0.501961}
    .fil1 {fill:#666666}
   ]]>
  </style>
 </defs>
 <g id="Layer_x0020_7" visibility="hidden">
  <metadata id="CorelCorpID_0Corel-Layer"/>
  <path class="fil0" d="M894 747l34 -15c21,-44 54,-180 -261,-180l-1 82c127,-3 269,40 228,113z"/>
  <path class="fil1" d="M560 569c-21,0 -41,19 -41,40 0,21 20,41 41,41l0 -81z"/>
  <path class="fil2" d="M862 399c-3,56 -81,170 -302,170l0 81c181,0 252,-49 294,-127l8 -124z"/>
  <path class="fil3" d="M916 703c-17,97 -209,41 -222,-111 -12,-88 37,-218 68,-250 51,26 85,163 92,181 20,-38 36,-70 22,-112 -15,-46 -62,-142 -96,-151 -88,-22 -146,211 -133,342 18,236 256,314 291,105l-22 -4z"/>
  <path class="fil3" d="M826 518l-44 51c34,32 106,81 241,81l1 -81c-104,0 -161,-26 -198,-51z"/>
 </g>
 <g id="Layer_x0020_8" visibility="hidden">
  <metadata id="CorelCorpID_1Corel-Layer"/>
  <path class="fil0" d="M923 774l-19 47c-160,-97 -102,-252 13,-252l90 0 0 81 -87 0c-84,0 -87,95 3,124z"/>
  <path class="fil1" d="M560 569c-20,0 -41,19 -41,40 0,21 20,41 41,41l0 -81z"/>
  <path class="fil2" d="M855 469c-47,45 -124,100 -295,100l0 81c111,0 179,-32 236,-73 47,-38 54,-83 59,-108z"/>
  <path class="fil3" d="M894 846l29 -72c-289,-92 -259,-332 -151,-442 49,65 58,179 25,244 118,-98 47,-298 7,-316 -105,-49 -317,455 90,586z"/>
 </g>
 <g id="Layer_x0020_9">
  <metadata id="CorelCorpID_2Corel-Layer"/>
  <path class="fil1" d="M858 371c-48,32 -101,108 -122,188 45,-8 81,-20 103,-36 20,-10 35,-100 19,-152zm-130 270c13,57 114,90 161,90 -1,-13 11,-61 -36,-117l-7 -6c-32,15 -71,26 -118,33zm-159 -72l33 0c21,0 42,-1 62,-2 26,-154 135,-289 222,-291 36,10 59,77 55,154 -2,42 -12,89 -32,135 33,6 78,4 148,4l0 81c-36,0 -67,-2 -94,-5 35,99 -9,184 -77,184 -96,0 -209,-70 -226,-181 -18,1 -38,2 -58,2l-33 0c-20,0 -41,-20 -40,-41 0,-21 20,-40 40,-40z"/>
 </g>
</svg>
