<?xml version="1.0" encoding="UTF-8"?>
<!DOCTYPE svg PUBLIC "-//W3C//DTD SVG 1.0//EN" "http://www.w3.org/TR/2001/REC-SVG-20010904/DTD/svg10.dtd">
<!-- Creator: CorelDRAW -->
<svg xmlns="http://www.w3.org/2000/svg" xml:space="preserve" width="1300px" height="1300px" version="1.0" style="shape-rendering:geometricPrecision; text-rendering:geometricPrecision; image-rendering:optimizeQuality; fill-rule:evenodd; clip-rule:evenodd"
viewBox="0 0 1300 1056"
 xmlns:xlink="http://www.w3.org/1999/xlink">
 <defs>
  <style type="text/css">
   <![CDATA[
    .fil1 {fill:red;fill-opacity:0.501961}
    .fil0 {fill:#FF9933;fill-opacity:0.501961}
    .fil4 {fill:#339966}
    .fil5 {fill:#663333}
    .fil2 {fill:red}
    .fil3 {fill:fuchsia}
   ]]>
  </style>
 </defs>
 <g id="_200:master" visibility="hidden">
  <metadata id="CorelCorpID_0Corel-Layer"/>
  <path class="fil0" d="M951 581l-17 -50c-10,-57 -67,-137 -216,-271 -11,-9 -17,-23 -14,-33l15 -45 9 -13c3,3 4,3 7,6 153,139 240,236 241,323 1,33 -9,61 -25,83z"/>
  <path class="fil1" d="M450 352l13 7c9,5 7,14 4,21 -97,263 297,237 447,149 23,-14 35,-25 46,-16 20,5 9,41 -10,69 -78,114 -693,195 -514,-225 3,-5 9,-8 14,-5z"/>
  <path class="fil2" d="M722 236l322 -98c14,-4 17,-20 26,-48 9,-30 10,-44 -5,-40l-300 89c-41,19 -40,26 -48,49l5 48z"/>
 </g>
 <g id="Layer_x0020_1" visibility="hidden">
  <metadata id="CorelCorpID_1Corel-Layer"/>
  <path class="fil3" d="M679 569l0 81c150,0 297,-9 297,-163 -22,44 -106,82 -297,82z"/>
  <path class="fil0" d="M870 631c62,-47 66,-143 -14,-254 -28,-38 -64,-78 -110,-117l41 -71c47,40 89,88 123,136 92,131 94,261 -40,306z"/>
  <path class="fil2" d="M811 227l284 -87c10,-3 13,-5 17,-18l16 -52c5,-16 3,-22 -12,-18l-324 99c-29,9 -68,89 -50,105l9 8 60 -37z"/>
  <path class="fil4" d="M679 650l0 -81c-144,-1 -264,-34 -209,-206 3,-8 1,-12 -8,-15l-17 -5c-6,-1 -11,1 -13,6 -18,50 -26,91 -27,125 0,149 123,176 274,176z"/>
 </g>
 <g id="Layer_x0020_2">
  <metadata id="CorelCorpID_2Corel-Layer"/>
  <path class="fil5" d="M455 359c-86,188 45,219 222,219 113,1 186,-18 240,-44 0,-58 -43,-137 -198,-276l-1 0c-3,-3 -7,-7 -11,-10l-4 -4 2 -4 0 0 55 -94 334 -102 -22 88 -278 85c163,152 185,211 185,266 0,2 0,5 0,7l0 0 0 0c0,9 -1,17 -2,26 -3,40 -12,79 -45,95 -68,31 -136,51 -256,51 -232,0 -390,-56 -269,-324l48 21z"/>
 </g>
</svg>
