<?xml version="1.0" encoding="UTF-8"?>
<!DOCTYPE svg PUBLIC "-//W3C//DTD SVG 1.0//EN" "http://www.w3.org/TR/2001/REC-SVG-20010904/DTD/svg10.dtd">
<!-- Creator: CorelDRAW -->
<svg xmlns="http://www.w3.org/2000/svg" xml:space="preserve" width="1300px" height="1300px" version="1.0" style="shape-rendering:geometricPrecision; text-rendering:geometricPrecision; image-rendering:optimizeQuality; fill-rule:evenodd; clip-rule:evenodd"
viewBox="0 0 1300 1056"
 xmlns:xlink="http://www.w3.org/1999/xlink">
 <defs>
  <style type="text/css">
   <![CDATA[
    .fil4 {fill:#333333;fill-opacity:0.501961}
    .fil8 {fill:#663333;fill-opacity:0.501961}
    .fil2 {fill:#FF9933;fill-opacity:0.501961}
    .fil9 {fill:#33CC99}
    .fil7 {fill:#996633}
    .fil0 {fill:#99CCCC}
    .fil5 {fill:#B3B3B3}
    .fil3 {fill:red}
    .fil6 {fill:fuchsia}
    .fil1 {fill:#FF6666}
   ]]>
  </style>
 </defs>
 <g id="_100:master" visibility="hidden">
  <metadata id="CorelCorpID_0Corel-Layer"/>
  <path class="fil0" d="M698 650l0 -81c-20,0 -40,19 -40,40 -1,21 20,41 40,41z"/>
  <path class="fil1" d="M1145 569l0 81c-170,0 -224,-168 -312,-274 -36,-44 -74,-82 -123,-120 -12,-8 -17,-23 -14,-33l20 -59c63,42 118,97 178,168 67,81 130,237 251,237z"/>
  <path class="fil2" d="M853 401l87 -3c13,31 19,62 19,91 -1,117 -87,161 -195,161l-66 0 0 -81 73 0c23,0 127,-17 128,-49 0,-15 -2,-29 -6,-43 -8,-26 -22,-51 -40,-76z"/>
  <path class="fil3" d="M716 226l305 -138c28,-12 49,-100 22,-88l-284 129c-41,18 -40,26 -48,49l5 48z"/>
 </g>
 <g id="Layer_x0020_1" visibility="hidden">
  <metadata id="CorelCorpID_1Corel-Layer"/>
  <path class="fil0" d="M684 650l0 -81c-21,0 -41,19 -41,40 0,21 20,41 41,41z"/>
  <path class="fil3" d="M716 242l305 -138c28,-12 49,-100 22,-88l-284 129c-41,18 -40,26 -48,49l5 48z"/>
  <path class="fil1" d="M839 372l43 -64c118,102 110,261 293,261l-1 81c-229,0 -252,-208 -335,-278z"/>
  <path class="fil2" d="M966 538l-54 -7c9,-93 -88,-190 -202,-258 -13,-8 -17,-24 -14,-33l20 -60c232,145 283,270 250,358z"/>
  <path class="fil4" d="M966 538c-43,129 -197,112 -283,112l0 -81c92,0 166,5 229,-38l54 7z"/>
 </g>
 <g id="Layer_x0020_2" visibility="hidden">
  <metadata id="CorelCorpID_2Corel-Layer"/>
  <path class="fil1" d="M833 371l60 -44c82,84 116,242 274,242l-1 81c-214,0 -217,-165 -333,-279z"/>
  <path class="fil2" d="M936 595l-38 -55c58,-40 -44,-172 -180,-263 -13,-8 -17,-24 -14,-33l20 -60c136,94 336,265 212,411z"/>
  <path class="fil0" d="M708 650l0 -81c-20,0 -40,19 -41,40 0,21 21,41 41,41z"/>
  <path class="fil3" d="M724 246l322 -113c28,-10 49,-98 21,-88l-300 104c-40,18 -40,26 -48,49l5 48z"/>
  <path class="fil5" d="M975 487l-65 45c-31,23 -80,37 -154,37l-48 0 0 81 48 0c155,0 216,-58 219,-163z"/>
 </g>
 <g id="Layer_x0020_3" visibility="hidden">
  <metadata id="CorelCorpID_3Corel-Layer"/>
  <path class="fil3" d="M722 236l322 -98c9,-2 12,-4 16,-18l16 -51c5,-17 4,-23 -11,-19l-300 89c-29,9 -40,26 -48,49l5 48z"/>
  <path class="fil2" d="M972 530l-51 39c31,-76 -57,-192 -196,-299l-4 -3c-14,-10 -22,-32 -16,-48l14 -37 9 -13c3,3 4,3 7,6 6,6 12,12 20,17 172,133 236,247 217,338z"/>
  <path class="fil1" d="M810 343l55 -54c47,48 78,97 106,149 50,92 92,131 167,131l-1 81c-53,0 -118,-18 -169,-90 -51,-73 -71,-136 -158,-217z"/>
  <path class="fil0" d="M699 650l0 -81c-20,0 -40,19 -40,40 -1,21 20,41 40,41z"/>
  <path class="fil2" d="M929 536l46 -39c1,97 -63,153 -160,153l-116 0 0 -81 98 0c74,0 105,-13 132,-33z"/>
 </g>
 <g id="Layer_x0020_4" visibility="hidden">
  <metadata id="CorelCorpID_4Corel-Layer"/>
  <path class="fil3" d="M717 236l322 -98c10,-2 13,-4 17,-18l16 -51c5,-17 3,-23 -12,-19l-300 89c-29,9 -39,26 -47,49l4 48z"/>
  <path class="fil1" d="M809 344l47 -58c58,53 96,102 127,146 48,69 93,137 205,137l0 81c-147,0 -209,-90 -257,-162 -31,-44 -65,-95 -122,-144z"/>
  <path class="fil2" d="M945 600l-3 -15c2,-85 -22,-162 -221,-315l-4 -3c-14,-10 -22,-32 -16,-48l14 -37 9 -13c3,3 4,3 7,6 6,6 13,12 20,17 95,82 158,143 193,197 36,57 57,160 1,211z"/>
  <path class="fil0" d="M715 650l0 -81c-20,0 -40,19 -40,40 0,21 20,41 40,41z"/>
  <path class="fil2" d="M974 492l1 28c0,115 -125,130 -211,130l-49 0 0 -81 53 0c127,0 170,-35 206,-77z"/>
 </g>
 <g id="Layer_x0020_5" visibility="hidden">
  <metadata id="CorelCorpID_5Corel-Layer"/>
  <path class="fil3" d="M717 236l322 -98c10,-2 13,-4 17,-18l16 -51c5,-17 3,-23 -12,-19l-300 89c-29,9 -39,26 -47,49l4 48z"/>
  <path class="fil2" d="M945 600l-3 -15c2,-85 -22,-162 -221,-315l-4 -3c-14,-10 -22,-32 -16,-48l14 -37 9 -13c3,3 4,3 7,6 6,6 13,12 20,17 95,82 158,143 193,197 36,57 57,160 1,211z"/>
  <path class="fil0" d="M683 650l0 -81c-20,0 -40,19 -41,40 0,21 21,41 41,41z"/>
  <path class="fil2" d="M974 492l1 28c0,115 -125,130 -211,130l-82 0 0 -81 86 0c127,0 170,-35 206,-77z"/>
  <path class="fil6" d="M1172 650c-18,0 -89,0 -141,-35 -76,-57 -81,-130 -177,-228l46 -56c119,133 96,238 272,238l0 81z"/>
 </g>
 <g id="Layer_x0020_6" visibility="hidden">
  <metadata id="CorelCorpID_6Corel-Layer"/>
  <path class="fil0" d="M732 650l0 -81c-20,0 -40,19 -41,40 0,21 21,41 41,41z"/>
  <path class="fil2" d="M977 475c7,137 -92,175 -210,175l-35 0 0 -81 39 0c128,0 171,-51 206,-94z"/>
  <path class="fil2" d="M900 617c22,-37 73,-127 -73,-267l-86 -83c-12,-12 -13,-32 -7,-48 8,-20 17,-30 32,-46l12 24 82 79c90,85 127,172 115,240 -7,42 -32,76 -75,101z"/>
  <path class="fil3" d="M1184 650c-199,0 -209,-134 -326,-268l51 -54c120,142 111,241 275,241l0 81z"/>
  <path class="fil3" d="M804 217l259 -79c10,-2 13,-4 17,-18l16 -51c5,-17 3,-23 -11,-19l-293 90c-21,6 -55,22 -61,79 -1,7 -1,15 0,25l73 -27z"/>
 </g>
 <g id="Layer_x0020_7" visibility="hidden">
  <metadata id="CorelCorpID_7Corel-Layer"/>
  <path class="fil3" d="M860 371l54 -56c77,107 111,254 278,254l0 81c-217,0 -248,-173 -332,-279z"/>
  <path class="fil6" d="M747 569l-16 0 0 81 17 0c150,0 227,-59 227,-164 -23,35 -85,83 -228,83z"/>
  <path class="fil0" d="M731 650l0 -81c-20,0 -41,19 -41,40 0,21 20,41 41,41z"/>
  <path class="fil2" d="M878 629c113,-109 -33,-304 -132,-386l42 -73c138,122 293,363 90,459z"/>
  <path class="fil3" d="M809 209l259 -79c10,-3 13,-5 17,-18l16 -52c5,-16 3,-22 -11,-18l-300 91c-29,9 -67,89 -50,104l9 9 60 -37z"/>
 </g>
 <g id="Layer_x0020_8" visibility="hidden">
  <metadata id="CorelCorpID_8Corel-Layer"/>
  <path class="fil7" d="M872 393l60 -52c52,64 63,93 94,131 38,47 60,97 180,97l0 81c-130,0 -171,-41 -227,-109 -38,-45 -59,-83 -107,-148z"/>
  <path class="fil0" d="M697 650l0 -81c-20,0 -40,19 -40,40 0,21 20,41 40,41z"/>
  <polygon class="fil3" points="1089,130 1110,42 792,144 735,242 751,257 811,220 "/>
  <path class="fil2" d="M918 610l-5 -42c38,-72 16,-126 -171,-320l-2 -8 38 -67c205,201 221,258 204,350 -6,30 -33,68 -64,87z"/>
  <path class="fil8" d="M764 650c99,0 216,-42 211,-147 0,-5 -3,-10 -3,-15 -6,6 -10,-8 -13,-1 -19,39 -92,82 -195,82l-67 0 0 81 67 0z"/>
 </g>
 <g id="Layer_x0020_9">
  <metadata id="CorelCorpID_9Corel-Layer"/>
  <path class="fil9" d="M693 569c107,0 172,-8 224,-39 -1,-31 -14,-68 -50,-117l-9 -11c-30,-40 -75,-87 -139,-144l-1 0 -15 -14 2 -4 0 0 55 -94 334 -102 -22 88 -278 85c76,71 122,122 148,161l104 137c28,37 46,54 86,54l23 0 1 81 -26 0c-69,0 -103,-26 -145,-81l-14 -19c-3,12 -7,22 -12,30l0 0c-7,11 -15,20 -27,27 -66,37 -112,43 -239,43l0 0c-20,0 -41,-20 -40,-41 0,-21 20,-40 40,-40l0 0z"/>
 </g>
</svg>
