<?xml version="1.0" encoding="UTF-8"?>
<!DOCTYPE svg PUBLIC "-//W3C//DTD SVG 1.0//EN" "http://www.w3.org/TR/2001/REC-SVG-20010904/DTD/svg10.dtd">
<!-- Creator: CorelDRAW -->
<svg xmlns="http://www.w3.org/2000/svg" xml:space="preserve" width="1300px" height="1300px" version="1.0" style="shape-rendering:geometricPrecision; text-rendering:geometricPrecision; image-rendering:optimizeQuality; fill-rule:evenodd; clip-rule:evenodd"
viewBox="0 0 1300 1056"
 xmlns:xlink="http://www.w3.org/1999/xlink">
 <defs>
  <style type="text/css">
   <![CDATA[
    .fil1 {fill:black;fill-opacity:0.501961}
    .fil4 {fill:#333333;fill-opacity:0.501961}
    .fil6 {fill:#663333;fill-opacity:0.501961}
    .fil3 {fill:#FF9933;fill-opacity:0.501961}
    .fil7 {fill:#33CC99}
    .fil0 {fill:#99CCCC}
    .fil5 {fill:#B3B3B3}
    .fil2 {fill:red}
   ]]>
  </style>
 </defs>
 <g id="_100:master" visibility="hidden">
  <metadata id="CorelCorpID_0Corel-Layer"/>
  <path class="fil0" d="M714 569c-20,0 -41,19 -41,40 0,21 20,41 41,41l0 -81z"/>
  <path class="fil1" d="M921 526c-2,-116 -146,-242 -224,-323l34 -80c105,110 244,226 244,390 0,120 -110,137 -187,137l-74 0 0 -81 73 0c47,0 114,-9 134,-43z"/>
  <polygon class="fil2" points="697,203 1036,81 1060,70 1073,0 732,122 "/>
 </g>
 <g id="Layer_x0020_1" visibility="hidden">
  <metadata id="CorelCorpID_1Corel-Layer"/>
  <path class="fil0" d="M715 650l0 -81c-21,0 -41,19 -41,40 0,21 20,41 41,41z"/>
  <path class="fil3" d="M975 489c-1,117 -87,161 -195,161l-66 0 0 -81 73 0c49,0 133,-20 139,-49l0 0c-5,-85 -80,-190 -192,-264 -12,-8 -17,-23 -13,-33l19 -59c142,87 236,219 235,325l0 0z"/>
  <path class="fil2" d="M740 226l306 -138c27,-12 49,-100 21,-88l-300 136c-13,6 -23,17 -28,31l-15 46 16 13z"/>
 </g>
 <g id="Layer_x0020_2" visibility="hidden">
  <metadata id="CorelCorpID_2Corel-Layer"/>
  <path class="fil3" d="M966 538l-54 -7c21,-45 -4,-125 -162,-258 -11,-10 -16,-24 -13,-33l20 -60c234,194 229,291 209,358z"/>
  <path class="fil4" d="M966 538c-43,129 -148,112 -235,112l1 -81c92,0 117,5 180,-38l54 7z"/>
  <path class="fil0" d="M732 650l0 -81c-20,0 -40,19 -40,40 0,21 20,41 40,41z"/>
  <path class="fil2" d="M756 242l322 -113c29,-10 50,-98 22,-88l-301 104c-40,18 -39,26 -47,49l4 48z"/>
 </g>
 <g id="Layer_x0020_3" visibility="hidden">
  <metadata id="CorelCorpID_3Corel-Layer"/>
  <path class="fil0" d="M700 650l0 -81c-20,0 -40,19 -41,40 0,21 21,41 41,41z"/>
  <path class="fil5" d="M972 488c-22,24 -43,42 -72,56 -37,16 -82,25 -144,25l-56 0 0 81 56 0c178,0 216,-101 216,-162z"/>
  <path class="fil3" d="M929 595l-29 -52c54,-25 26,-104 -182,-283 -12,-9 -17,-23 -14,-33l15 -45 9 -13c3,3 4,3 7,6 143,127 242,224 239,285 -4,91 -23,109 -45,135z"/>
  <path class="fil2" d="M722 236l322 -98c28,-8 50,-96 21,-88l-300 89c-41,19 -40,26 -48,49l5 48z"/>
 </g>
 <g id="Layer_x0020_4" visibility="hidden">
  <metadata id="CorelCorpID_4Corel-Layer"/>
  <path class="fil2" d="M701 236l322 -98c9,-2 13,-4 17,-18l16 -51c5,-17 3,-23 -12,-19l-300 89c-29,9 -40,26 -47,49l4 48z"/>
  <path class="fil3" d="M970 546l-52 39c32,-75 -74,-208 -213,-315l-4 -3c-14,-10 -23,-32 -17,-48l15 -37 9 -13c3,3 3,3 7,6 6,6 12,12 19,17 173,133 255,263 236,354z"/>
  <path class="fil0" d="M699 650l0 -81c-20,0 -40,19 -40,40 -1,21 20,41 40,41z"/>
  <path class="fil3" d="M929 536l46 -39c1,97 -63,153 -160,153l-116 0 0 -81 98 0c74,0 105,-13 132,-33z"/>
 </g>
 <g id="Layer_x0020_5" visibility="hidden">
  <metadata id="CorelCorpID_5Corel-Layer"/>
  <path class="fil2" d="M717 236l322 -98c10,-2 13,-4 17,-18l16 -51c5,-17 3,-23 -12,-19l-300 89c-29,9 -39,26 -47,49l4 48z"/>
  <path class="fil3" d="M945 600l-3 -15c2,-85 -22,-162 -221,-315l-4 -3c-14,-10 -22,-32 -16,-48l14 -37 9 -13c3,3 4,3 7,6 6,6 13,12 20,17 95,82 158,143 193,197 36,57 57,160 1,211z"/>
  <path class="fil0" d="M683 650l0 -81c-20,0 -40,19 -41,40 0,21 21,41 41,41z"/>
  <path class="fil3" d="M974 492l1 28c0,115 -125,130 -211,130l-82 0 0 -81 86 0c127,0 170,-35 206,-77z"/>
 </g>
 <g id="Layer_x0020_6" visibility="hidden">
  <metadata id="CorelCorpID_6Corel-Layer"/>
  <path class="fil0" d="M732 650l0 -81c-20,0 -40,19 -41,40 0,21 21,41 41,41z"/>
  <path class="fil3" d="M977 475c7,137 -92,175 -210,175l-35 0 0 -81 39 0c128,0 171,-51 206,-94z"/>
  <path class="fil2" d="M804 217l259 -79c10,-2 13,-4 17,-18l16 -51c5,-17 3,-23 -11,-19l-293 90c-21,6 -55,22 -61,79 -1,7 -1,15 0,25l73 -27z"/>
  <path class="fil3" d="M900 617c22,-37 73,-127 -73,-267l-86 -83c-12,-12 -13,-32 -7,-48 8,-20 17,-30 32,-46l12 24 82 79c90,85 127,172 115,240 -7,42 -32,76 -75,101z"/>
 </g>
 <g id="Layer_x0020_7" visibility="hidden">
  <metadata id="CorelCorpID_7Corel-Layer"/>
  <path class="fil0" d="M698 650l0 -81c-20,0 -40,19 -40,40 -1,21 20,41 40,41z"/>
  <path class="fil3" d="M896 621c91,-106 -51,-296 -199,-394l42 -73c203,155 326,365 157,467z"/>
  <path class="fil2" d="M769 198l276 -71c9,-2 12,-5 17,-18l16 -52c5,-16 3,-22 -12,-18l-316 83c-29,8 -70,92 -51,105l10 7 60 -36z"/>
  <path class="fil6" d="M764 650c99,0 211,-26 211,-147 0,-5 -3,-10 -3,-15 -6,6 -9,11 -14,16 -48,43 -91,65 -194,65l-66 0 0 81 66 0z"/>
 </g>
 <g id="Layer_x0020_8" visibility="hidden">
  <metadata id="CorelCorpID_8Corel-Layer"/>
  <polygon class="fil2" points="1089,130 1110,42 792,144 735,242 751,257 811,220 "/>
  <path class="fil3" d="M918 610l-5 -42c38,-72 16,-126 -171,-320l-2 -8 38 -67c205,201 221,258 204,350 -6,30 -33,68 -64,87z"/>
  <path class="fil0" d="M697 650l0 -81c-20,0 -40,19 -40,40 0,21 20,41 40,41z"/>
  <path class="fil6" d="M764 650c99,0 216,-42 211,-147 0,-5 -3,-10 -3,-15 -6,6 -10,-8 -13,-1 -19,39 -92,82 -195,82l-67 0 0 81 67 0z"/>
 </g>
 <g id="Layer_x0020_9">
  <metadata id="CorelCorpID_9Corel-Layer"/>
  <path class="fil7" d="M693 569c107,0 172,-8 224,-39 -2,-57 -46,-136 -198,-272l-1 0c-3,-3 -7,-7 -11,-10l-4 -4 2 -4 0 0 55 -94 334 -102 -22 88 -278 85c163,152 185,211 185,266 0,34 -7,75 -20,97l0 0c-7,11 -15,20 -27,27 -66,37 -112,43 -239,43l0 0c-20,0 -41,-20 -40,-41 0,-21 20,-40 40,-40l0 0z"/>
 </g>
</svg>
