<?xml version="1.0" encoding="UTF-8"?>
<!DOCTYPE svg PUBLIC "-//W3C//DTD SVG 1.0//EN" "http://www.w3.org/TR/2001/REC-SVG-20010904/DTD/svg10.dtd">
<!-- Creator: CorelDRAW -->
<svg xmlns="http://www.w3.org/2000/svg" xml:space="preserve" width="1300px" height="1300px" version="1.0" style="shape-rendering:geometricPrecision; text-rendering:geometricPrecision; image-rendering:optimizeQuality; fill-rule:evenodd; clip-rule:evenodd"
viewBox="0 0 1300 1056"
 xmlns:xlink="http://www.w3.org/1999/xlink">
 <defs>
  <style type="text/css">
   <![CDATA[
    .fil2 {fill:red;fill-opacity:0.501961}
    .fil1 {fill:#FF9933;fill-opacity:0.501961}
    .fil9 {fill:#009933}
    .fil10 {fill:#33CC99}
    .fil8 {fill:#996633}
    .fil4 {fill:#9999FF}
    .fil3 {fill:red}
    .fil6 {fill:fuchsia}
    .fil7 {fill:#FF6600}
    .fil0 {fill:#FF6666}
    .fil5 {fill:#FF99CC}
   ]]>
  </style>
 </defs>
 <g id="_100:master" visibility="hidden">
  <metadata id="CorelCorpID_0Corel-Layer"/>
  <path class="fil0" d="M833 371l51 -49c123,133 140,247 253,247l-1 81c-161,4 -190,-168 -303,-279z"/>
  <path class="fil1" d="M951 581l-17 -50c-10,-57 -67,-137 -216,-271 -11,-9 -17,-23 -14,-33l15 -45 9 -13c3,3 4,3 7,6 153,139 240,236 241,323 1,33 -9,61 -25,83z"/>
  <path class="fil2" d="M450 352l13 7c9,5 7,14 4,21 -97,263 297,237 447,149 23,-14 35,-25 46,-16 20,5 9,41 -10,69 -78,114 -693,195 -514,-225 3,-5 9,-8 14,-5z"/>
  <path class="fil3" d="M722 236l322 -98c14,-4 17,-20 26,-48 9,-30 10,-44 -5,-40l-300 89c-41,19 -40,26 -48,49l5 48z"/>
 </g>
 <g id="Layer_x0020_2" visibility="hidden">
  <metadata id="CorelCorpID_1Corel-Layer"/>
  <path class="fil4" d="M975 513c-4,48 -17,88 -64,103 -207,58 -615,122 -482,-241 4,-10 9,-12 15,-10 21,7 28,6 20,26 -97,274 323,183 458,146 21,-6 40,-19 53,-24z"/>
  <path class="fil3" d="M722 236l322 -98c9,-2 12,-4 16,-18l16 -51c5,-17 4,-23 -11,-19l-300 89c-29,9 -40,26 -48,49l5 48z"/>
  <path class="fil1" d="M972 530l-51 39c31,-76 -57,-192 -196,-299l-4 -3c-14,-10 -22,-32 -16,-48l14 -37 9 -13c3,3 4,3 7,6 6,6 12,12 20,17 172,133 236,247 217,338z"/>
  <path class="fil0" d="M810 343l55 -54c47,48 78,97 106,149 50,92 92,131 167,131l-1 81c-53,0 -118,-18 -169,-90 -51,-73 -71,-136 -158,-217z"/>
 </g>
 <g id="Layer_x0020_3" visibility="hidden">
  <metadata id="CorelCorpID_2Corel-Layer"/>
  <path class="fil5" d="M980 514c-8,60 -21,87 -68,102 -181,66 -611,115 -482,-241 4,-10 9,-12 15,-10 21,7 28,6 20,26 -97,275 374,181 458,146 20,-9 43,-17 57,-23z"/>
  <path class="fil3" d="M717 236l322 -98c10,-2 13,-4 17,-18l16 -51c5,-17 3,-23 -12,-19l-300 89c-29,9 -39,26 -47,49l4 48z"/>
  <path class="fil1" d="M945 600l-3 -15c2,-85 -22,-162 -221,-315l-4 -3c-14,-10 -22,-32 -16,-48l14 -37 9 -13c3,3 4,3 7,6 6,6 13,12 20,17 95,82 158,143 193,197 36,57 57,160 1,211z"/>
  <path class="fil6" d="M1172 650c-18,0 -89,0 -141,-35 -76,-57 -81,-130 -177,-228l46 -56c119,133 96,238 272,238l0 81z"/>
 </g>
 <g id="Layer_x0020_4" visibility="hidden">
  <metadata id="CorelCorpID_3Corel-Layer"/>
  <path class="fil3" d="M742 236l321 -98c10,-2 13,-4 17,-18l16 -51c5,-17 4,-23 -11,-19l-300 89c-29,9 -40,26 -48,49l5 48z"/>
  <path class="fil1" d="M900 617c13,-44 73,-127 -73,-267l-86 -83c-12,-12 -22,-32 -16,-48l15 -37 8 -13 112 107c90,85 127,172 115,240 -7,42 -32,76 -75,101z"/>
  <path class="fil3" d="M1191 650c-246,0 -199,-129 -333,-268l51 -54c131,143 74,241 282,241l0 81z"/>
  <path class="fil7" d="M959 520c-50,29 -120,72 -263,71 -169,-1 -278,-45 -224,-206 5,-14 6,-18 -2,-21l-25 -8c-6,-2 -8,1 -12,11 -78,220 25,307 260,307 81,0 247,-35 272,-127 0,-16 -11,-2 -6,-27z"/>
 </g>
 <g id="Layer_x0020_5" visibility="hidden">
  <metadata id="CorelCorpID_4Corel-Layer"/>
  <path class="fil6" d="M679 569l0 81c150,0 297,-9 297,-163 -22,44 -106,82 -297,82z"/>
  <path class="fil1" d="M870 631c62,-47 66,-143 -14,-254 -28,-38 -64,-78 -110,-117l41 -71c47,40 89,88 123,136 92,131 94,261 -40,306z"/>
  <path class="fil3" d="M811 227l284 -87c10,-3 13,-5 17,-18l16 -52c5,-16 3,-22 -12,-18l-324 99c-29,9 -68,89 -50,105l9 8 60 -37z"/>
  <path class="fil8" d="M854 374l52 -55c52,64 86,115 117,153 38,47 60,97 179,97l1 81c-131,0 -172,-41 -228,-109 -37,-45 -74,-102 -121,-167z"/>
  <path class="fil9" d="M679 650l0 -81c-144,-1 -264,-34 -209,-206 3,-8 1,-12 -8,-15l-17 -5c-6,-1 -11,1 -13,6 -18,50 -26,91 -27,125 0,149 123,176 274,176z"/>
 </g>
 <g id="Layer_x0020_6">
  <metadata id="CorelCorpID_5Corel-Layer"/>
  <path class="fil10" d="M465 359c-53,103 -20,162 52,192 124,52 315,18 409,-27 0,-1 1,-1 2,-1 3,-27 -6,-57 -32,-97 -7,-10 -15,-21 -24,-33 -28,-36 -67,-80 -121,-136l-16 -15 57 -98 318 -102 -21 88 -268 87c50,50 86,90 111,124l0 0c52,64 63,93 94,131 38,47 60,97 180,97l0 81c-130,0 -171,-41 -227,-109l-1 -1c-7,28 -20,53 -46,65 -120,52 -308,84 -447,25 -100,-42 -148,-131 -68,-292l48 21z"/>
 </g>
</svg>
