<?xml version="1.0" encoding="UTF-8"?>
<!DOCTYPE svg PUBLIC "-//W3C//DTD SVG 1.0//EN" "http://www.w3.org/TR/2001/REC-SVG-20010904/DTD/svg10.dtd">
<!-- Creator: CorelDRAW -->
<svg xmlns="http://www.w3.org/2000/svg" xml:space="preserve" width="1300px" height="1300px" version="1.0" style="shape-rendering:geometricPrecision; text-rendering:geometricPrecision; image-rendering:optimizeQuality; fill-rule:evenodd; clip-rule:evenodd"
viewBox="0 0 1300 1056"
 xmlns:xlink="http://www.w3.org/1999/xlink">
 <defs>
  <style type="text/css">
   <![CDATA[
    .fil2 {fill:#663333;fill-opacity:0.501961}
    .fil0 {fill:#9900CC;fill-opacity:0.501961}
    .fil1 {fill:#CC3300}
    .fil3 {fill:#FF6600}
   ]]>
  </style>
 </defs>
 <g id="_100:master" visibility="hidden">
  <metadata id="CorelCorpID_0Corel-Layer"/>
  <path class="fil0" d="M919 418c0,115 -8,232 176,232l0 -81c-119,0 -119,-45 -121,-176l-55 25z"/>
  <path class="fil1" d="M975 459c0,45 -42,95 -89,130 -43,32 -110,60 -159,61 -49,1 -129,-72 -60,-69 80,4 259,-61 253,-147l55 25z"/>
  <path class="fil2" d="M719 532c6,-101 -31,-223 -69,-340 -5,-15 -5,-18 12,-39l18 -22c10,-13 19,-10 23,1 39,114 97,323 54,393 -5,8 -41,46 -38,7z"/>
  <path class="fil2" d="M922 500l-15 -431c-1,-21 -4,-23 12,-36l32 -27c13,-11 23,-6 23,9l1 444 -53 41z"/>
 </g>
 <g id="Layer_x0020_1">
  <metadata id="CorelCorpID_1Corel-Layer"/>
  <path class="fil3" d="M983 400l1 0 -1 34c0,2 0,3 0,5l0 34c6,53 68,96 128,96l0 81c-64,0 -122,-22 -159,-59 -66,82 -207,121 -302,122l-23 -86c46,-5 88,-10 127,-21 -47,-187 -55,-231 -202,-401l57 -59c147,171 156,214 211,434 32,-17 62,-40 89,-72l0 -9c0,-9 0,-17 0,-25 0,-147 0,-293 0,-439l74 -35 0 400z"/>
 </g>
</svg>
