<?xml version="1.0" encoding="UTF-8"?>
<!DOCTYPE svg PUBLIC "-//W3C//DTD SVG 1.0//EN" "http://www.w3.org/TR/2001/REC-SVG-20010904/DTD/svg10.dtd">
<!-- Creator: CorelDRAW -->
<svg xmlns="http://www.w3.org/2000/svg" xml:space="preserve" width="1300px" height="1300px" version="1.0" style="shape-rendering:geometricPrecision; text-rendering:geometricPrecision; image-rendering:optimizeQuality; fill-rule:evenodd; clip-rule:evenodd"
viewBox="0 0 1300 1056"
 xmlns:xlink="http://www.w3.org/1999/xlink">
 <defs>
  <style type="text/css">
   <![CDATA[
    .fil1 {fill:#663333;fill-opacity:0.501961}
    .fil0 {fill:#CC3300}
    .fil2 {fill:#FF6633}
   ]]>
  </style>
 </defs>
 <g id="_100:master" visibility="hidden">
  <metadata id="CorelCorpID_0Corel-Layer"/>
  <path class="fil0" d="M738 575c42,-153 -56,-299 -137,-364 -9,-12 -11,-15 -2,-40l9 -27c5,-16 14,-16 21,-7 183,149 183,350 148,436 -6,7 -46,41 -39,2z"/>
  <path class="fil0" d="M975 483c0,110 -177,166 -248,167 -49,1 -129,-72 -60,-69 80,4 259,-37 253,-122l0 0 -11 -390c-1,-21 -1,-26 12,-36l36 -29c10,-8 18,-4 18,9l0 470 0 0z"/>
 </g>
 <g id="Layer_x0020_1" visibility="hidden">
  <metadata id="CorelCorpID_1Corel-Layer"/>
  <path class="fil0" d="M678 664c-33,-4 -42,-55 -45,-76 -4,-27 14,-17 28,-16 160,13 282,-44 314,-166l0 96c0,98 -162,175 -297,162z"/>
  <path class="fil1" d="M786 519c-6,-80 -63,-243 -177,-298 -14,-7 -14,-11 -14,-24l3 -43c1,-16 9,-18 20,-12 191,102 207,309 192,376 -2,8 -19,16 -24,1z"/>
  <path class="fil1" d="M929 569l-19 -488c-1,-21 0,-25 11,-37l35 -35c15,-16 19,-9 19,7l0 471c0,15 -7,77 -31,94 -8,5 -15,4 -15,-12z"/>
 </g>
 <g id="Layer_x0020_2">
  <metadata id="CorelCorpID_2Corel-Layer"/>
  <path class="fil2" d="M650 713l-23 -86c46,-5 88,-10 127,-21 -47,-187 -55,-231 -202,-401l57 -59c147,171 156,214 211,434 32,-17 62,-40 89,-72 0,-158 0,-316 0,-473l74 -35 0 432c0,2 0,5 0,7l0 92c-34,124 -218,181 -333,182z"/>
 </g>
</svg>
