<?xml version="1.0" encoding="UTF-8"?>
<!DOCTYPE svg PUBLIC "-//W3C//DTD SVG 1.0//EN" "http://www.w3.org/TR/2001/REC-SVG-20010904/DTD/svg10.dtd">
<!-- Creator: CorelDRAW -->
<svg xmlns="http://www.w3.org/2000/svg" xml:space="preserve" width="1300px" height="1300px" version="1.0" style="shape-rendering:geometricPrecision; text-rendering:geometricPrecision; image-rendering:optimizeQuality; fill-rule:evenodd; clip-rule:evenodd"
viewBox="0 0 1300 1056"
 xmlns:xlink="http://www.w3.org/1999/xlink">
 <defs>
  <style type="text/css">
   <![CDATA[
    .fil0 {fill:black;fill-opacity:0.501961}
    .fil2 {fill:#663333;fill-opacity:0.501961}
    .fil4 {fill:#336699}
    .fil3 {fill:#663333}
    .fil1 {fill:#99CCCC}
   ]]>
  </style>
 </defs>
 <g id="_100:master" visibility="hidden">
  <metadata id="CorelCorpID_0Corel-Layer"/>
  <path class="fil0" d="M913 518l-9 -410c-1,-52 -3,-57 29,-84l19 -16c13,-12 23,-11 23,9l0 500c2,36 51,52 124,52l0 81c-88,0 -136,-24 -160,-56 -29,33 -86,56 -177,56l2 -81c48,0 146,-6 149,-51z"/>
  <path class="fil1" d="M763 650l0 -81c-20,0 -40,19 -40,40 0,21 20,41 40,41z"/>
 </g>
 <g id="Layer_x0020_1" visibility="hidden">
  <metadata id="CorelCorpID_1Corel-Layer"/>
  <path class="fil2" d="M976 554l-52 -8 -14 -477c-1,-21 -1,-26 12,-36l36 -29c10,-8 18,-4 18,9l0 541z"/>
  <path class="fil1" d="M773 650l0 -81c-21,0 -41,19 -41,40 0,21 20,41 41,41z"/>
  <path class="fil3" d="M1098 569l0 81 -6 0c-23,0 -125,0 -172,-65l35 -49c17,11 54,33 143,33z"/>
  <path class="fil3" d="M954 521l-25 13c-16,11 -51,35 -145,35l-11 0 0 81 17 0c24,0 137,0 180,-77l-16 -52z"/>
 </g>
 <g id="Layer_x0020_2" visibility="hidden">
  <metadata id="CorelCorpID_2Corel-Layer"/>
  <path class="fil4" d="M976 548l-44 -34 0 0c-3,15 -13,28 -33,36 -23,10 -59,19 -117,19l-25 0 0 81 0 0 0 0 32 0c20,0 104,0 155,-46 51,46 127,46 147,46l0 -81c-59,-1 -94,-11 -115,-21z"/>
  <path class="fil1" d="M757 650l0 -81c-20,0 -40,19 -40,40 -1,21 20,41 40,41z"/>
  <path class="fil2" d="M975 585l-46 -11c-1,-32 -3,-63 -4,-87l-17 -418c0,-21 6,-31 17,-40l33 -26c2,-3 17,-7 17,7l0 575z"/>
 </g>
 <g id="Layer_x0020_3" visibility="hidden">
  <metadata id="CorelCorpID_3Corel-Layer"/>
  <path class="fil1" d="M767 650l0 -81c-21,0 -41,19 -41,40 0,21 20,41 41,41z"/>
  <path class="fil3" d="M971 555l-10 -42 -36 20c-23,17 -73,36 -159,36l0 81c84,0 178,-15 205,-95z"/>
  <path class="fil2" d="M975 554l-50 -9 -15 -464c-1,-21 0,-25 11,-37l35 -35c15,-16 19,-9 19,7l0 434 0 104z"/>
  <path class="fil2" d="M965 529l-47 52c35,54 99,69 190,69l0 -81c-74,0 -118,-9 -143,-40z"/>
 </g>
 <g id="Layer_x0020_4">
  <metadata id="CorelCorpID_4Corel-Layer"/>
  <path class="fil3" d="M983 528c17,30 47,41 98,41l0 81c-65,0 -108,-13 -137,-42 -41,34 -109,42 -175,42 -20,0 -41,-20 -41,-41 1,-21 21,-40 41,-40 56,0 101,-5 140,-19l0 -515 74 -35 0 528z"/>
 </g>
</svg>
