<?xml version="1.0" encoding="UTF-8"?>
<!DOCTYPE svg PUBLIC "-//W3C//DTD SVG 1.0//EN" "http://www.w3.org/TR/2001/REC-SVG-20010904/DTD/svg10.dtd">
<!-- Creator: CorelDRAW -->
<svg xmlns="http://www.w3.org/2000/svg" xml:space="preserve" width="1300px" height="1300px" version="1.0" style="shape-rendering:geometricPrecision; text-rendering:geometricPrecision; image-rendering:optimizeQuality; fill-rule:evenodd; clip-rule:evenodd"
viewBox="0 0 1300 1056"
 xmlns:xlink="http://www.w3.org/1999/xlink">
 <defs>
  <style type="text/css">
   <![CDATA[
    .fil12 {fill:#1A1A1A;fill-opacity:0.501961}
    .fil3 {fill:#33CC99;fill-opacity:0.501961}
    .fil5 {fill:#663333;fill-opacity:0.501961}
    .fil2 {fill:#6666FF;fill-opacity:0.501961}
    .fil7 {fill:#6699FF;fill-opacity:0.501961}
    .fil9 {fill:#996633;fill-opacity:0.501961}
    .fil4 {fill:#FF6633;fill-opacity:0.501961}
    .fil1 {fill:#FF9933;fill-opacity:0.501961}
    .fil10 {fill:#FF99CC;fill-opacity:0.501961}
    .fil0 {fill:gray}
    .fil8 {fill:red}
    .fil11 {fill:#FF6600}
    .fil6 {fill:yellow}
   ]]>
  </style>
 </defs>
 <g id="_100:master" visibility="hidden">
  <metadata id="CorelCorpID_0Corel-Layer"/>
  <path class="fil0" d="M1120 650l0 -81c-131,0 -155,-86 -201,-210 -8,-23 -22,-14 -31,5l-24 48c62,154 84,238 256,238z"/>
  <path class="fil1" d="M1001 551l-56 -13c-30,187 -190,82 -117,-102l-68 35c-93,246 189,368 241,80z"/>
  <path class="fil2" d="M668 532c-50,30 -52,77 -50,128l12 297c0,14 6,20 22,10 24,-16 49,-28 46,-57l-26 -328 -4 -50z"/>
  <path class="fil3" d="M894 458l8 -76c-232,61 -301,89 -284,266 1,-5 9,-3 11,-6 7,-7 11,-16 15,-25 9,-18 5,-52 23,-67 38,-30 107,-51 227,-92z"/>
 </g>
 <g id="Layer_x0020_1" visibility="hidden">
  <metadata id="CorelCorpID_1Corel-Layer"/>
  <path class="fil4" d="M1039 641l-10 -57c-74,-7 -144,79 -163,67 -40,-24 -45,-116 -48,-183l-72 27c7,77 14,191 68,224 18,10 40,16 57,8 49,-24 126,-97 161,-88l7 2z"/>
  <path class="fil0" d="M1120 650l0 -81c-104,0 -141,-54 -174,-138 -6,-15 -8,-25 -81,-18 62,154 83,237 255,237z"/>
  <path class="fil3" d="M910 411c-211,11 -325,60 -308,207 15,-82 152,-126 324,-131l-16 -76z"/>
  <path class="fil5" d="M601 580l59 -55c0,98 6,224 23,383 2,21 2,25 -21,44l-19 17c-14,11 -22,6 -23,-9 -18,-155 -21,-286 -19,-380z"/>
 </g>
 <g id="Layer_x0020_2" visibility="hidden">
  <metadata id="CorelCorpID_2Corel-Layer"/>
  <path class="fil6" d="M645 723c102,-171 128,-164 216,-252 33,-32 91,179 269,179l0 -81c-163,0 -194,-268 -295,-171 -139,135 -193,162 -192,237l2 88z"/>
  <path class="fil1" d="M814 503l-11 -67c-24,17 -43,47 -55,96 -19,77 66,163 113,183 65,30 129,-77 171,-154l-45 -18c-20,33 -52,108 -99,83 -45,-25 -96,-93 -74,-123z"/>
  <path class="fil5" d="M702 553c0,20 1,21 2,43 2,86 9,189 22,312 2,21 2,25 -21,44l-19 17c-14,11 -22,6 -23,-9 -14,-126 -19,-235 -20,-322 0,-39 37,-69 59,-85z"/>
 </g>
 <g id="Layer_x0020_3" visibility="hidden">
  <metadata id="CorelCorpID_3Corel-Layer"/>
  <path class="fil1" d="M834 490l17 -71c-45,0 -87,28 -113,101 -27,75 35,187 80,212 69,41 120,-59 185,-124l-41 -33c-52,59 -72,97 -107,71 -52,-36 -87,-158 -21,-156z"/>
  <path class="fil2" d="M619 648l15 34c0,-98 186,-190 211,-195 45,-8 116,163 295,163l0 -81c-134,0 -202,-180 -282,-161 -127,31 -241,128 -239,240z"/>
  <path class="fil5" d="M679 553c0,20 1,21 1,43 3,86 10,189 22,312 2,21 2,25 -21,44l-19 17c-13,11 -21,6 -23,-9 -14,-126 -19,-235 -19,-322l59 -85z"/>
 </g>
 <g id="Layer_x0020_4" visibility="hidden">
  <metadata id="CorelCorpID_4Corel-Layer"/>
  <path class="fil1" d="M884 411c-46,0 -87,44 -114,117 -27,75 36,188 81,212 68,42 120,-59 184,-124l-40 -33c-52,59 -73,97 -108,71 -48,-33 -80,-152 -35,-170 26,-11 24,-41 32,-73z"/>
  <path class="fil2" d="M644 589l2 69c0,-20 19,-39 34,-55 46,-50 185,-115 206,-116 44,0 43,163 246,163l0 -81 -11 0c-106,0 -138,-70 -169,-127 -22,-39 -43,-54 -91,-32 -178,81 -219,132 -217,179z"/>
  <path class="fil7" d="M699 543l20 314c2,21 5,23 -10,37l-31 27c-13,12 -23,8 -23,-8l-11 -322 55 -48z"/>
 </g>
 <g id="Layer_x0020_5" visibility="hidden">
  <metadata id="CorelCorpID_5Corel-Layer"/>
  <path class="fil0" d="M1028 650l8 0 0 -81 -8 0c-105,0 -163,-37 -202,-114 -3,-6 -8,-9 -14,-8l-22 2c22,152 108,201 238,201z"/>
  <path class="fil7" d="M618 543l20 314c1,21 -2,29 -11,37l-34 30c-12,10 -19,5 -19,-11l-12 -322 56 -48z"/>
  <path class="fil2" d="M812 528l0 -81c-84,8 -254,23 -250,142l2 42c3,-90 178,-94 248,-103z"/>
  <path class="fil1" d="M784 523l-29 -68c-86,195 -24,317 73,317 50,0 109,-48 116,-163l-38 -6c-4,47 -46,86 -77,87 -33,0 -83,-40 -45,-167z"/>
 </g>
 <g id="Layer_x0020_6" visibility="hidden">
  <metadata id="CorelCorpID_6Corel-Layer"/>
  <path class="fil0" d="M1031 650l8 0 0 -81 -8 0c-104,0 -150,-55 -188,-157 -3,-6 -8,-9 -14,-8l-30 4c6,152 91,242 232,242z"/>
  <path class="fil7" d="M618 543l20 314c1,21 -2,29 -11,37l-34 30c-12,10 -19,5 -19,-11l-12 -322 56 -48z"/>
  <path class="fil2" d="M812 487l0 -81c-84,9 -254,72 -250,191l2 42c3,-90 178,-143 248,-152z"/>
  <path class="fil1" d="M772 471l-21 -48c-157,288 66,425 141,285l52 -99 -46 -14 -35 60c-37,64 -148,-31 -91,-184z"/>
 </g>
 <g id="Layer_x0020_7" visibility="hidden">
  <metadata id="CorelCorpID_7Corel-Layer"/>
  <path class="fil8" d="M1069 569l0 81 -6 0c-61,0 -106,-13 -142,-42 -72,-56 -82,-128 -92,-153l-10 -65c43,-11 46,20 68,58 30,55 62,121 178,121l4 0z"/>
  <path class="fil1" d="M807 458l-21 -49c-156,289 60,408 134,268l49 -90 -47 -15 -34 60c-38,64 -137,-21 -81,-174z"/>
  <path class="fil2" d="M837 471l-18 -81c-153,49 -222,117 -222,196l0 29c17,-52 118,-111 240,-144z"/>
  <path class="fil5" d="M597 586l39 -64 21 290c2,23 -9,41 -41,85 -13,17 -19,9 -19,-8l0 -303z"/>
 </g>
 <g id="Layer_x0020_8" visibility="hidden">
  <metadata id="CorelCorpID_8Corel-Layer"/>
  <path class="fil8" d="M1090 569l0 81c-205,0 -233,-87 -275,-275 32,-10 65,-1 71,31 24,146 102,163 204,163z"/>
  <path class="fil1" d="M970 593l-26 -14c-25,49 -67,70 -105,70 -50,1 -79,-105 -7,-212l-12 -55c-146,179 -111,349 3,350 52,0 126,-64 147,-139z"/>
  <path class="fil2" d="M837 455l-22 -80c-202,82 -218,121 -218,200l0 56c4,-95 81,-114 240,-176z"/>
  <path class="fil5" d="M597 575l39 -65 21 291c2,22 -9,41 -41,84 -13,18 -19,9 -19,-7l0 -303z"/>
 </g>
 <g id="Layer_x0020_9" visibility="hidden">
  <metadata id="CorelCorpID_9Corel-Layer"/>
  <path class="fil9" d="M829 422l-72 6c-43,59 -49,211 10,259 58,48 135,5 208,-79l-49 -56c-15,18 -50,65 -102,68 -39,-27 -18,-156 5,-198z"/>
  <path class="fil10" d="M909 449l-13 -79c-230,69 -316,118 -316,194l0 74c21,-85 184,-151 329,-189z"/>
  <path class="fil11" d="M1087 569l0 81c-112,0 -166,-29 -186,-126l-38 -174 72 -33 40 187c12,57 48,65 112,65z"/>
  <polygon class="fil12" points="580,927 580,571 654,536 654,892 "/>
 </g>
 <g id="Layer_x0020_10">
  <metadata id="CorelCorpID_10Corel-Layer"/>
  <path class="fil1" d="M728 497c-39,14 -76,29 -106,46l0 349 -74 35 0 -356 0 0 0 -24c-1,-74 98,-107 320,-174l-5 -23 72 -33 40 187c12,57 48,65 112,65l0 81c-43,0 -77,-4 -104,-15l-73 75c-48,48 -90,43 -121,24 -73,-44 -89,-153 -61,-237zm199 94c-12,-18 -20,-39 -26,-67l-16 -73c-19,5 -38,11 -58,16l-6 9c-28,31 -45,155 11,189 10,6 25,-5 40,-19l55 -55z"/>
 </g>
</svg>
