<?xml version="1.0" encoding="UTF-8"?>
<!DOCTYPE svg PUBLIC "-//W3C//DTD SVG 1.0//EN" "http://www.w3.org/TR/2001/REC-SVG-20010904/DTD/svg10.dtd">
<!-- Creator: CorelDRAW -->
<svg xmlns="http://www.w3.org/2000/svg" xml:space="preserve" width="1300px" height="1300px" version="1.0" style="shape-rendering:geometricPrecision; text-rendering:geometricPrecision; image-rendering:optimizeQuality; fill-rule:evenodd; clip-rule:evenodd"
viewBox="0 0 1300 1056"
 xmlns:xlink="http://www.w3.org/1999/xlink">
 <defs>
  <style type="text/css">
   <![CDATA[
    .fil0 {fill:#FF6600}
   ]]>
  </style>
 </defs>
 <g id="Layer_x0020_16">
  <metadata id="CorelCorpID_0Corel-Layer"/>
  <path class="fil0" d="M977 504c13,57 49,65 112,65l0 81c-61,0 -105,-9 -135,-32 -16,20 -39,32 -70,32 -36,-1 -121,-22 -151,-46l-14 -39c-35,57 -79,85 -182,85l0 0 0 0 0 0c-20,-1 -40,-20 -40,-41 0,-20 20,-40 40,-40l0 0c96,0 109,-12 144,-87l47 -99c20,-43 60,-64 96,-58 81,14 143,93 153,179zm-73 24l0 -1c-11,-49 -47,-113 -96,-122 -11,-2 -13,6 -22,24l-35 75c-2,5 -5,9 -7,14l5 3c44,28 115,48 156,48 3,-10 3,-25 -1,-41z"/>
 </g>
</svg>
