<?xml version="1.0" encoding="UTF-8"?>
<!DOCTYPE svg PUBLIC "-//W3C//DTD SVG 1.0//EN" "http://www.w3.org/TR/2001/REC-SVG-20010904/DTD/svg10.dtd">
<!-- Creator: CorelDRAW -->
<svg xmlns="http://www.w3.org/2000/svg" xml:space="preserve" width="1300px" height="1300px" version="1.0" style="shape-rendering:geometricPrecision; text-rendering:geometricPrecision; image-rendering:optimizeQuality; fill-rule:evenodd; clip-rule:evenodd"
viewBox="0 0 1300 1056"
 xmlns:xlink="http://www.w3.org/1999/xlink">
 <defs>
  <style type="text/css">
   <![CDATA[
    .fil0 {fill:#FF9933;fill-opacity:0.501961}
   ]]>
  </style>
 </defs>
 <g id="Layer_x0020_16">
  <metadata id="CorelCorpID_0Corel-Layer"/>
  <path class="fil0" d="M747 518c44,28 106,50 148,51 15,-39 -14,-160 -79,-172 -11,-2 -21,14 -30,32l-39 89zm129 132c-36,-1 -114,-25 -145,-49l-8 -34c-42,71 -88,83 -186,83l0 0 0 0 0 0c-20,-1 -40,-20 -40,-41 0,-20 20,-40 40,-40l0 0c92,0 114,-10 148,-87l43 -99c27,-62 68,-72 104,-66 78,13 130,97 140,180 13,53 29,70 109,72l0 81c-53,0 -96,-7 -128,-36 -16,26 -40,36 -77,36z"/>
 </g>
</svg>
