<?xml version="1.0" encoding="UTF-8"?>
<!DOCTYPE svg PUBLIC "-//W3C//DTD SVG 1.0//EN" "http://www.w3.org/TR/2001/REC-SVG-20010904/DTD/svg10.dtd">
<!-- Creator: CorelDRAW -->
<svg xmlns="http://www.w3.org/2000/svg" xml:space="preserve" width="1300px" height="1300px" version="1.0" style="shape-rendering:geometricPrecision; text-rendering:geometricPrecision; image-rendering:optimizeQuality; fill-rule:evenodd; clip-rule:evenodd"
viewBox="0 0 1300 1056"
 xmlns:xlink="http://www.w3.org/1999/xlink">
 <defs>
  <style type="text/css">
   <![CDATA[
    .fil0 {fill:black;fill-opacity:0.501961}
    .fil11 {fill:#1A1A1A;fill-opacity:0.501961}
    .fil6 {fill:#663333;fill-opacity:0.501961}
    .fil9 {fill:#666633;fill-opacity:0.501961}
    .fil3 {fill:#6666FF;fill-opacity:0.501961}
    .fil7 {fill:#996633;fill-opacity:0.501961}
    .fil4 {fill:#999933;fill-opacity:0.501961}
    .fil2 {fill:red;fill-opacity:0.501961}
    .fil1 {fill:#FF0066;fill-opacity:0.501961}
    .fil5 {fill:#FF9933;fill-opacity:0.501961}
    .fil8 {fill:#FF99CC;fill-opacity:0.501961}
    .fil10 {fill:#9900CC}
   ]]>
  </style>
 </defs>
 <g id="_100:master" visibility="hidden">
  <metadata id="CorelCorpID_0Corel-Layer"/>
  <path class="fil0" d="M870 513l41 -73c8,-78 -69,-203 -156,-188 -43,7 -79,127 -96,182l36 28c8,-35 34,-121 63,-127 46,-10 128,105 112,178z"/>
  <path class="fil1" d="M608 543c42,-52 244,-44 287,-23l16 -80c-55,-19 -379,-64 -364,150l27 385 48 -20 -14 -412z"/>
 </g>
 <g id="Layer_x0020_1" visibility="hidden">
  <metadata id="CorelCorpID_1Corel-Layer"/>
  <path class="fil0" d="M867 523l22 -85c-133,-63 -207,24 -199,125l33 404c0,7 3,9 10,9 64,-36 54,-41 53,-81l-43 -368c11,-17 47,-33 124,-4z"/>
  <path class="fil0" d="M866 522c41,23 96,47 142,47 55,-1 90,-52 92,-104 15,-141 -130,-287 -203,-158 -24,43 -40,77 -55,103l-8 15 32 97zm16 -88c11,-20 22,-43 37,-67 28,-46 113,18 132,111 -67,18 -139,-29 -169,-44z"/>
 </g>
 <g id="Layer_x0020_2" visibility="hidden">
  <metadata id="CorelCorpID_2Corel-Layer"/>
  <path class="fil2" d="M957 484l44 -28c25,-73 -178,-277 -252,-102l-34 78 23 38 41 -81c39,-76 156,41 178,95z"/>
  <path class="fil3" d="M629 576l-53 35 33 356c0,7 4,9 10,9 65,-36 54,-41 54,-81l-44 -319z"/>
  <path class="fil4" d="M576 611l53 -35c28,-27 73,-37 103,-37 66,-1 110,29 163,29 66,1 122,-99 105,-146 -23,37 -55,65 -96,65 -37,0 -97,-33 -173,-32 -61,1 -166,37 -155,156z"/>
 </g>
 <g id="Layer_x0020_3" visibility="hidden">
  <metadata id="CorelCorpID_3Corel-Layer"/>
  <path class="fil2" d="M906 552l42 -15c67,-111 -154,-287 -205,-144l-33 96 22 37 32 -78c24,-61 139,40 142,104z"/>
  <path class="fil4" d="M610 692l62 17c-2,-55 -23,-94 60,-100 77,-5 173,6 217,-74 14,-25 18,-39 0,-84 -9,15 -22,3 -34,21 -44,64 -110,51 -183,56 -114,8 -134,75 -122,164z"/>
  <path class="fil3" d="M661 574l-53 61 12 322c0,14 6,20 22,10 24,-16 49,-28 47,-57l-28 -336z"/>
 </g>
 <g id="Layer_x0020_6" visibility="hidden">
  <metadata id="CorelCorpID_4Corel-Layer"/>
  <path class="fil5" d="M951 487c-109,-11 -301,-54 -301,117l0 45c0,-12 9,14 11,4 25,-133 177,-96 273,-84l17 -82z"/>
  <path class="fil6" d="M706 555l-56 65 0 257c0,17 4,23 19,8l34 -35c12,-12 13,-16 12,-38l-9 -257z"/>
  <path class="fil6" d="M975 479c0,17 -15,8 -24,8l-17 82c49,0 90,-57 90,-131 0,-72 -80,-162 -163,-162 -59,0 -106,44 -99,138l7 73 49 10 -6 -71c-3,-48 12,-68 41,-69 48,0 122,74 122,122z"/>
 </g>
 <g id="Layer_x0020_7" visibility="hidden">
  <metadata id="CorelCorpID_5Corel-Layer"/>
  <path class="fil6" d="M925 489c15,-76 -86,-163 -165,-163 -59,-1 -85,133 -87,181l26 8c9,-58 28,-105 50,-105 31,0 138,37 137,113 11,3 23,-15 39,-34z"/>
  <path class="fil6" d="M624 555l-56 65 0 257c0,17 4,23 19,8l34 -35c12,-12 13,-16 12,-38l-9 -257z"/>
  <path class="fil6" d="M850 601c41,0 83,-82 76,-127l-49 38c-48,40 -333,-119 -308,154 0,-130 206,-65 281,-65z"/>
 </g>
 <g id="Layer_x0020_8" visibility="hidden">
  <metadata id="CorelCorpID_6Corel-Layer"/>
  <path class="fil7" d="M563 625l0 281c1,12 11,12 19,3l35 -35c11,-12 12,-16 11,-37l-9 -278 -56 66z"/>
  <path class="fil8" d="M950 554l20 -80c-70,86 -186,32 -278,29 -60,-1 -129,17 -129,122l0 42c25,-56 62,-81 109,-81 97,-2 219,59 278,-32z"/>
  <path class="fil9" d="M677 514l38 22c8,-43 17,-173 87,-153 42,13 112,59 124,105 6,22 -8,26 -42,33l-1 75c65,-4 101,-84 93,-143 -10,-71 -94,-145 -162,-153 -115,-15 -126,134 -137,214z"/>
 </g>
 <g id="Layer_x0020_9" visibility="hidden">
  <metadata id="CorelCorpID_7Corel-Layer"/>
  <path class="fil5" d="M727 620c31,15 97,30 133,30 79,0 134,-44 124,-138 -8,-82 -75,-186 -177,-187 -37,-1 -81,18 -95,64l-29 103 44 128zm16 -83l35 -109c6,-19 14,-22 26,-22 46,0 102,75 107,123 2,19 -9,34 -24,38 -39,10 -112,-15 -144,-30z"/>
  <path class="fil10" d="M701 612c-59,-19 -100,5 -116,70l-29 -39c-1,-112 79,-136 163,-110l78 24 -19 81 -77 -26z"/>
  <polygon class="fil11" points="556,927 556,636 630,602 630,892 "/>
 </g>
 <g id="Layer_x0020_10" visibility="hidden">
  <metadata id="CorelCorpID_8Corel-Layer"/>
  <path class="fil5" d="M639 539l65 31c11,-17 20,-36 31,-58l34 -75c9,-18 12,-26 23,-24 65,12 109,124 97,164l-21 81c50,0 81,-33 91,-81 21,-109 -50,-226 -151,-244 -36,-6 -76,15 -97,58l-46 99c-10,21 -18,37 -26,49z"/>
  <path class="fil5" d="M732 529l-60 -45 44 128c31,24 116,45 152,46l21 -81c-41,0 -112,-20 -157,-48z"/>
  <path class="fil10" d="M699 606c-57,-25 -98,11 -114,76l-29 -39c-1,-112 80,-150 161,-117l80 34 -19 80 -79 -34z"/>
  <polygon class="fil11" points="556,927 556,636 630,602 630,892 "/>
 </g>
 <g id="Layer_x0020_11">
  <metadata id="CorelCorpID_9Corel-Layer"/>
  <path class="fil5" d="M890 606l-184 -1c-27,0 -54,4 -76,15l0 272 -74 35 -1 -289c-3,-57 35,-92 90,-106l23 -158c9,-67 53,-84 90,-85 102,-3 210,120 207,220 -1,62 -22,88 -75,98l0 -1zm2 -82c7,-41 -69,-155 -135,-154 -11,1 -14,18 -19,38l-16 116 170 0 0 0z"/>
 </g>
</svg>
