<?xml version="1.0" encoding="UTF-8"?>
<!DOCTYPE svg PUBLIC "-//W3C//DTD SVG 1.0//EN" "http://www.w3.org/TR/2001/REC-SVG-20010904/DTD/svg10.dtd">
<!-- Creator: CorelDRAW -->
<svg xmlns="http://www.w3.org/2000/svg" xml:space="preserve" width="1300px" height="1300px" version="1.0" style="shape-rendering:geometricPrecision; text-rendering:geometricPrecision; image-rendering:optimizeQuality; fill-rule:evenodd; clip-rule:evenodd"
viewBox="0 0 1300 1056"
 xmlns:xlink="http://www.w3.org/1999/xlink">
 <defs>
  <style type="text/css">
   <![CDATA[
    .fil0 {fill:#1A1A1A;fill-opacity:0.501961}
   ]]>
  </style>
 </defs>
 <g id="_100:master">
  <metadata id="CorelCorpID_0Corel-Layer"/>
  <path class="fil0" d="M724 612l-74 33c0,-214 -9,-318 -49,-529l74 -35c14,73 24,133 31,190 14,3 28,5 40,5 32,1 71,-15 84,-24l-1 -110 74 -35 0 136c0,10 -1,20 -4,29 12,3 23,4 33,4 33,1 72,-15 84,-24l0 -110 74 -35 0 136c0,80 -91,115 -160,115 -31,0 -66,-7 -93,-21 -37,18 -81,24 -122,19 7,77 9,155 9,256z"/>
 </g>
</svg>
