<?xml version="1.0" encoding="UTF-8"?>
<!DOCTYPE svg PUBLIC "-//W3C//DTD SVG 1.0//EN" "http://www.w3.org/TR/2001/REC-SVG-20010904/DTD/svg10.dtd">
<!-- Creator: CorelDRAW -->
<svg xmlns="http://www.w3.org/2000/svg" xml:space="preserve" width="1300px" height="1300px" version="1.0" style="shape-rendering:geometricPrecision; text-rendering:geometricPrecision; image-rendering:optimizeQuality; fill-rule:evenodd; clip-rule:evenodd"
viewBox="0 0 1300 1056"
 xmlns:xlink="http://www.w3.org/1999/xlink">
 <defs>
  <style type="text/css">
   <![CDATA[
    .fil0 {fill:#006633}
   ]]>
  </style>
 </defs>
 <g id="_100:master">
  <metadata id="CorelCorpID_0Corel-Layer"/>
  <path class="fil0" d="M787 389l67 -67c18,-18 48,-18 66,0l66 67c19,18 19,48 0,66l-66 67c-18,18 -48,18 -66,0l-67 -67c-18,-18 -18,-48 0,-66zm59 20l27 -27c8,-8 20,-8 27,0l27 27c7,7 7,19 0,26l-27 27c-7,8 -19,8 -27,0l-27 -27c-7,-7 -7,-19 0,-26z"/>
 </g>
</svg>
