<?xml version="1.0" encoding="UTF-8"?>
<!DOCTYPE svg PUBLIC "-//W3C//DTD SVG 1.0//EN" "http://www.w3.org/TR/2001/REC-SVG-20010904/DTD/svg10.dtd">
<!-- Creator: CorelDRAW -->
<svg xmlns="http://www.w3.org/2000/svg" xml:space="preserve" width="1300px" height="1300px" version="1.0" style="shape-rendering:geometricPrecision; text-rendering:geometricPrecision; image-rendering:optimizeQuality; fill-rule:evenodd; clip-rule:evenodd"
viewBox="0 0 1300 1056"
 xmlns:xlink="http://www.w3.org/1999/xlink">
 <defs>
  <style type="text/css">
   <![CDATA[
    .fil0 {fill:#FF6600}
   ]]>
  </style>
 </defs>
 <g id="_100:master">
  <metadata id="CorelCorpID_0Corel-Layer"/>
  <path class="fil0" d="M954 516c15,40 46,53 104,53l31 0 0 81 -31 0c-34,0 -62,-3 -85,-11 2,28 2,54 0,74 -17,116 -201,180 -323,180 -156,1 -252,-116 -155,-372l41 13c-62,188 0,278 114,278 82,0 206,-37 257,-81 3,-19 -17,-171 -56,-283l75 -35c11,32 20,68 28,103z"/>
 </g>
</svg>
