<?xml version="1.0" encoding="UTF-8"?>
<!DOCTYPE svg PUBLIC "-//W3C//DTD SVG 1.0//EN" "http://www.w3.org/TR/2001/REC-SVG-20010904/DTD/svg10.dtd">
<!-- Creator: CorelDRAW -->
<svg xmlns="http://www.w3.org/2000/svg" xml:space="preserve" width="1300px" height="1300px" version="1.0" style="shape-rendering:geometricPrecision; text-rendering:geometricPrecision; image-rendering:optimizeQuality; fill-rule:evenodd; clip-rule:evenodd"
viewBox="0 0 1300 1056"
 xmlns:xlink="http://www.w3.org/1999/xlink">
 <defs>
  <style type="text/css">
   <![CDATA[
    .fil0 {fill:#FF99CC;fill-opacity:0.501961}
   ]]>
  </style>
 </defs>
 <g id="_100:master">
  <metadata id="CorelCorpID_0Corel-Layer"/>
  <path class="fil0" d="M734 536c51,44 181,29 208,12 43,-27 8,102 -123,102 -94,0 -133,-54 -134,-139 -1,-47 34,-95 84,-130 -64,-21 -120,-55 -121,-108 2,-78 83,-143 246,-192 29,-15 -13,70 -21,88 -64,18 -122,54 -152,91 42,43 135,63 179,65 3,-1 6,-1 8,-2 2,0 4,1 5,2 27,4 14,36 -2,60 -4,11 -10,20 -17,21 -73,15 -145,81 -160,130z"/>
 </g>
</svg>
