<?xml version="1.0" encoding="UTF-8"?>
<!DOCTYPE svg PUBLIC "-//W3C//DTD SVG 1.0//EN" "http://www.w3.org/TR/2001/REC-SVG-20010904/DTD/svg10.dtd">
<!-- Creator: CorelDRAW -->
<svg xmlns="http://www.w3.org/2000/svg" xml:space="preserve" width="1300px" height="1300px" version="1.0" style="shape-rendering:geometricPrecision; text-rendering:geometricPrecision; image-rendering:optimizeQuality; fill-rule:evenodd; clip-rule:evenodd"
viewBox="0 0 1300 1056"
 xmlns:xlink="http://www.w3.org/1999/xlink">
 <defs>
  <style type="text/css">
   <![CDATA[
    .fil0 {fill:#9900CC;fill-opacity:0.501961}
   ]]>
  </style>
 </defs>
 <g id="_100:master">
  <metadata id="CorelCorpID_0Corel-Layer"/>
  <path class="fil0" d="M428 234c3,-133 66,-152 150,-152l92 0c16,0 39,11 42,29l10 52 0 0c27,163 35,269 35,454l-74 33c0,-108 -3,-188 -10,-267l-96 0c-76,0 -152,-15 -149,-149zm214 -71l-65 -1c-41,0 -62,10 -62,72 -1,62 13,67 54,67l95 -1c-6,-42 -13,-87 -22,-137z"/>
 </g>
</svg>
