<?xml version="1.0" encoding="UTF-8"?>
<!DOCTYPE svg PUBLIC "-//W3C//DTD SVG 1.0//EN" "http://www.w3.org/TR/2001/REC-SVG-20010904/DTD/svg10.dtd">
<!-- Creator: CorelDRAW -->
<svg xmlns="http://www.w3.org/2000/svg" xml:space="preserve" width="1300px" height="1300px" version="1.0" style="shape-rendering:geometricPrecision; text-rendering:geometricPrecision; image-rendering:optimizeQuality; fill-rule:evenodd; clip-rule:evenodd"
viewBox="0 0 1300 1056"
 xmlns:xlink="http://www.w3.org/1999/xlink">
 <defs>
  <style type="text/css">
   <![CDATA[
    .fil0 {fill:#996633}
   ]]>
  </style>
 </defs>
 <g id="Layer_x0020_2">
  <metadata id="CorelCorpID_0Corel-Layer"/>
  <path class="fil0" d="M802 650l0 0c-70,0 -135,-30 -135,-116 1,-99 50,-197 134,-203l0 0 3 0 5 0 0 0c97,7 150,120 163,238l84 0 0 81 -81 0c0,23 0,43 -1,63 -16,116 -200,180 -323,180 -155,1 -252,-116 -154,-372l41 13c-63,188 0,278 113,278 79,0 195,-34 250,-74 4,-27 4,-58 4,-88l-103 0zm3 -81l94 0c-14,-84 -55,-152 -94,-157 -32,5 -69,63 -69,114 -2,32 31,42 69,43z"/>
 </g>
</svg>
