<?xml version="1.0" encoding="UTF-8"?>
<!DOCTYPE svg PUBLIC "-//W3C//DTD SVG 1.0//EN" "http://www.w3.org/TR/2001/REC-SVG-20010904/DTD/svg10.dtd">
<!-- Creator: CorelDRAW -->
<svg xmlns="http://www.w3.org/2000/svg" xml:space="preserve" width="1300px" height="1300px" version="1.0" style="shape-rendering:geometricPrecision; text-rendering:geometricPrecision; image-rendering:optimizeQuality; fill-rule:evenodd; clip-rule:evenodd"
viewBox="0 0 1300 1056"
 xmlns:xlink="http://www.w3.org/1999/xlink">
 <defs>
  <style type="text/css">
   <![CDATA[
    .fil0 {fill:#99CC33;fill-opacity:0.501961}
    .fil1 {fill:#999966;fill-opacity:0.549020}
    .fil4 {fill:#6666CC}
    .fil6 {fill:#9900CC}
    .fil3 {fill:#999966}
    .fil5 {fill:red}
    .fil2 {fill:#FFCC99}
   ]]>
  </style>
 </defs>
 <g id="_100:master" visibility="hidden">
  <metadata id="CorelCorpID_0Corel-Layer"/>
  <path class="fil0" d="M826 642l0 -81c-33,0 -80,-9 -67,-72l-52 31c-7,57 29,122 119,122z"/>
  <path class="fil1" d="M916 717l62 -51c-16,325 -679,338 -466,-185 3,-8 10,-13 18,-10l24 10c5,2 9,10 6,19 -150,384 278,354 356,217z"/>
  <path class="fil2" d="M916 717l62 -51c10,-89 -33,-333 -138,-333 -59,0 -130,92 -133,187l52 -31c7,-37 33,-75 69,-74 51,1 88,140 92,235 1,22 0,53 -4,67z"/>
  <path class="fil3" d="M948 512l14 74c-43,36 -78,56 -136,56l0 -81c44,0 89,-21 122,-49z"/>
 </g>
 <g id="Layer_x0020_1" visibility="hidden">
  <metadata id="CorelCorpID_1Corel-Layer"/>
  <path class="fil4" d="M971 594l-40 5c7,24 -6,49 -4,71 -9,57 -115,126 -230,126 -127,0 -198,-73 -139,-253 2,-7 2,-11 -4,-14l-17 -8c-7,-3 -12,0 -14,7 -94,243 15,349 169,349 119,0 223,-53 265,-152 10,-22 16,-48 19,-75 2,-19 -6,-37 -5,-56z"/>
  <path class="fil5" d="M911 532c-17,-89 -53,-128 -86,-128 -33,0 -63,40 -65,72 -3,37 34,74 151,56zm65 118l-57 43c6,-34 3,-69 1,-83 -85,18 -203,12 -204,-106 0,-83 52,-187 114,-187 87,0 140,124 146,245 1,21 1,71 0,88z"/>
 </g>
 <g id="Layer_x0020_2">
  <metadata id="CorelCorpID_2Corel-Layer"/>
  <path class="fil6" d="M894 560c-24,6 -52,9 -77,9 -41,0 -73,-14 -73,-35 0,-47 36,-122 69,-128 31,2 66,67 81,154zm2 182c6,-21 7,-71 6,-93 0,-4 0,-9 0,-14 -27,9 -53,15 -85,15 -102,0 -152,-44 -147,-130 4,-73 51,-192 142,-195l0 0 0 0c126,0 165,190 165,305 -1,27 -2,55 -2,83l0 0c-17,116 -201,180 -323,180 -155,1 -252,-116 -154,-372l41 13c-63,188 0,278 113,278 76,0 187,-31 244,-70z"/>
 </g>
</svg>
