<?xml version="1.0" encoding="UTF-8"?>
<!DOCTYPE svg PUBLIC "-//W3C//DTD SVG 1.0//EN" "http://www.w3.org/TR/2001/REC-SVG-20010904/DTD/svg10.dtd">
<!-- Creator: CorelDRAW -->
<svg xmlns="http://www.w3.org/2000/svg" xml:space="preserve" width="1300px" height="1300px" version="1.0" style="shape-rendering:geometricPrecision; text-rendering:geometricPrecision; image-rendering:optimizeQuality; fill-rule:evenodd; clip-rule:evenodd"
viewBox="0 0 1300 1056"
 xmlns:xlink="http://www.w3.org/1999/xlink">
 <defs>
  <style type="text/css">
   <![CDATA[
    .fil0 {fill:#996633}
   ]]>
  </style>
 </defs>
 <g id="Layer_x0020_2">
  <metadata id="CorelCorpID_0Corel-Layer"/>
  <path class="fil0" d="M817 569l79 0c-15,-91 -50,-161 -83,-163 -33,6 -69,81 -69,128 0,21 32,35 73,35l0 0zm157 0l82 0 0 81 -80 0c0,21 -1,42 -1,63l0 0c-14,103 -173,181 -311,180 -153,-1 -272,-113 -166,-372l41 13c-72,198 12,277 131,279 71,1 156,-26 227,-73 5,-21 6,-69 5,-90l-85 0 0 0c-102,0 -152,-44 -147,-130 4,-73 51,-192 142,-195l0 0 0 0c106,0 150,133 162,244z"/>
 </g>
</svg>
