<?xml version="1.0" encoding="UTF-8"?>
<!DOCTYPE svg PUBLIC "-//W3C//DTD SVG 1.0//EN" "http://www.w3.org/TR/2001/REC-SVG-20010904/DTD/svg10.dtd">
<!-- Creator: CorelDRAW -->
<svg xmlns="http://www.w3.org/2000/svg" xml:space="preserve" width="1300px" height="1300px" version="1.0" style="shape-rendering:geometricPrecision; text-rendering:geometricPrecision; image-rendering:optimizeQuality; fill-rule:evenodd; clip-rule:evenodd"
viewBox="0 0 1300 1056"
 xmlns:xlink="http://www.w3.org/1999/xlink">
 <defs>
  <style type="text/css">
   <![CDATA[
    .fil1 {fill:#663300;fill-opacity:0.501961}
    .fil2 {fill:#CC9933;fill-opacity:0.501961}
    .fil3 {fill:#99CCCC}
    .fil0 {fill:#FF6633}
   ]]>
  </style>
 </defs>
 <g id="_100:master" visibility="hidden">
  <metadata id="CorelCorpID_0Corel-Layer"/>
  <path class="fil0" d="M992 569l17 0 -1 81 -16 0c-81,0 -162,-41 -163,-122l0 -16 55 16c24,28 66,41 108,41z"/>
  <path class="fil1" d="M900 614l-52 36c-1,50 -109,162 -177,181 -26,12 -64,15 -95,11 -22,-6 -18,22 -22,36l124 17c79,11 200,-116 219,-245 2,-11 3,-25 3,-36z"/>
  <path class="fil2" d="M843 677c15,-51 -17,-113 -52,-186l55 -60c32,69 54,139 54,187 0,48 -29,76 -38,82 -99,65 -22,-9 -19,-23z"/>
 </g>
 <g id="Layer_x0020_36">
  <metadata id="CorelCorpID_1Corel-Layer"/>
  <path class="fil3" d="M963 510c13,43 33,57 106,59l0 81c-36,0 -67,-3 -94,-14 -20,130 -148,226 -273,258l-21 -79c110,-31 188,-95 234,-170 -8,-42 -28,-123 -49,-186l75 -35c9,31 16,60 22,86z"/>
 </g>
</svg>
