<?xml version="1.0" encoding="UTF-8"?>
<!DOCTYPE svg PUBLIC "-//W3C//DTD SVG 1.0//EN" "http://www.w3.org/TR/2001/REC-SVG-20010904/DTD/svg10.dtd">
<!-- Creator: CorelDRAW -->
<svg xmlns="http://www.w3.org/2000/svg" xml:space="preserve" width="1300px" height="1300px" version="1.0" style="shape-rendering:geometricPrecision; text-rendering:geometricPrecision; image-rendering:optimizeQuality; fill-rule:evenodd; clip-rule:evenodd"
viewBox="0 0 1300 1056"
 xmlns:xlink="http://www.w3.org/1999/xlink">
 <defs>
  <style type="text/css">
   <![CDATA[
    .fil1 {fill:#663300;fill-opacity:0.501961}
    .fil2 {fill:#CC9933;fill-opacity:0.501961}
    .fil3 {fill:#99CCCC}
    .fil0 {fill:#FF6633}
   ]]>
  </style>
 </defs>
 <g id="_100:master" visibility="hidden">
  <metadata id="CorelCorpID_0Corel-Layer"/>
  <path class="fil0" d="M992 569l17 0 -1 81 -16 0c-81,0 -162,-41 -163,-122l0 -16 55 16c24,28 66,41 108,41z"/>
  <path class="fil1" d="M900 614l-52 36c-1,50 -109,162 -177,181 -26,12 -64,15 -95,11 -22,-6 -18,22 -22,36l124 17c79,11 200,-116 219,-245 2,-11 3,-25 3,-36z"/>
  <path class="fil2" d="M843 677c15,-51 -17,-113 -52,-186l55 -60c32,69 54,139 54,187 0,48 -29,76 -38,82 -99,65 -22,-9 -19,-23z"/>
 </g>
 <g id="Layer_x0020_36">
  <metadata id="CorelCorpID_1Corel-Layer"/>
  <path class="fil3" d="M976 645l0 2c-17,133 -147,214 -274,247l-21 -79c110,-31 187,-86 234,-156 -8,-43 -29,-122 -49,-184l75 -34c6,21 12,42 17,62l0 0c13,50 44,66 107,66l0 81c-36,0 -65,-4 -89,-12 0,2 0,5 0,7z"/>
 </g>
</svg>
