<?xml version="1.0" encoding="UTF-8"?>
<!DOCTYPE svg PUBLIC "-//W3C//DTD SVG 1.0//EN" "http://www.w3.org/TR/2001/REC-SVG-20010904/DTD/svg10.dtd">
<!-- Creator: CorelDRAW -->
<svg xmlns="http://www.w3.org/2000/svg" xml:space="preserve" width="1300px" height="1300px" version="1.0" style="shape-rendering:geometricPrecision; text-rendering:geometricPrecision; image-rendering:optimizeQuality; fill-rule:evenodd; clip-rule:evenodd"
viewBox="0 0 1300 1056"
 xmlns:xlink="http://www.w3.org/1999/xlink">
 <defs>
  <style type="text/css">
   <![CDATA[
    .fil0 {fill:#9900CC}
    .fil2 {fill:#996633}
    .fil1 {fill:#FF6600}
   ]]>
  </style>
 </defs>
 <g id="_200:master">
  <metadata id="CorelCorpID_0Corel-Layer"/>
  <path class="fil0" d="M505 672c7,-43 1,-118 -34,-248l-75 35c36,112 43,213 44,232 -51,43 -129,80 -211,80 -114,1 -192,-57 -130,-245l-41 -13c-98,256 15,340 171,340 122,-1 259,-65 276,-181z"/>
  <path class="fil1" d="M415 495l73 -1c11,57 42,75 109,75l0 81c-122,0 -166,-45 -182,-155z"/>
 </g>
 <g id="Layer_x0020_1">
  <metadata id="CorelCorpID_1Corel-Layer"/>
  <path class="fil2" d="M569 591l-64 -38c102,-127 202,-264 322,-261 116,3 182,101 149,237l0 0c-18,102 -172,121 -257,121l-127 0 0 -81 132 0c51,0 129,-7 179,-30 23,-88 -11,-169 -89,-165 -79,3 -212,170 -245,217z"/>
 </g>
</svg>
