<?xml version="1.0" encoding="UTF-8"?>
<!DOCTYPE svg PUBLIC "-//W3C//DTD SVG 1.0//EN" "http://www.w3.org/TR/2001/REC-SVG-20010904/DTD/svg10.dtd">
<!-- Creator: CorelDRAW -->
<svg xmlns="http://www.w3.org/2000/svg" xml:space="preserve" width="1300px" height="1300px" version="1.0" style="shape-rendering:geometricPrecision; text-rendering:geometricPrecision; image-rendering:optimizeQuality; fill-rule:evenodd; clip-rule:evenodd"
viewBox="0 0 1300 1056"
 xmlns:xlink="http://www.w3.org/1999/xlink">
 <defs>
  <style type="text/css">
   <![CDATA[
    .fil7 {fill:black;fill-opacity:0.501961}
    .fil6 {fill:#663333;fill-opacity:0.501961}
    .fil3 {fill:red;fill-opacity:0.501961}
    .fil2 {fill:#FF6666;fill-opacity:0.501961}
    .fil8 {fill:#009933}
    .fil0 {fill:gray}
    .fil5 {fill:#996633}
    .fil1 {fill:#99CCCC}
    .fil9 {fill:#FF6600}
    .fil4 {fill:#FF6633}
   ]]>
  </style>
 </defs>
 <g id="_100:master" visibility="hidden">
  <metadata id="CorelCorpID_0Corel-Layer"/>
  <path class="fil0" d="M407 524l25 45c-10,32 -66,81 -180,81l0 -81c76,0 125,-23 155,-45z"/>
  <path class="fil1" d="M252 650l0 -81c-20,0 -40,19 -40,40 -1,21 20,41 40,41z"/>
  <path class="fil0" d="M975 451c0,134 -96,199 -263,199l-144 0 -45 -81 188 0c124,0 190,-37 203,-65l61 -53z"/>
  <path class="fil2" d="M383 422l-32 34c-10,11 -9,17 -5,26 49,118 107,168 227,168l0 -81c-104,0 -147,-71 -173,-141 -4,-10 -10,-14 -17,-6z"/>
  <path class="fil3" d="M914 504l61 -52c0,-39 -50,-160 -155,-160 -117,0 -227,161 -340,277l48 16c45,-51 163,-203 275,-203 63,0 109,77 111,122z"/>
 </g>
 <g id="Layer_x0020_1" visibility="hidden">
  <metadata id="CorelCorpID_1Corel-Layer"/>
  <path class="fil4" d="M975 480l-64 40c-43,27 -94,49 -195,49l-193 0 45 81 163 0c134,0 244,-50 244,-170z"/>
  <path class="fil0" d="M407 524l25 45c-10,32 -66,81 -180,81l0 -81c76,0 125,-23 155,-45z"/>
  <path class="fil1" d="M252 650l0 -81c-20,0 -40,19 -40,40 -1,21 20,41 40,41z"/>
  <path class="fil2" d="M383 422l-32 34c-10,11 -9,17 -5,26 49,118 107,168 227,168l0 -81c-104,0 -147,-71 -173,-141 -4,-10 -10,-14 -17,-6z"/>
  <path class="fil3" d="M911 520l64 -40c0,-80 -42,-188 -163,-188 -117,0 -219,161 -332,277l48 16c45,-51 155,-203 267,-203 72,0 115,73 116,138z"/>
 </g>
 <g id="Layer_x0020_2" visibility="hidden">
  <metadata id="CorelCorpID_2Corel-Layer"/>
  <path class="fil4" d="M1040 488c-134,85 -397,179 -467,-30 -3,-9 -11,-13 -20,-6l-18 13c-12,8 -12,14 -11,24 61,226 311,216 484,80 12,-10 29,-53 32,-81z"/>
  <path class="fil1" d="M448 650l0 -81c-21,0 -41,19 -41,40 0,21 20,41 41,41z"/>
  <path class="fil5" d="M604 606c73,-90 173,-217 283,-215 100,2 105,121 88,196l62 -80c19,-85 -11,-204 -137,-203 -117,0 -255,193 -323,269l27 33z"/>
  <path class="fil6" d="M587 530l36 52c-25,40 -64,68 -153,68l-23 0 1 -81 17 0c47,0 91,-4 122,-39z"/>
  <path class="fil7" d="M993 502l-32 69c30,63 100,78 179,79l0 -81c-93,-1 -141,-18 -147,-67z"/>
 </g>
 <g id="Layer_x0020_3" visibility="hidden">
  <metadata id="CorelCorpID_3Corel-Layer"/>
  <path class="fil1" d="M313 650l0 -81c-21,0 -41,19 -41,40 0,21 20,41 41,41z"/>
  <path class="fil6" d="M452 530l36 52c-25,40 -64,68 -153,68l-23 0 1 -81 17 0c47,0 91,-4 122,-39z"/>
  <path class="fil5" d="M514 614c73,-90 148,-209 259,-207 99,2 153,105 136,180l65 -99c9,-58 -62,-179 -188,-168 -134,12 -232,185 -300,261l28 33z"/>
  <path class="fil4" d="M974 488c-72,46 -230,96 -341,96 -107,1 -178,-46 -180,-147 -1,-10 -7,-15 -17,-12l-9 3c-15,4 -14,12 -16,22 3,129 68,216 222,216 96,0 232,-36 309,-97 13,-10 30,-53 32,-81z"/>
 </g>
 <g id="Layer_x0020_4" visibility="hidden">
  <metadata id="CorelCorpID_4Corel-Layer"/>
  <path class="fil8" d="M943 563c13,-9 29,-50 32,-82 -45,33 -200,88 -321,88 -117,0 -174,-37 -144,-155 4,-16 -2,-19 -14,-13l-26 11c-11,5 -13,8 -15,18 -77,305 352,235 488,133z"/>
  <path class="fil5" d="M546 606c58,-71 191,-269 300,-225 46,19 80,73 80,139 11,7 17,-3 27,-7 14,-13 17,-16 22,-27 13,-89 -35,-159 -94,-184 -125,-53 -292,188 -362,271l27 33z"/>
  <path class="fil1" d="M292 650l0 -81c-20,0 -40,19 -40,40 -1,21 20,41 40,41z"/>
  <path class="fil6" d="M292 569l0 81c130,0 212,-50 211,-163 -18,19 -35,34 -54,46 -37,24 -81,36 -157,36z"/>
 </g>
 <g id="Layer_x0020_5">
  <metadata id="CorelCorpID_5Corel-Layer"/>
  <path class="fil9" d="M596 650l-4 0 -20 0c-60,0 -97,-13 -121,-39 -40,30 -103,39 -185,39l0 0 -1 0 0 0c-20,-1 -40,-20 -40,-41 1,-20 20,-40 40,-40l0 0c37,0 114,-6 155,-19 -3,-13 -5,-26 -7,-40l-16 -114 74 -15 15 116c2,14 5,25 9,35l0 0 0 0c4,7 8,13 13,17 101,-125 200,-260 319,-257 63,2 112,30 137,77 22,39 27,91 12,152 -21,117 -198,129 -294,129l-86 0zm-11 -81l11 0 87 0c74,0 151,-5 220,-38 9,-43 6,-85 -11,-115 -15,-27 -41,-44 -78,-42 -69,3 -180,132 -229,195z"/>
 </g>
</svg>
