<?xml version="1.0" encoding="UTF-8"?>
<!DOCTYPE svg PUBLIC "-//W3C//DTD SVG 1.0//EN" "http://www.w3.org/TR/2001/REC-SVG-20010904/DTD/svg10.dtd">
<!-- Creator: CorelDRAW -->
<svg xmlns="http://www.w3.org/2000/svg" xml:space="preserve" width="1300px" height="1300px" version="1.0" style="shape-rendering:geometricPrecision; text-rendering:geometricPrecision; image-rendering:optimizeQuality; fill-rule:evenodd; clip-rule:evenodd"
viewBox="0 0 1300 1056"
 xmlns:xlink="http://www.w3.org/1999/xlink">
 <defs>
  <style type="text/css">
   <![CDATA[
    .fil0 {fill:#9900CC}
   ]]>
  </style>
 </defs>
 <g id="Layer_x0020_1">
  <metadata id="CorelCorpID_0Corel-Layer"/>
  <path class="fil0" d="M517 713c-13,102 -172,181 -311,180 -153,-1 -271,-113 -166,-372l41 13c-71,198 12,277 131,279 76,1 167,-30 240,-82 -1,-27 -8,-120 -56,-267l75 -35c7,21 13,43 19,65l1 0c6,28 16,46 32,58 102,-127 201,-263 321,-260 64,2 112,30 138,77 21,39 26,91 11,152 -21,117 -198,129 -294,129l-98 0 -2 0 0 0c-32,0 -59,-3 -82,-10 3,27 3,52 0,73zm403 -182c9,-43 6,-85 -11,-115 -15,-27 -41,-44 -78,-42 -69,3 -180,132 -229,195l98 0c74,0 152,-5 220,-38z"/>
 </g>
</svg>
