<?xml version="1.0" encoding="UTF-8"?>
<!DOCTYPE svg PUBLIC "-//W3C//DTD SVG 1.0//EN" "http://www.w3.org/TR/2001/REC-SVG-20010904/DTD/svg10.dtd">
<!-- Creator: CorelDRAW -->
<svg xmlns="http://www.w3.org/2000/svg" xml:space="preserve" width="1300px" height="1300px" version="1.0" style="shape-rendering:geometricPrecision; text-rendering:geometricPrecision; image-rendering:optimizeQuality; fill-rule:evenodd; clip-rule:evenodd"
viewBox="0 0 1300 1056"
 xmlns:xlink="http://www.w3.org/1999/xlink">
 <defs>
  <style type="text/css">
   <![CDATA[
    .fil0 {fill:#99CCCC}
   ]]>
  </style>
 </defs>
 <g id="Layer_x0020_5">
  <metadata id="CorelCorpID_0Corel-Layer"/>
  <path class="fil0" d="M586 568c49,-63 159,-191 228,-194 78,-4 112,77 89,165 -50,23 -128,30 -179,30l-123 0c-5,0 -10,0 -15,-1zm-296 1c56,0 102,-5 141,-20 -5,-16 -9,-34 -12,-54l-11 -76 71 -17 11 78c3,29 11,49 24,62 99,-123 196,-253 313,-250 116,3 182,101 149,237l0 0c-2,10 -5,20 -10,29 30,9 62,11 89,11l34 0 0 81 -34 0c-66,0 -109,-13 -137,-43 -58,35 -143,43 -199,43l-127 0 0 0c-60,-1 -100,-14 -127,-42 -41,34 -109,42 -175,42 -21,0 -41,-20 -41,-41 0,-21 20,-40 41,-40z"/>
 </g>
</svg>
