<?xml version="1.0" encoding="UTF-8"?>
<!DOCTYPE svg PUBLIC "-//W3C//DTD SVG 1.0//EN" "http://www.w3.org/TR/2001/REC-SVG-20010904/DTD/svg10.dtd">
<!-- Creator: CorelDRAW -->
<svg xmlns="http://www.w3.org/2000/svg" xml:space="preserve" width="1300px" height="1300px" version="1.0" style="shape-rendering:geometricPrecision; text-rendering:geometricPrecision; image-rendering:optimizeQuality; fill-rule:evenodd; clip-rule:evenodd"
viewBox="0 0 1300 1056"
 xmlns:xlink="http://www.w3.org/1999/xlink">
 <defs>
  <style type="text/css">
   <![CDATA[
    .fil0 {fill:#FF6600}
   ]]>
  </style>
 </defs>
 <g id="Layer_x0020_5">
  <metadata id="CorelCorpID_0Corel-Layer"/>
  <path class="fil0" d="M963 557c31,10 64,12 92,12l34 0 0 81 -34 0c-68,0 -112,-14 -140,-46 -66,40 -168,46 -233,46l-86 0 -4 0 -20 0c-60,0 -97,-13 -121,-39 -40,30 -103,39 -185,39l0 0 -1 0 0 0c-20,-1 -40,-20 -40,-41 1,-20 20,-40 40,-40l0 0c37,0 114,-6 155,-19 -3,-13 -5,-26 -7,-40l-16 -114 74 -15 15 116c2,14 5,25 9,35l0 0 0 0c4,7 8,13 13,17 101,-125 200,-260 319,-257 63,2 112,30 137,77 22,39 27,91 12,152 -2,13 -7,25 -13,36zm-378 12l11 0 87 0c74,0 151,-5 220,-38 9,-43 6,-85 -11,-115 -15,-27 -41,-44 -78,-42 -69,3 -180,132 -229,195z"/>
 </g>
</svg>
