<?xml version="1.0" encoding="UTF-8"?>
<!DOCTYPE svg PUBLIC "-//W3C//DTD SVG 1.0//EN" "http://www.w3.org/TR/2001/REC-SVG-20010904/DTD/svg10.dtd">
<!-- Creator: CorelDRAW -->
<svg xmlns="http://www.w3.org/2000/svg" xml:space="preserve" width="1300px" height="1300px" version="1.0" style="shape-rendering:geometricPrecision; text-rendering:geometricPrecision; image-rendering:optimizeQuality; fill-rule:evenodd; clip-rule:evenodd"
viewBox="0 0 1300 1056"
 xmlns:xlink="http://www.w3.org/1999/xlink">
 <defs>
  <style type="text/css">
   <![CDATA[
    .fil2 {fill:black;fill-opacity:0.501961}
    .fil0 {fill:#996633}
    .fil3 {fill:#FF6600}
    .fil1 {fill:#FF6633}
   ]]>
  </style>
 </defs>
 <g id="_100:master" visibility="hidden">
  <metadata id="CorelCorpID_0Corel-Layer"/>
  <path class="fil0" d="M604 606c73,-90 173,-217 283,-215 100,2 105,121 88,196l62 -80c19,-85 -11,-204 -137,-203 -117,0 -255,193 -323,269l27 33z"/>
  <path class="fil1" d="M1040 488c-134,85 -397,179 -467,-30 -3,-9 -11,-13 -20,-6l-18 13c-12,8 -12,14 -11,24 61,226 311,216 484,80 12,-10 29,-53 32,-81z"/>
  <path class="fil1" d="M570 448c-2,-6 -8,-14 -18,-6l-40 35c-4,4 -10,10 -6,22 28,75 45,141 48,192 -58,154 -499,216 -356,-147 3,-9 2,-16 -6,-19l-13 -6c-10,-4 -13,2 -16,9 -107,268 19,366 153,366 153,0 287,-92 298,-227 5,-67 -24,-160 -44,-219z"/>
  <path class="fil2" d="M993 502l-32 69c30,63 100,78 179,79l0 -81c-93,-1 -141,-18 -147,-67z"/>
 </g>
 <g id="Layer_x0020_1">
  <metadata id="CorelCorpID_1Corel-Layer"/>
  <path class="fil3" d="M920 531c-68,33 -146,38 -220,38l-98 0c49,-63 160,-192 229,-195 37,-2 63,15 78,42 17,30 20,72 11,115zm61 24c33,11 68,14 99,14l33 0 0 81 -33 0c-71,0 -115,-15 -143,-49 -66,43 -171,49 -238,49l-98 0 -2 0 0 0c-32,0 -59,-3 -82,-10 3,27 3,52 0,73 -13,102 -172,181 -311,180 -153,-1 -271,-113 -166,-372l41 13c-71,198 12,277 131,279 76,1 167,-30 240,-82 -1,-27 -8,-120 -56,-267l75 -35c7,21 13,43 19,65l1 0c6,28 16,46 32,58 102,-127 201,-263 321,-260 64,2 112,30 138,77 21,39 26,91 11,152 -2,12 -6,23 -12,34z"/>
 </g>
</svg>
