<?xml version="1.0" encoding="UTF-8"?>
<!DOCTYPE svg PUBLIC "-//W3C//DTD SVG 1.0//EN" "http://www.w3.org/TR/2001/REC-SVG-20010904/DTD/svg10.dtd">
<!-- Creator: CorelDRAW -->
<svg xmlns="http://www.w3.org/2000/svg" xml:space="preserve" width="1300px" height="1300px" version="1.0" style="shape-rendering:geometricPrecision; text-rendering:geometricPrecision; image-rendering:optimizeQuality; fill-rule:evenodd; clip-rule:evenodd"
viewBox="0 0 1300 1056"
 xmlns:xlink="http://www.w3.org/1999/xlink">
 <defs>
  <style type="text/css">
   <![CDATA[
    .fil0 {fill:black;fill-opacity:0.501961}
    .fil2 {fill:red;fill-opacity:0.549020}
    .fil3 {fill:#663333}
    .fil1 {fill:#FF6633}
   ]]>
  </style>
 </defs>
 <g id="_100:master" visibility="hidden">
  <metadata id="CorelCorpID_0Corel-Layer"/>
  <path class="fil0" d="M744 447c6,-14 47,7 41,21l-27 69c-57,142 -153,169 -261,71l36 -75c95,96 154,43 191,-41l20 -45z"/>
  <path class="fil0" d="M935 534l33 52c-64,98 -174,107 -267,22l35 -75c78,79 154,58 199,1z"/>
  <path class="fil1" d="M580 653l1 -81c-36,-20 -49,-43 -68,-104l-33 91c20,44 63,78 100,94z"/>
  <path class="fil2" d="M535 550l0 0 0 0c2,12 4,25 5,37 3,18 5,36 5,46 -1,145 -140,261 -299,261 -134,0 -260,-98 -153,-366 3,-7 7,-13 16,-9l13 6c8,3 9,10 6,19 -77,197 16,269 128,269 92,0 196,-61 226,-132 0,-5 0,-10 0,-15 -3,-50 -20,-117 -49,-191 -3,-13 2,-19 7,-22l40 -35c10,-8 16,0 18,5 14,36 28,82 37,127z"/>
  <path class="fil0" d="M1075 569l0 81c-123,-5 -152,-46 -170,-147l-11 -64c-3,-14 -2,-21 8,-25l18 -7c13,-5 14,6 17,19l9 45c14,67 36,98 112,98l17 0z"/>
 </g>
 <g id="Layer_x0020_1">
  <metadata id="CorelCorpID_1Corel-Layer"/>
  <path class="fil3" d="M495 688c-17,116 -153,181 -276,181 -155,0 -268,-84 -171,-340l41 13c-62,188 16,246 130,246 82,-1 160,-37 211,-81 0,-19 -8,-120 -43,-232l74 -34c11,41 19,77 25,108 24,16 58,20 90,20 35,0 83,-13 102,-25l1 0c-5,-19 -6,-39 -6,-62l1 -45 71 -5 -2 47c-2,59 13,90 77,90 48,0 75,-14 88,-22 -5,-16 -9,-33 -12,-52l-16 -112 70 -17 17 114c9,68 21,89 112,89l0 81c-67,0 -111,-13 -139,-44 -32,30 -81,44 -122,44 -50,1 -87,-15 -111,-44 -36,30 -91,45 -136,44 -28,0 -52,-2 -73,-8 0,18 -1,34 -3,46z"/>
 </g>
</svg>
