<?xml version="1.0" encoding="UTF-8"?>
<!DOCTYPE svg PUBLIC "-//W3C//DTD SVG 1.0//EN" "http://www.w3.org/TR/2001/REC-SVG-20010904/DTD/svg10.dtd">
<!-- Creator: CorelDRAW -->
<svg xmlns="http://www.w3.org/2000/svg" xml:space="preserve" width="1300px" height="1300px" version="1.0" style="shape-rendering:geometricPrecision; text-rendering:geometricPrecision; image-rendering:optimizeQuality; fill-rule:evenodd; clip-rule:evenodd"
viewBox="0 0 1300 1056"
 xmlns:xlink="http://www.w3.org/1999/xlink">
 <defs>
  <style type="text/css">
   <![CDATA[
    .fil0 {fill:black;fill-opacity:0.501961}
   ]]>
  </style>
 </defs>
 <g id="_100:master" visibility="hidden">
  <metadata id="CorelCorpID_0Corel-Layer"/>
  <path class="fil0" d="M856 650l-85 0 0 0c-36,0 -63,7 -73,34 -2,5 -6,7 -9,6 -13,-7 -14,-8 -12,-23 9,-81 60,-97 117,-98l85 0c37,0 64,-7 74,-34 2,-5 5,-7 9,-6 12,7 13,8 12,23 -9,81 -60,97 -118,98z"/>
 </g>
 <g id="Layer_x0020_1">
  <metadata id="CorelCorpID_1Corel-Layer"/>
  <path class="fil0" d="M902 520l25 16c0,101 -61,114 -122,114 -45,0 -92,-16 -108,32l-22 -14c-8,-116 71,-99 130,-99 60,0 87,-17 97,-49z"/>
 </g>
</svg>
