<?xml version="1.0" encoding="UTF-8"?>
<!DOCTYPE svg PUBLIC "-//W3C//DTD SVG 1.0//EN" "http://www.w3.org/TR/2001/REC-SVG-20010904/DTD/svg10.dtd">
<!-- Creator: CorelDRAW -->
<svg xmlns="http://www.w3.org/2000/svg" xml:space="preserve" width="1300px" height="1300px" version="1.0" style="shape-rendering:geometricPrecision; text-rendering:geometricPrecision; image-rendering:optimizeQuality; fill-rule:evenodd; clip-rule:evenodd"
viewBox="0 0 1300 1056"
 xmlns:xlink="http://www.w3.org/1999/xlink">
 <defs>
  <style type="text/css">
   <![CDATA[
    .fil0 {fill:black;fill-opacity:0.501961}
    .fil2 {fill:red;fill-opacity:0.549020}
    .fil3 {fill:#663333}
    .fil1 {fill:#FF6633}
   ]]>
  </style>
 </defs>
 <g id="_100:master" visibility="hidden">
  <metadata id="CorelCorpID_0Corel-Layer"/>
  <path class="fil0" d="M744 447c6,-14 47,7 41,21l-27 69c-57,142 -153,169 -261,71l36 -75c95,96 154,43 191,-41l20 -45z"/>
  <path class="fil0" d="M935 534l33 52c-64,98 -174,107 -267,22l35 -75c78,79 154,58 199,1z"/>
  <path class="fil1" d="M580 653l1 -81c-36,-20 -49,-43 -68,-104l-33 91c20,44 63,78 100,94z"/>
  <path class="fil2" d="M535 550l0 0 0 0c2,12 4,25 5,37 3,18 5,36 5,46 -1,145 -140,261 -299,261 -134,0 -260,-98 -153,-366 3,-7 7,-13 16,-9l13 6c8,3 9,10 6,19 -77,197 16,269 128,269 92,0 196,-61 226,-132 0,-5 0,-10 0,-15 -3,-50 -20,-117 -49,-191 -3,-13 2,-19 7,-22l40 -35c10,-8 16,0 18,5 14,36 28,82 37,127z"/>
  <path class="fil0" d="M1075 569l0 81c-123,-5 -152,-46 -170,-147l-11 -64c-3,-14 -2,-21 8,-25l18 -7c13,-5 14,6 17,19l9 45c14,67 36,98 112,98l17 0z"/>
 </g>
 <g id="Layer_x0020_1">
  <metadata id="CorelCorpID_1Corel-Layer"/>
  <path class="fil3" d="M1095 569l0 81c-67,0 -110,-13 -139,-44 -32,30 -81,44 -122,44 -50,1 -87,-15 -111,-44 -36,30 -90,45 -135,44 -27,0 -50,-2 -70,-7 2,26 2,50 -1,70 -13,102 -172,181 -311,180 -153,-1 -271,-113 -166,-372l41 13c-71,198 12,277 131,279 76,1 167,-30 240,-82 -1,-27 -8,-120 -56,-267l75 -35c13,39 24,80 33,121 24,16 57,19 88,19 35,0 83,-13 102,-25l1 0c-4,-19 -6,-39 -6,-62l2 -45 70 -5 -1 47c-3,59 13,90 76,90 48,0 76,-14 88,-22 -5,-16 -9,-33 -11,-52l-17 -112 71 -17 16 114c10,68 21,89 112,89z"/>
 </g>
</svg>
