<?xml version="1.0" encoding="UTF-8"?>
<!DOCTYPE svg PUBLIC "-//W3C//DTD SVG 1.0//EN" "http://www.w3.org/TR/2001/REC-SVG-20010904/DTD/svg10.dtd">
<!-- Creator: CorelDRAW -->
<svg xmlns="http://www.w3.org/2000/svg" xml:space="preserve" width="1300px" height="1300px" version="1.0" style="shape-rendering:geometricPrecision; text-rendering:geometricPrecision; image-rendering:optimizeQuality; fill-rule:evenodd; clip-rule:evenodd"
viewBox="0 0 1300 1056"
 xmlns:xlink="http://www.w3.org/1999/xlink">
 <defs>
  <style type="text/css">
   <![CDATA[
    .fil0 {fill:black;fill-opacity:0.501961}
    .fil2 {fill:#663333;fill-opacity:0.501961}
    .fil8 {fill:#000066}
    .fil7 {fill:aqua}
    .fil9 {fill:#663333}
    .fil3 {fill:#999933}
    .fil4 {fill:#99CCCC}
    .fil5 {fill:red}
    .fil6 {fill:fuchsia}
    .fil1 {fill:#FF6633}
   ]]>
  </style>
 </defs>
 <g id="Layer_x0020_5" visibility="hidden">
  <metadata id="CorelCorpID_0Corel-Layer"/>
  <path class="fil0" d="M744 525l-29 76c-33,65 -130,98 -244,0l35 -74c24,30 144,116 183,-22l19 -68c3,-11 6,-19 22,-19l21 0c13,1 18,7 15,21l-22 86z"/>
  <path class="fil1" d="M974 507l0 -4 0 0c6,-57 -12,-118 -29,-168 -2,-5 -8,-14 -18,-5l-40 35c-5,3 -10,9 -7,22 22,57 32,110 35,155 -22,27 -60,43 -95,43l0 81c53,0 140,-32 154,-159z"/>
  <path class="fil2" d="M511 546c-23,93 -119,104 -188,104l-32 0 0 -81 17 0c91,0 138,-9 153,-64l19 -69c3,-11 7,-19 23,-18l21 0c12,0 18,7 14,20l-27 108z"/>
  <path class="fil3" d="M292 569c-20,0 -40,19 -40,40 0,21 20,41 40,41l0 -81z"/>
  <path class="fil0" d="M711 609l33 -84c-3,14 31,60 80,60l-3 81c-57,0 -97,-38 -110,-57z"/>
 </g>
 <g id="Layer_x0020_9" visibility="hidden">
  <metadata id="CorelCorpID_1Corel-Layer"/>
  <path class="fil3" d="M381 569c-20,0 -40,19 -41,40 0,21 21,41 41,41l0 -81z"/>
  <path class="fil4" d="M975 503c-1,-43 -3,-75 -27,-146 -3,-10 -11,-12 -18,-6l-40 35c-4,4 -11,10 -6,22 19,49 33,105 31,133 -18,13 -49,28 -79,28 -54,0 -77,-39 -48,-121 5,-15 -9,-11 -32,-7 -13,3 -15,19 -18,25 -29,72 -33,184 95,184 82,0 144,-71 142,-147z"/>
  <path class="fil0" d="M381 650l0 -81c73,0 123,-33 131,-66l45 34c-15,55 -65,113 -176,113z"/>
  <path class="fil4" d="M744 581l-4 -53c-64,48 -232,89 -163,-90 7,-18 0,-26 -30,-14 -12,5 -15,18 -18,25 -93,217 137,250 215,132z"/>
 </g>
 <g id="Layer_x0020_8" visibility="hidden">
  <metadata id="CorelCorpID_2Corel-Layer"/>
  <path class="fil5" d="M975 503c0,-43 -10,-82 -34,-153 -4,-10 -12,-11 -18,-5l-36 30c-10,9 -14,13 -9,25 18,46 37,102 37,134 -13,22 -67,35 -103,35l0 81c90,0 163,-57 163,-147z"/>
  <path class="fil6" d="M586 650c68,0 128,-37 150,-102l-27 -37c-27,45 -76,58 -122,58 -16,0 -32,-3 -46,-7 -25,-9 -36,-25 -33,-40l17 -79c4,-17 -1,-22 -14,-16l-25 12c-11,6 -13,8 -16,20l-19 64 13 67c22,44 69,60 122,60z"/>
  <path class="fil7" d="M821 650c-65,0 -104,-23 -122,-60l-49 -31c11,-6 31,-16 36,-36l21 -73c4,-12 5,-14 17,-20l25 -12c12,-6 18,-1 14,16l-20 88c-5,22 22,47 78,47l0 81z"/>
  <path class="fil3" d="M301 569c-20,0 -40,19 -40,40 -1,21 20,41 40,41l0 -81z"/>
  <path class="fil8" d="M507 520l-56 3c-11,40 -119,46 -150,46l0 81c76,0 139,-16 175,-52l31 -78z"/>
 </g>
 <g id="Layer_x0020_10">
  <metadata id="CorelCorpID_3Corel-Layer"/>
  <path class="fil9" d="M264 569l0 0 2 0 24 0c86,0 110,-13 128,-70l23 -76 70 21 -24 77c-2,8 -5,15 -8,22 25,22 62,26 97,26 35,0 83,-13 102,-25l1 0c-5,-19 -6,-39 -6,-62l1 -45 71 -5 -2 47c-2,59 13,90 77,90 49,0 76,-14 88,-23l0 -2c1,-17 -7,-65 -34,-158l75 -35c21,71 30,133 27,178 -3,84 -91,121 -158,121 -50,1 -87,-15 -111,-44 -36,30 -91,45 -136,44 -56,0 -92,-8 -136,-40 -36,32 -85,40 -150,40l-19 0 -2 0 0 0c-19,-1 -39,-20 -39,-41 1,-20 20,-39 39,-40z"/>
 </g>
</svg>
