<?xml version="1.0" encoding="UTF-8"?>
<!DOCTYPE svg PUBLIC "-//W3C//DTD SVG 1.0//EN" "http://www.w3.org/TR/2001/REC-SVG-20010904/DTD/svg10.dtd">
<!-- Creator: CorelDRAW -->
<svg xmlns="http://www.w3.org/2000/svg" xml:space="preserve" width="1300px" height="1300px" version="1.0" style="shape-rendering:geometricPrecision; text-rendering:geometricPrecision; image-rendering:optimizeQuality; fill-rule:evenodd; clip-rule:evenodd"
viewBox="0 0 1300 1056"
 xmlns:xlink="http://www.w3.org/1999/xlink">
 <defs>
  <style type="text/css">
   <![CDATA[
    .fil1 {fill:#9900CC;fill-opacity:0.501961}
    .fil2 {fill:aqua}
    .fil6 {fill:#663333}
    .fil4 {fill:#996633}
    .fil3 {fill:#999933}
    .fil0 {fill:red}
    .fil5 {fill:fuchsia}
   ]]>
  </style>
 </defs>
 <g id="_100:master" visibility="hidden">
  <metadata id="CorelCorpID_0Corel-Layer"/>
  <path class="fil0" d="M975 503c0,-43 -10,-82 -34,-153 -4,-10 -12,-11 -18,-5l-36 30c-10,9 -14,13 -9,25 18,46 37,102 37,134 -13,22 -67,35 -103,35l0 81c90,0 163,-57 163,-147z"/>
  <path class="fil1" d="M483 493l-28 59c0,56 64,98 122,98 58,0 128,-19 159,-102l-27 -37c-29,46 -76,58 -122,58 -50,0 -83,-17 -104,-76z"/>
  <path class="fil2" d="M821 650c-65,0 -104,-23 -122,-60l-49 -31c11,-6 31,-16 36,-36l21 -73c4,-12 5,-14 17,-20l25 -12c12,-6 18,-1 14,16l-20 88c-5,22 22,47 78,47l0 81z"/>
  <path class="fil3" d="M214 877l0 -81c98,0 186,-41 250,-124 -4,-37 -29,-114 -60,-173 -5,-9 -9,-18 2,-29l32 -32c6,-6 16,-20 26,6 22,54 39,95 43,159 1,28 -1,55 -8,81 -34,126 -163,193 -285,193z"/>
  <path class="fil4" d="M214 796l0 81c-138,0 -260,-107 -162,-363 3,-9 7,-12 17,-9l14 4c11,3 11,7 8,17 -62,188 19,270 123,270z"/>
 </g>
 <g id="Layer_x0020_1" visibility="hidden">
  <metadata id="CorelCorpID_1Corel-Layer"/>
  <path class="fil5" d="M500 532l-44 58c22,44 69,60 122,60 67,0 128,-37 150,-102l-27 -37c-27,45 -76,58 -122,58 -23,0 -71,-10 -79,-37z"/>
  <path class="fil0" d="M975 503c0,-43 -22,-108 -53,-171 -4,-10 -11,-11 -17,-6l-36 31c-10,9 -16,14 -9,25 26,43 55,120 55,152 -13,22 -67,35 -103,35l0 81c90,0 163,-57 163,-147z"/>
  <path class="fil2" d="M812 650c-64,0 -103,-23 -121,-60l-62 -27c21,-5 50,-20 54,-45l11 -72c2,-12 1,-23 14,-22l25 3c13,1 13,9 12,21l-10 72c-4,26 32,49 77,49l0 81z"/>
  <path class="fil3" d="M219 877l0 -81c97,0 186,-41 249,-124 -4,-37 -29,-114 -60,-173 -4,-9 -9,-18 2,-29l32 -32c6,-6 16,-20 26,6 22,54 40,95 43,159 2,28 0,55 -8,81 -34,126 -162,193 -284,193z"/>
  <path class="fil4" d="M219 796l0 81c-138,0 -260,-107 -163,-363 4,-9 7,-12 17,-9l15 4c10,3 11,7 8,17 -63,188 19,270 123,270z"/>
 </g>
 <g id="Layer_x0020_2">
  <metadata id="CorelCorpID_2Corel-Layer"/>
  <path class="fil6" d="M518 643c2,26 2,50 -1,70 -13,102 -172,181 -311,180 -153,-1 -271,-113 -166,-372l41 13c-71,198 12,277 131,279 76,1 167,-30 240,-82 -1,-27 -8,-120 -56,-267l75 -35c13,39 24,80 33,121 24,16 57,19 88,19 35,0 83,-13 102,-25l1 0c-4,-19 -6,-39 -6,-62l2 -45 70 -5 -1 47c-3,59 13,90 76,90 49,0 77,-14 89,-23l0 -2c0,-17 -8,-65 -34,-158l74 -35c21,71 31,133 27,178 -3,84 -91,121 -158,121 -50,1 -87,-15 -111,-44 -36,30 -90,45 -135,44 -27,0 -50,-2 -70,-7z"/>
 </g>
</svg>
