<?xml version="1.0" encoding="UTF-8"?>
<!DOCTYPE svg PUBLIC "-//W3C//DTD SVG 1.0//EN" "http://www.w3.org/TR/2001/REC-SVG-20010904/DTD/svg10.dtd">
<!-- Creator: CorelDRAW -->
<svg xmlns="http://www.w3.org/2000/svg" xml:space="preserve" width="1300px" height="1300px" version="1.0" style="shape-rendering:geometricPrecision; text-rendering:geometricPrecision; image-rendering:optimizeQuality; fill-rule:evenodd; clip-rule:evenodd"
viewBox="0 0 1300 1056"
 xmlns:xlink="http://www.w3.org/1999/xlink">
 <defs>
  <style type="text/css">
   <![CDATA[
    .fil0 {fill:black;fill-opacity:0.501961}
    .fil5 {fill:#1A1A1A;fill-opacity:0.501961}
    .fil3 {fill:#336699;fill-opacity:0.501961}
    .fil2 {fill:#663300}
    .fil4 {fill:#996633}
    .fil1 {fill:#99CCCC}
   ]]>
  </style>
 </defs>
 <g id="_100:master" visibility="hidden">
  <metadata id="CorelCorpID_0Corel-Layer"/>
  <polygon class="fil0" points="589,650 578,569 431,569 431,650 "/>
  <path class="fil1" d="M432 569c-21,0 -41,19 -41,40 0,21 20,41 41,41l0 -81z"/>
  <path class="fil2" d="M576 569l8 81c179,0 288,-22 354,-67 34,-22 37,-69 37,-95 -68,49 -204,81 -399,81z"/>
  <path class="fil3" d="M919 594l36 -79c0,38 49,54 124,54l0 81c-88,0 -136,-24 -160,-56z"/>
  <path class="fil0" d="M571 487l-85 62c16,-18 27,-44 27,-69l-13 -371c-2,-52 -3,-57 29,-84l19 -17c13,-11 23,-10 23,9l0 470z"/>
  <path class="fil4" d="M487 606l149 -134c49,-44 102,-65 151,-65 85,0 139,97 139,178l49 -97c0,-51 -55,-168 -167,-168 -76,0 -137,56 -191,104 -60,53 -119,115 -157,149l27 33z"/>
 </g>
 <g id="Layer_x0020_1">
  <metadata id="CorelCorpID_1Corel-Layer"/>
  <path class="fil5" d="M601 569l0 0 -16 0c49,-63 160,-192 229,-195 37,-2 63,15 78,42 17,30 20,72 11,115 -69,33 -146,38 -220,38l-82 0zm-98 81l0 0 -113 0 0 0c-20,0 -41,-20 -41,-41 1,-21 21,-40 41,-40l0 0 113 0 0 -534 74 -35 0 464c78,-94 158,-174 250,-172 63,2 112,30 137,77 22,39 27,91 12,152 -2,13 -7,25 -13,36 31,10 64,12 92,12l34 0 0 81 -34 0c-68,0 -112,-14 -140,-46 -66,40 -168,46 -233,46l-179 0z"/>
 </g>
</svg>
