<?xml version="1.0" encoding="UTF-8"?>
<!DOCTYPE svg PUBLIC "-//W3C//DTD SVG 1.0//EN" "http://www.w3.org/TR/2001/REC-SVG-20010904/DTD/svg10.dtd">
<!-- Creator: CorelDRAW -->
<svg xmlns="http://www.w3.org/2000/svg" xml:space="preserve" width="1300px" height="1300px" version="1.0" style="shape-rendering:geometricPrecision; text-rendering:geometricPrecision; image-rendering:optimizeQuality; fill-rule:evenodd; clip-rule:evenodd"
viewBox="0 0 1300 1056"
 xmlns:xlink="http://www.w3.org/1999/xlink">
 <defs>
  <style type="text/css">
   <![CDATA[
    .fil0 {fill:#00CCFF}
   ]]>
  </style>
 </defs>
 <g id="Layer_x0020_1">
  <metadata id="CorelCorpID_0Corel-Layer"/>
  <path class="fil0" d="M503 569l0 -534 74 -35 0 464c78,-94 158,-174 250,-172 63,2 112,30 137,77 22,39 27,91 12,152 -2,13 -7,25 -13,36 31,10 64,12 92,12l34 0 0 81 -34 0c-68,0 -112,-14 -140,-46 -66,40 -168,46 -233,46 -59,0 -119,0 -179,0l0 0 -63 0c-91,0 -139,-25 -164,-84l29 -30c39,27 74,33 135,33l63 0zm130 0l50 0c74,0 151,-5 220,-38 9,-43 6,-85 -11,-115 -15,-27 -41,-44 -78,-42 -69,3 -180,132 -229,195l48 0 0 0z"/>
 </g>
</svg>
