<?xml version="1.0" encoding="UTF-8"?>
<!DOCTYPE svg PUBLIC "-//W3C//DTD SVG 1.0//EN" "http://www.w3.org/TR/2001/REC-SVG-20010904/DTD/svg10.dtd">
<!-- Creator: CorelDRAW -->
<svg xmlns="http://www.w3.org/2000/svg" xml:space="preserve" width="1300px" height="1300px" version="1.0" style="shape-rendering:geometricPrecision; text-rendering:geometricPrecision; image-rendering:optimizeQuality; fill-rule:evenodd; clip-rule:evenodd"
viewBox="0 0 1300 1056"
 xmlns:xlink="http://www.w3.org/1999/xlink">
 <defs>
  <style type="text/css">
   <![CDATA[
    .fil0 {fill:#00CCFF}
   ]]>
  </style>
 </defs>
 <g id="Layer_x0020_1">
  <metadata id="CorelCorpID_0Corel-Layer"/>
  <path class="fil0" d="M503 569l0 -534 74 -35 0 464c78,-94 158,-174 250,-172 116,3 182,101 149,237l0 0c-2,10 -5,20 -10,29 30,9 62,11 89,11l34 0 0 81 -34 0c-66,0 -109,-13 -137,-43 -58,35 -143,43 -199,43 -72,0 -144,0 -216,0l0 0 -48 0 0 0c-80,-4 -123,-29 -146,-84 0,-29 16,-30 45,-20 38,19 82,23 119,23l30 0zm130 0l91 0c51,0 129,-7 179,-30 23,-88 -11,-169 -89,-165 -69,3 -180,132 -229,195l48 0 0 0z"/>
 </g>
</svg>
