<?xml version="1.0" encoding="UTF-8"?>
<!DOCTYPE svg PUBLIC "-//W3C//DTD SVG 1.0//EN" "http://www.w3.org/TR/2001/REC-SVG-20010904/DTD/svg10.dtd">
<!-- Creator: CorelDRAW -->
<svg xmlns="http://www.w3.org/2000/svg" xml:space="preserve" width="1300px" height="1300px" version="1.0" style="shape-rendering:geometricPrecision; text-rendering:geometricPrecision; image-rendering:optimizeQuality; fill-rule:evenodd; clip-rule:evenodd"
viewBox="0 0 1300 1056"
 xmlns:xlink="http://www.w3.org/1999/xlink">
 <defs>
  <style type="text/css">
   <![CDATA[
    .fil0 {fill:#00CCFF}
   ]]>
  </style>
 </defs>
 <g id="Layer_x0020_20">
  <metadata id="CorelCorpID_0Corel-Layer"/>
  <path class="fil0" d="M911 633c-93,33 -228,29 -228,-99 1,-101 41,-192 122,-201 0,0 0,0 1,0 140,4 174,180 170,297 0,1 0,1 0,3l0 0c-19,132 -148,228 -274,261l-21 -79c107,-30 183,-91 231,-164 -1,-6 -1,-12 -1,-18zm-102 -218c-35,5 -64,69 -65,111 -1,60 114,44 158,29 -13,-71 -42,-134 -93,-140z"/>
 </g>
</svg>
