<?xml version="1.0" encoding="UTF-8"?>
<!DOCTYPE svg PUBLIC "-//W3C//DTD SVG 1.0//EN" "http://www.w3.org/TR/2001/REC-SVG-20010904/DTD/svg10.dtd">
<!-- Creator: CorelDRAW -->
<svg xmlns="http://www.w3.org/2000/svg" xml:space="preserve" width="1300px" height="1300px" version="1.0" style="shape-rendering:geometricPrecision; text-rendering:geometricPrecision; image-rendering:optimizeQuality; fill-rule:evenodd; clip-rule:evenodd"
viewBox="0 0 1300 1056"
 xmlns:xlink="http://www.w3.org/1999/xlink">
 <defs>
  <style type="text/css">
   <![CDATA[
    .fil0 {fill:#00CCFF}
   ]]>
  </style>
 </defs>
 <g id="Layer_x0020_20">
  <metadata id="CorelCorpID_0Corel-Layer"/>
  <path class="fil0" d="M913 635c-93,31 -222,25 -222,-101 1,-98 42,-197 126,-203l0 0 4 0 4 0 0 0c139,8 150,216 149,316 -17,133 -147,214 -274,247l-21 -79c110,-31 187,-86 234,-156 0,-8 0,-16 0,-24zm-91 -223c-32,5 -70,63 -70,114 -3,58 107,44 154,31 -12,-73 -39,-140 -84,-145z"/>
 </g>
</svg>
