<?xml version="1.0" encoding="UTF-8"?>
<!DOCTYPE svg PUBLIC "-//W3C//DTD SVG 1.0//EN" "http://www.w3.org/TR/2001/REC-SVG-20010904/DTD/svg10.dtd">
<!-- Creator: CorelDRAW -->
<svg xmlns="http://www.w3.org/2000/svg" xml:space="preserve" width="1300px" height="1300px" version="1.0" style="shape-rendering:geometricPrecision; text-rendering:geometricPrecision; image-rendering:optimizeQuality; fill-rule:evenodd; clip-rule:evenodd"
viewBox="0 0 1300 1056"
 xmlns:xlink="http://www.w3.org/1999/xlink">
 <defs>
  <style type="text/css">
   <![CDATA[
    .fil3 {fill:#336666;fill-opacity:0.501961}
    .fil2 {fill:#993366;fill-opacity:0.549020}
    .fil1 {fill:#4D4D4D;fill-opacity:0.600000}
    .fil0 {fill:#663300;fill-opacity:0.600000}
   ]]>
  </style>
 </defs>
 <g id="_100:master" visibility="hidden">
  <metadata id="CorelCorpID_0Corel-Layer"/>
  <path class="fil0" d="M757 593c-3,8 -7,17 3,21 67,28 181,100 107,149l68 17c49,-60 49,-172 -133,-233 -13,-7 -31,23 -45,46z"/>
  <path class="fil1" d="M767 568l-10 25c77,19 185,57 283,57l0 -81c-39,0 -132,-2 -235,-35 -20,-6 -25,1 -38,34z"/>
  <path class="fil2" d="M906 725l37 43c-144,213 -653,192 -446,-329 3,-8 8,-12 18,-9l26 10c8,3 9,11 6,20 -167,421 268,397 359,265z"/>
 </g>
 <g id="Layer_x0020_14">
  <metadata id="CorelCorpID_1Corel-Layer"/>
  <path class="fil3" d="M773 569l284 0 0 81 -87 0c12,36 -5,79 -43,124 -54,65 -154,120 -274,119 -153,-1 -271,-113 -166,-372l41 13c-71,198 12,277 131,279 86,1 169,-36 212,-75 46,-43 39,-72 -59,-88l-61 0 22 -81z"/>
 </g>
</svg>
