<?xml version="1.0" encoding="UTF-8"?>
<!DOCTYPE svg PUBLIC "-//W3C//DTD SVG 1.0//EN" "http://www.w3.org/TR/2001/REC-SVG-20010904/DTD/svg10.dtd">
<!-- Creator: CorelDRAW -->
<svg xmlns="http://www.w3.org/2000/svg" xml:space="preserve" width="1300px" height="1300px" version="1.0" style="shape-rendering:geometricPrecision; text-rendering:geometricPrecision; image-rendering:optimizeQuality; fill-rule:evenodd; clip-rule:evenodd"
viewBox="0 0 1300 1056"
 xmlns:xlink="http://www.w3.org/1999/xlink">
 <defs>
  <style type="text/css">
   <![CDATA[
    .fil3 {fill:#999933}
    .fil0 {fill:#999999}
    .fil2 {fill:#CCCCFF}
    .fil4 {fill:red}
    .fil1 {fill:#FF99CC}
   ]]>
  </style>
 </defs>
 <g id="Layer_x0020_10" visibility="hidden">
  <metadata id="CorelCorpID_0Corel-Layer"/>
  <path class="fil0" d="M921 715l60 -7c-28,91 -166,154 -282,153 -173,-2 -275,-130 -188,-399 3,-7 7,-14 17,-11l16 5c11,4 11,10 9,17 -72,231 28,306 160,307 67,0 148,-22 208,-65z"/>
  <path class="fil1" d="M909 723c66,-46 -10,-76 -79,-90 -148,-32 -50,-300 83,-300 64,0 103,65 106,98 -15,24 -13,38 -30,21 -27,-26 -36,-38 -80,-38 -66,0 -172,115 -63,141 110,27 178,62 125,177 -61,80 -63,-8 -62,-9z"/>
 </g>
 <g id="Layer_x0020_11" visibility="hidden">
  <metadata id="CorelCorpID_1Corel-Layer"/>
  <path class="fil2" d="M953 642c-2,42 4,67 -25,101 -37,46 -163,85 -267,86 -265,1 -235,-234 -150,-406 5,-10 11,-10 17,-7l14 6c11,6 7,14 4,21 -64,148 -83,305 115,304 95,-1 213,-36 246,-64 11,-8 35,-32 46,-41z"/>
  <path class="fil1" d="M759 613c-115,-91 12,-296 165,-296 118,0 87,155 62,114 -15,-24 -42,-33 -67,-33 -88,0 -210,114 -160,215z"/>
  <path class="fil3" d="M722 475c2,13 29,54 66,63l124 29c112,26 57,188 -58,224 12,-9 -6,-79 14,-86 40,-14 77,-48 28,-59l-122 -29c-41,-9 -70,-63 -52,-142z"/>
 </g>
 <g id="Layer_x0020_12" visibility="hidden">
  <metadata id="CorelCorpID_2Corel-Layer"/>
  <path class="fil3" d="M674 796l0 81c-102,0 -196,-59 -197,-195 -1,-47 27,-162 61,-226 4,-8 6,-11 17,-8l14 4c11,3 12,7 8,16 -28,65 -48,147 -47,182 2,101 67,146 144,146z"/>
  <path class="fil1" d="M788 659c-62,-9 -99,-101 -46,-188 40,-66 89,-113 153,-113 60,0 107,43 119,114 2,9 -13,24 -23,14 -16,-17 -56,-47 -92,-47 -47,0 -108,49 -136,126 -15,43 2,47 25,94z"/>
  <path class="fil3" d="M869 683l-84 -25c-81,-24 -76,-122 -39,-176 -3,15 34,27 28,38 -24,48 8,53 25,58l85 26 -15 79z"/>
  <path class="fil4" d="M869 683l15 -79c63,20 110,74 47,154 -53,68 -143,119 -257,119l0 -81c97,0 170,-45 200,-76 17,-17 22,-27 -5,-37z"/>
 </g>
 <g id="Layer_x0020_13">
  <metadata id="CorelCorpID_3Corel-Layer"/>
  <path class="fil3" d="M975 463c-119,-32 -179,41 -195,106l49 0c114,0 157,44 144,119 -17,116 -201,181 -323,181 -156,0 -252,-116 -155,-372l41 12c-62,189 0,279 114,279 82,-1 206,-37 257,-81 9,-7 45,-57 -78,-57 -65,0 -120,-16 -109,-82 24,-145 125,-229 275,-183l-20 78z"/>
 </g>
</svg>
