<?xml version="1.0" encoding="UTF-8"?>
<!DOCTYPE svg PUBLIC "-//W3C//DTD SVG 1.0//EN" "http://www.w3.org/TR/2001/REC-SVG-20010904/DTD/svg10.dtd">
<!-- Creator: CorelDRAW -->
<svg xmlns="http://www.w3.org/2000/svg" xml:space="preserve" width="1300px" height="1300px" version="1.0" style="shape-rendering:geometricPrecision; text-rendering:geometricPrecision; image-rendering:optimizeQuality; fill-rule:evenodd; clip-rule:evenodd"
viewBox="0 0 1300 1056"
 xmlns:xlink="http://www.w3.org/1999/xlink">
 <defs>
  <style type="text/css">
   <![CDATA[
    .fil8 {fill:#000066;fill-opacity:0.501961}
    .fil5 {fill:#000066;fill-opacity:0.549020}
    .fil3 {fill:#663333;fill-opacity:0.549020}
    .fil2 {fill:#993366;fill-opacity:0.549020}
    .fil4 {fill:red;fill-opacity:0.549020}
    .fil1 {fill:#4D4D4D;fill-opacity:0.600000}
    .fil0 {fill:#663300;fill-opacity:0.600000}
    .fil6 {fill:lime}
    .fil10 {fill:#33CC66}
    .fil9 {fill:#6666FF}
    .fil13 {fill:#9900CC}
    .fil11 {fill:#999999}
    .fil12 {fill:#CCCCFF}
    .fil7 {fill:red}
   ]]>
  </style>
 </defs>
 <g id="_100:master" visibility="hidden">
  <metadata id="CorelCorpID_0Corel-Layer"/>
  <path class="fil0" d="M757 593c-3,8 -7,17 3,21 67,28 181,100 107,149l68 17c49,-60 49,-172 -133,-233 -13,-7 -31,23 -45,46z"/>
  <path class="fil1" d="M767 568l-10 25c77,19 185,57 283,57l0 -81c-39,0 -132,-2 -235,-35 -20,-6 -25,1 -38,34z"/>
  <path class="fil2" d="M906 725l37 43c-144,213 -653,192 -446,-329 3,-8 8,-12 18,-9l26 10c8,3 9,11 6,20 -167,421 268,397 359,265z"/>
 </g>
 <g id="Layer_x0020_1" visibility="hidden">
  <metadata id="CorelCorpID_1Corel-Layer"/>
  <path class="fil0" d="M765 604c100,69 162,113 115,147l33 41c58,-63 69,-117 -34,-208 -53,-47 -44,-33 -67,-59 -16,-5 -73,60 -47,79z"/>
  <path class="fil1" d="M780 560c-11,28 7,27 12,32 61,21 184,58 264,58l0 -81c-66,0 -159,-19 -244,-44 -15,6 -22,7 -29,26l-3 9z"/>
  <path class="fil3" d="M889 744l31 40c-166,189 -618,162 -420,-296 4,-8 9,-13 18,-9l26 10c8,3 10,11 6,20 -53,124 -44,204 -4,250 73,82 230,62 343,-15z"/>
 </g>
 <g id="Layer_x0020_2" visibility="hidden">
  <metadata id="CorelCorpID_2Corel-Layer"/>
  <path class="fil1" d="M742 553l-4 28c37,16 241,69 318,69l0 -81c-105,0 -204,-15 -290,-39 -22,-6 -23,12 -24,23z"/>
  <path class="fil4" d="M957 698l-51 22c7,-78 -105,-80 -160,-103 -11,-7 -10,-15 -10,-21l7 -53c2,-13 12,-11 17,-8 87,34 199,50 197,163z"/>
  <path class="fil3" d="M906 720c31,-46 41,-60 51,-24 -6,133 -142,198 -299,198 -133,0 -260,-98 -153,-366 3,-7 7,-13 16,-9l13 6c8,3 10,10 6,19 -75,191 12,265 119,269 107,4 235,-33 247,-93z"/>
 </g>
 <g id="Layer_x0020_3" visibility="hidden">
  <metadata id="CorelCorpID_3Corel-Layer"/>
  <path class="fil4" d="M912 726c51,17 23,9 23,54 -59,71 -172,114 -277,114 -133,0 -260,-98 -153,-366 3,-7 7,-13 16,-9l13 6c8,3 10,10 6,19 -79,200 20,271 134,269 78,-2 197,-35 238,-87z"/>
  <path class="fil4" d="M935 781l-70 -18c72,-35 6,-90 -111,-146 -11,-7 -10,-15 -9,-21l6 -53c2,-13 12,-11 17,-8 200,82 229,179 167,246z"/>
  <path class="fil1" d="M751 542l-4 35c90,53 164,72 277,72l0 -81c-120,1 -149,-3 -249,-45 -18,-7 -22,9 -24,19z"/>
 </g>
 <g id="Layer_x0020_5" visibility="hidden">
  <metadata id="CorelCorpID_4Corel-Layer"/>
  <path class="fil5" d="M875 731l34 32c-128,211 -609,205 -387,-272 3,-7 7,-10 15,-7l17 8c6,3 6,7 3,13 -154,346 165,373 318,226z"/>
  <path class="fil4" d="M879 802l-46 -39c71,-49 -18,-104 -86,-146 -26,-16 1,-57 13,-74 150,91 215,155 119,259z"/>
  <path class="fil1" d="M751 558l-4 36c87,50 166,56 221,56l56 0 0 -81 -52 0c-69,0 -126,-3 -197,-29 -18,-7 -22,8 -24,18z"/>
 </g>
 <g id="Layer_x0020_4" visibility="hidden">
  <metadata id="CorelCorpID_5Corel-Layer"/>
  <path class="fil1" d="M935 650l108 0 0 -81 -213 0c-17,0 -30,21 -40,42 -16,31 -17,43 5,51 92,33 130,60 104,82l43 25c33,-48 33,-87 -7,-119z"/>
  <path class="fil6" d="M919 719c-80,132 -479,160 -362,-157 3,-6 3,-10 -3,-13l-17 -8c-8,-4 -12,0 -15,6 -158,393 291,430 420,222l-23 -50z"/>
 </g>
 <g id="Layer_x0020_6" visibility="hidden">
  <metadata id="CorelCorpID_6Corel-Layer"/>
  <path class="fil6" d="M921 755c-35,45 -122,58 -188,57 -209,-1 -188,-162 -130,-301 2,-6 2,-10 -4,-13l-17 -8c-8,-3 -12,0 -15,7 -24,60 -51,134 -51,200 -1,135 100,197 211,197 88,0 194,-44 235,-125 48,-97 -56,-154 -132,-188 -18,0 -86,69 -68,69 43,0 198,57 159,105z"/>
  <path class="fil1" d="M769 580l-21 54c-3,9 0,16 10,16l282 0 0 -81 -255 0c-6,0 -14,5 -16,11z"/>
 </g>
 <g id="Layer_x0020_7" visibility="hidden">
  <metadata id="CorelCorpID_7Corel-Layer"/>
  <path class="fil7" d="M930 768l-48 -31c-124,113 -431,97 -326,-194 3,-7 3,-11 -3,-14l-17 -8c-8,-3 -12,0 -15,7 -159,397 266,442 409,240z"/>
  <path class="fil1" d="M744 580l-20 54c-3,9 0,16 10,16l282 0 0 -81 -255 0c-7,0 -14,5 -17,11z"/>
  <path class="fil6" d="M876 743l53 26c49,-97 -56,-154 -132,-188 -17,0 -86,69 -68,69 43,0 185,44 147,93z"/>
 </g>
 <g id="Layer_x0020_8" visibility="hidden">
  <metadata id="CorelCorpID_8Corel-Layer"/>
  <path class="fil6" d="M821 570l-40 80c111,19 143,57 140,74 -8,61 -472,193 -349,-181 3,-7 3,-11 -3,-14l-17 -8c-8,-3 -12,0 -15,7 -183,474 395,381 433,199 12,-58 -19,-110 -149,-157z"/>
  <path class="fil1" d="M766 620c-9,25 5,30 14,30l16 0 228 0 0 -81 -228 0c-10,0 -17,12 -22,25l-8 26z"/>
 </g>
 <g id="Layer_x0020_9" visibility="hidden">
  <metadata id="CorelCorpID_9Corel-Layer"/>
  <path class="fil8" d="M860 738c-59,41 -124,58 -182,58 -126,0 -236,-106 -126,-309 4,-6 3,-10 -3,-13l-17 -8c-8,-3 -11,1 -15,7 -160,291 3,404 154,406 90,0 183,-39 227,-107l-38 -34z"/>
  <path class="fil6" d="M839 751l43 42c55,-57 52,-132 -132,-162 -36,-6 29,-39 45,-38 37,1 71,62 197,57l0 -81c-120,0 -139,-59 -179,-55 -41,3 -115,74 -115,121 1,31 9,64 41,64 30,0 165,17 100,52z"/>
 </g>
 <g id="Layer_x0020_10" visibility="hidden">
  <metadata id="CorelCorpID_10Corel-Layer"/>
  <path class="fil9" d="M834 733l33 60c-51,37 -119,61 -196,61 -151,0 -314,-115 -154,-406 4,-6 7,-10 15,-6l17 8c6,2 7,7 3,13 -110,202 1,308 126,309 61,0 115,-17 156,-39z"/>
  <path class="fil6" d="M766 760l60 59c105,-49 77,-124 44,-157 -22,-22 -91,-40 -124,-47 -35,-7 38,-54 90,-55 36,2 86,95 213,90l0 -81c-120,0 -155,-81 -195,-80 -79,2 -136,59 -163,117 -16,34 -17,59 25,73 23,8 69,11 91,18 60,19 39,40 -41,63z"/>
 </g>
 <g id="Layer_x0020_11" visibility="hidden">
  <metadata id="CorelCorpID_11Corel-Layer"/>
  <path class="fil6" d="M722 610c80,-3 195,40 286,40l0 -81c-98,0 -191,-17 -232,-17 -28,1 -35,27 -54,58z"/>
  <path class="fil9" d="M722 610l12 -22c5,-8 18,-13 26,-9 97,49 161,70 150,140 -14,83 -118,143 -244,142 -113,-1 -217,-58 -206,-208 4,-56 22,-124 65,-205 4,-6 8,-11 15,-6l21 13c5,3 6,7 3,13 -200,384 221,336 289,259 17,-20 -103,-79 -128,-91 -9,-4 -12,-11 -3,-26z"/>
 </g>
 <g id="Layer_x0020_12" visibility="hidden">
  <metadata id="CorelCorpID_12Corel-Layer"/>
  <path class="fil10" d="M1046 650l0 -81c-61,1 -164,-12 -218,-26 -10,-3 -19,-7 -29,5l-27 36c-5,7 -4,20 9,25 9,4 194,41 265,41z"/>
  <path class="fil11" d="M921 715c37,-5 70,-16 34,37 -8,12 -18,23 -29,33 -58,47 -148,77 -227,76 -173,-2 -275,-130 -188,-399 3,-7 7,-14 17,-11l16 5c11,4 11,10 9,17 -72,231 28,306 160,307 67,0 148,-22 208,-65z"/>
  <path class="fil11" d="M922 788c40,-39 -13,-113 -147,-176 -27,-13 28,-78 39,-71 96,60 242,125 108,247z"/>
 </g>
 <g id="Layer_x0020_13" visibility="hidden">
  <metadata id="CorelCorpID_13Corel-Layer"/>
  <path class="fil10" d="M1068 650l0 -81c-61,1 -200,-17 -250,-35 -10,-3 -21,0 -32,11l-17 19c-6,6 -2,13 11,21 55,32 209,65 288,65z"/>
  <path class="fil11" d="M915 796c13,-31 18,-114 -153,-191 -27,-12 32,-76 44,-69 164,95 224,179 109,260z"/>
  <path class="fil12" d="M967 672c-2,42 19,53 -11,87 -44,57 -159,102 -265,103 -110,0 -211,-48 -212,-182 0,-72 25,-153 60,-224 5,-10 11,-11 18,-8l13 7c12,6 7,13 4,20 -29,69 -49,139 -42,195 11,86 87,113 172,109 88,-4 187,-42 231,-79 11,-9 21,-19 32,-28z"/>
 </g>
 <g id="Layer_x0020_14">
  <metadata id="CorelCorpID_14Corel-Layer"/>
  <path class="fil13" d="M973 713c-17,116 -201,180 -323,180 -156,1 -252,-116 -155,-372l41 13c-62,188 0,278 114,278 82,0 206,-37 257,-81 19,-16 -13,-81 -133,-80l0 -1 -23 0 22 -81 284 0 0 81 -95 0c9,18 13,38 11,63z"/>
 </g>
 <g id="Layer_x0020_15" visibility="hidden">
  <metadata id="CorelCorpID_15Corel-Layer"/>
  <path class="fil10" d="M1101 650l0 -81c-61,1 -201,-17 -250,-35 -10,-3 -20,0 -30,9 -20,16 -46,52 -26,62 71,39 108,76 126,109 -50,48 -150,82 -247,82 -77,0 -142,-45 -144,-146 -1,-35 19,-117 47,-182 4,-9 3,-13 -8,-16l-14 -4c-11,-3 -13,0 -17,8 -34,64 -62,179 -61,226 1,136 95,195 197,195 88,0 201,-27 256,-80l0 0c66,-63 73,-108 21,-167 54,12 111,20 150,20z"/>
 </g>
</svg>
